{
.appVersion = "3151";
.formatVersion = 3;
DisplayStrings = (
"I(O)-O-{[(O)]}[T]",
"¶",
e,
"§",
"≥",
"‡|",
")(",
"‹«",
",‚",
"'",
"/zero.dnom/one.sups/one.dnom/three.sups/two.dnom/three.dnom/eight.sups/four.dnom/five.dnom/six.sups 6/six.dnom/seven.dnom/eight.dnom/nine.dnom",
"/w_w_w"
);
axes = (
{
name = Weight;
tag = wght;
}
);
classes = (
{
automatic = 1;
code = "A Aacute Abreve Acaron Acircumflex Adieresis Agrave Amacron Aogonek Aring Aringacute Atilde AE B C Cacute Ccaron Ccedilla Cdotaccent D Eth Dcaron Dcroat E Eacute Ecaron Ecircumflex Edieresis Edotaccent Egrave Emacron Eogonek F Fhook G Gbreve Gcommaaccent Gdotaccent H Hbar I IJ Iacute Icaron Icircumflex Idieresis Idotaccent Igrave Imacron Iogonek J K Kcommaaccent L Lacute Lcaron Lcommaaccent Ldot Lslash M N Nacute Ncaron Ncommaaccent Ntilde Eng O Oacute Ocaron Ocircumflex Odieresis Ograve Ohungarumlaut Omacron Oslash Otilde OE P Thorn Q R Racute Rcaron Rcommaaccent S Sacute Scaron Scedilla Scommaaccent Germandbls T Tbar Tcaron Tcedilla Tcommaaccent U Uacute Ubreve Ucaron Ucircumflex Udieresis Udieresisacute Udieresiscaron Udieresisgrave Udieresismacron Ugrave Uhungarumlaut Umacron Uogonek Uring Utilde V W Wacute Wcircumflex Wdieresis Wgrave X Y Yacute Ycircumflex Ydieresis Ygrave Ytilde Z Zacute Zcaron Zdotaccent";
name = Uppercase;
}
);
customParameters = (
{
name = fsType;
value = (
);
},
{
name = "Use Typo Metrics";
value = 1;
},
{
name = "Write lastChange";
value = 0;
},
{
name = "Use Line Breaks";
value = 1;
},
{
name = panose;
value = (
0,
0,
0,
0,
0,
0,
0,
0,
0,
0
);
}
);
date = "2018-11-14 11:04:06 +0000";
familyName = "Baskervville LSP";
featurePrefixes = (
{
automatic = 1;
code = "languagesystem DFLT dflt;

languagesystem latn dflt;
languagesystem latn AZE;
languagesystem latn CRT;
languagesystem latn KAZ;
languagesystem latn TAT;
languagesystem latn TRK;
languagesystem latn ROM;
languagesystem latn MOL;
languagesystem latn CAT;
";
name = Languagesystems;
}
);
features = (
{
automatic = 1;

glyphs = (
{
color = 4;
glyphname = A;
kernLeft = A;
kernRight = A;
layers = (
{
anchors = (
{
name = bottom;
pos = (344,0);
},
{
name = ogonek;
pos = (649,0);
},
{
name = top;
pos = (374,710);
}
);
layerId = "9372F035-DA38-4B54-966C-CEBA9B53DD02";
shapes = (
{
closed = 1;
nodes = (
(106,0,l),
(233,-3,l),
(233,22,l),
(213,24,ls),
(162,28,o),
(142,41,o),
(142,66,cs),
(142,81,o),
(149,100,o),
(159,124,cs),
(369,633,l),
(345,633,l),
(547,124,ls),
(556,102,o),
(561,84,o),
(561,70,cs),
(561,43,o),
(543,29,o),
(496,24,cs),
(476,22,l),
(476,-3,l),
(636,0,l),
(760,-3,l),
(760,22,l),
(740,24,ls),
(686,29,o),
(660,58,o),
(634,123,cs),
(398,710,l),
(364,710,l),
(122,123,ls),
(92,50,o),
(63,32,o),
(-6,23,cs),
(-15,22,l),
(-15,-3,l)
);
},
{
closed = 1;
nodes = (
(501,254,l),
(489,286,l),
(221,286,l),
(208,254,l)
);
}
);
width = 745;
},
{
anchors = (
{
name = bottom;
pos = (304,0);
},
{
name = ogonek;
pos = (609,0);
},
{
name = top;
pos = (358,710);
}
);
layerId = m002;
shapes = (
{
closed = 1;
nodes = (
(92,-1,l),
(227,-3,l),
(227,37,l),
(197,39,ls),
(161,41,o),
(137,60,o),
(137,100,cs),
(137,116,o),
(141,136,o),
(151,160,cs),
(346,635,l),
(298,635,l),
(491,123,ls),
(496,110,o),
(498,97,o),
(498,85,cs),
(498,61,o),
(486,42,o),
(450,39,cs),
(428,37,l),
(428,-3,l),
(588,0,l),
(751,-3,l),
(751,37,l),
(731,39,ls),
(688,43,o),
(675,60,o),
(659,103,cs),
(430,710,l),
(318,710,l),
(89,153,ls),
(54,67,o),
(45,43,o),
(-10,38,cs),
(-20,37,l),
(-20,-3,l)
);
},
{
closed = 1;
nodes = (
(491,233,l),
(479,287,l),
(181,287,l),
(168,233,l)
);
}
);
width = 731;
}
);
unicode = 65;
},
{
color = 6;
glyphname = Aogonek;
kernLeft = A;
kernRight = A;
layers = (
{
layerId = "9372F035-DA38-4B54-966C-CEBA9B53DD02";
shapes = (
{
closed = 1;
nodes = (
(592,-294,o),
(633,-234,o),
(642,-183,c),
(625,-170,l),
(603,-211,o),
(566,-238,o),
(528,-238,cs),
(479,-238,o),
(454,-196,o),
(454,-150,cs),
(454,-58,o),
(532,0,o),
(628,0,cs),
(642,0,l),
(760,-3,l),
(760,22,l),
(740,24,ls),
(686,29,o),
(660,58,o),
(634,123,cs),
(395,717,l),
(367,717,l),
(122,123,ls),
(92,50,o),
(63,32,o),
(-6,23,cs),
(-15,22,l),
(-15,-3,l),
(106,0,l),
(233,-3,l),
(233,22,l),
(213,24,ls),
(165,28,o),
(148,42,o),
(148,68,cs),
(148,82,o),
(154,101,o),
(163,124,cs),
(216,255,l),
(493,255,l),
(535,147,ls),
(544,125,o),
(547,106,o),
(547,89,cs),
(547,56,o),
(541,36,o),
(494,-16,cs),
(459,-54,o),
(399,-123,o),
(399,-191,cs),
(399,-255,o),
(453,-294,o),
(510,-294,cs)
);
},
{
closed = 1;
nodes = (
(358,604,l),
(481,286,l),
(229,286,l)
);
}
);
width = 745;
},
{
layerId = m002;
shapes = (
{
closed = 1;
nodes = (
(582,-294,o),
(634,-229,o),
(641,-178,c),
(611,-167,l),
(594,-199,o),
(567,-219,o),
(529,-219,cs),
(490,-219,o),
(472,-189,o),
(472,-151,cs),
(472,-87,o),
(525,1,o),
(637,0,cs),
(646,0,l),
(761,-3,l),
(761,37,l),
(741,39,ls),
(698,43,o),
(685,60,o),
(669,103,cs),
(440,710,l),
(318,710,l),
(89,153,ls),
(54,67,o),
(45,43,o),
(-10,38,cs),
(-20,37,l),
(-20,-3,l),
(92,-1,l),
(227,-3,l),
(227,37,l),
(197,39,ls),
(161,41,o),
(137,60,o),
(137,100,cs),
(137,116,o),
(141,136,o),
(151,160,cs),
(181,233,l),
(460,233,l),
(501,123,ls),
(508,104,o),
(512,86,o),
(512,70,cs),
(512,29,o),
(491,-2,o),
(465,-31,cs),
(424,-78,o),
(370,-119,o),
(370,-187,cs),
(370,-251,o),
(425,-294,o),
(493,-294,cs)
);
},
{
closed = 1;
nodes = (
(326,587,l),
(439,287,l),
(203,287,l)
);
}
);
width = 741;
}
);
metricLeft = A;
metricRight = A;
unicode = 260;
},
{
color = 4;
glyphname = AE;
kernLeft = AE;
kernRight = E;
layers = (
{
anchors = (
{
name = bottom;
pos = (509,0);
},
{
name = top;
pos = (509,710);
}
);
layerId = "9372F035-DA38-4B54-966C-CEBA9B53DD02";
shapes = (
{
closed = 1;
nodes = (
(117,0,l),
(244,-3,l),
(244,19,l),
(213,22,ls),
(184,25,o),
(159,37,o),
(159,67,cs),
(159,81,o),
(165,101,o),
(180,125,cs),
(504,664,l),
(504,199,ls),
(504,48,o),
(490,29,o),
(440,24,cs),
(368,17,l),
(368,-3,l),
(523,0,l),
(967,0,l),
(970,90,l),
(977,210,l),
(952,210,l),
(939,52,o),
(907,25,o),
(781,25,cs),
(688,25,ls),
(612,25,o),
(591,54,o),
(591,107,cs),
(591,683,l),
(721,683,ls),
(869,683,o),
(901,669,o),
(920,546,c),
(944,546,l),
(936,638,l),
(934,713,l),
(832,710,l),
(505,710,l),
(396,713,l),
(396,690,l),
(432,688,ls),
(455,687,o),
(464,679,o),
(464,667,cs),
(464,652,o),
(451,630,o),
(435,603,cs),
(146,123,ls),
(92,33,o),
(58,27,o),
(11,22,cs),
(-15,19,l),
(-15,-3,l)
);
},
{
closed = 1;
nodes = (
(511,310,l),
(511,336,l),
(299,336,l),
(283,310,l)
);
},
{
closed = 1;
nodes = (
(797,226,l),
(794,374,l),
(797,508,l),
(772,508,l),
(767,408,o),
(740,387,o),
(701,387,cs),
(585,387,l),
(585,362,l),
(701,362,ls),
(747,362,o),
(772,324,o),
(772,226,c)
);
}
);
width = 1017;
},
{
anchors = (
{
name = bottom;
pos = (505,0);
},
{
name = top;
pos = (505,710);
}
);
background = {
shapes = (
{
closed = 1;
nodes = (
(20,-1,o),
(69,0,o),
(117,0,cs),
(165,0,o),
(213,-1,o),
(244,-3,c),
(244,19,l),
(213,22,ls),
(184,25,o),
(159,37,o),
(159,67,cs),
(159,81,o),
(165,101,o),
(180,125,cs),
(504,664,l),
(504,199,ls),
(504,48,o),
(490,29,o),
(440,24,cs),
(368,17,l),
(368,-3,l),
(523,0,l),
(967,0,l),
(970,90,l),
(977,210,l),
(952,210,l),
(939,52,o),
(907,25,o),
(781,25,cs),
(688,25,ls),
(612,25,o),
(591,54,o),
(591,107,cs),
(591,683,l),
(721,683,ls),
(869,683,o),
(901,669,o),
(920,546,c),
(944,546,l),
(936,638,l),
(934,710,l),
(505,710,l),
(396,713,l),
(396,690,l),
(432,688,ls),
(455,687,o),
(464,679,o),
(464,667,cs),
(464,652,o),
(451,630,o),
(435,603,cs),
(146,123,ls),
(92,33,o),
(58,27,o),
(11,22,cs),
(-15,19,l),
(-15,-3,l)
);
},
{
closed = 1;
nodes = (
(511,310,l),
(511,336,l),
(299,336,l),
(283,310,l)
);
},
{
closed = 1;
nodes = (
(797,226,l),
(794,374,l),
(797,508,l),
(772,508,l),
(767,408,o),
(740,387,o),
(701,387,cs),
(585,387,l),
(585,362,l),
(701,362,ls),
(747,362,o),
(772,324,o),
(772,226,c)
);
}
);
};
layerId = m002;
shapes = (
{
closed = 1;
nodes = (
(92,-1,l),
(234,-3,l),
(234,37,l),
(204,39,ls),
(163,42,o),
(146,58,o),
(146,82,cs),
(146,102,o),
(157,128,o),
(176,156,cs),
(477,614,l),
(477,133,ls),
(477,59,o),
(464,45,o),
(411,40,cs),
(391,38,l),
(391,-3,l),
(549,0,l),
(980,0,l),
(983,90,l),
(990,230,l),
(949,230,l),
(934,89,o),
(875,44,o),
(754,44,cs),
(731,44,ls),
(655,44,o),
(632,56,o),
(632,107,cs),
(632,666,l),
(714,666,ls),
(855,666,o),
(908,634,o),
(927,526,c),
(967,526,l),
(959,638,l),
(957,713,l),
(817,710,l),
(509,710,l),
(351,713,l),
(351,673,l),
(371,672,ls),
(399,671,o),
(418,664,o),
(418,644,cs),
(418,632,o),
(412,615,o),
(397,593,cs),
(109,153,ls),
(53,67,o),
(45,43,o),
(-10,38,cs),
(-20,37,l),
(-20,-3,l)
);
},
{
closed = 1;
nodes = (
(491,233,l),
(491,287,l),
(221,287,l),
(198,233,l)
);
},
{
closed = 1;
nodes = (
(830,216,l),
(827,374,l),
(830,518,l),
(790,518,l),
(778,416,o),
(735,396,o),
(664,396,cs),
(586,396,l),
(586,352,l),
(664,352,ls),
(746,352,o),
(785,317,o),
(790,216,c)
);
}
);
width = 1010;
}
);
metricLeft = A;
metricRight = E;
unicode = 198;
},
{
color = 4;
glyphname = B;
kernLeft = H;
kernRight = B;
layers = (
{
anchors = (
{
name = bottom;
pos = (332,0);
},
{
name = top;
pos = (332,710);
}
);
layerId = "9372F035-DA38-4B54-966C-CEBA9B53DD02";
shapes = (
{
closed = 1;
nodes = (
(188,0,l),
(366,0,ls),
(491,0,o),
(626,46,o),
(626,202,cs),
(626,337,o),
(524,377,o),
(420,381,c),
(423,374,l),
(496,395,o),
(584,446,o),
(584,547,cs),
(584,707,o),
(401,710,o),
(310,710,cs),
(188,710,l),
(40,713,l),
(40,688,l),
(60,686,ls),
(129,678,o),
(146,676,o),
(146,577,cs),
(146,133,ls),
(146,34,o),
(129,32,o),
(60,24,cs),
(40,22,l),
(40,-3,l)
);
},
{
closed = 1;
nodes = (
(254,28,o),
(227,49,o),
(227,129,cs),
(227,682,l),
(340,682,ls),
(435,682,o),
(491,660,o),
(491,547,cs),
(491,440,o),
(442,387,o),
(360,387,cs),
(221,387,l),
(221,359,l),
(320,359,ls),
(464,359,o),
(532,337,o),
(532,201,cs),
(532,60,o),
(466,28,o),
(366,28,cs),
(310,28,ls)
);
}
);
width = 686;
},
{
anchors = (
{
name = bottom;
pos = (343,0);
},
{
name = top;
pos = (324,710);
}
);
layerId = m002;
shapes = (
{
closed = 1;
nodes = (
(194,0,l),
(376,0,ls),
(524,0,o),
(684,46,o),
(684,202,cs),
(684,328,o),
(572,371,o),
(451,380,c),
(453,355,l),
(575,376,o),
(639,437,o),
(639,530,cs),
(639,679,o),
(501,710,o),
(324,710,cs),
(188,710,l),
(30,713,l),
(30,673,l),
(50,671,ls),
(103,666,o),
(116,651,o),
(116,577,cs),
(116,133,ls),
(116,59,o),
(103,45,o),
(50,40,cs),
(30,38,l),
(30,-3,l)
);
},
{
closed = 1;
nodes = (
(298,50,o),
(271,59,o),
(271,133,cs),
(271,660,l),
(343,660,ls),
(394,660,o),
(469,646,o),
(469,530,cs),
(469,439,o),
(445,397,o),
(328,397,cs),
(235,397,l),
(235,347,l),
(330,347,ls),
(454,347,o),
(512,327,o),
(512,201,cs),
(512,78,o),
(458,50,o),
(376,50,cs),
(366,50,ls)
);
}
);
width = 724;
}
);
metricLeft = I;
unicode = 66;
},
{
color = 4;
glyphname = C;
kernLeft = O;
kernRight = C;
layers = (
{
anchors = (
{
name = bottom;
pos = (381,0);
},
{
name = top;
pos = (394,710);
}
);
layerId = "9372F035-DA38-4B54-966C-CEBA9B53DD02";
shapes = (
{
closed = 1;
nodes = (
(466,-11,o),
(522,16,o),
(557,33,cs),
(573,41,o),
(585,47,o),
(595,47,cs),
(612,47,o),
(618,28,o),
(623,11,cs),
(626,0,l),
(650,0,l),
(647,117,l),
(649,239,l),
(625,239,l),
(612,119,o),
(528,19,o),
(399,19,cs),
(225,19,o),
(164,145,o),
(164,355,cs),
(164,541,o),
(224,694,o),
(399,694,cs),
(524,694,o),
(602,614,o),
(622,476,c),
(647,476,l),
(645,593,l),
(647,710,l),
(622,710,l),
(619,682,o),
(609,672,o),
(595,672,cs),
(589,672,o),
(573,679,o),
(556,687,cs),
(529,700,o),
(477,724,o),
(396,724,cs),
(213,724,o),
(62,567,o),
(62,355,cs),
(62,141,o),
(186,-11,o),
(390,-11,cs)
);
}
);
width = 720;
},
{
anchors = (
{
name = bottom;
pos = (392,0);
},
{
name = top;
pos = (405,710);
}
);
layerId = m002;
shapes = (
{
closed = 1;
nodes = (
(477,-11,o),
(534,8,o),
(568,21,cs),
(584,27,o),
(596,30,o),
(609,30,cs),
(626,30,o),
(635,21,o),
(641,4,cs),
(642,0,l),
(681,0,l),
(678,117,l),
(680,249,l),
(644,249,l),
(623,140,o),
(539,39,o),
(430,39,cs),
(273,39,o),
(225,158,o),
(225,355,cs),
(225,530,o),
(272,674,o),
(430,674,cs),
(535,674,o),
(613,591,o),
(637,466,c),
(678,466,l),
(676,593,l),
(678,710,l),
(638,710,l),
(633,688,o),
(623,680,o),
(609,680,cs),
(600,680,o),
(584,686,o),
(567,693,cs),
(540,703,o),
(488,724,o),
(407,724,cs),
(211,724,o),
(50,567,o),
(50,355,cs),
(50,141,o),
(183,-11,o),
(401,-11,cs)
);
}
);
width = 731;
}
);
metricLeft = O;
unicode = 67;
},
{
color = 4;
glyphname = D;
kernLeft = H;
kernRight = O;
layers = (
{
anchors = (
{
name = bottom;
pos = (381,0);
},
{
name = center;
pos = (231,367);
},
{
name = top;
pos = (361,710);
}
);
layerId = "9372F035-DA38-4B54-966C-CEBA9B53DD02";
shapes = (
{
closed = 1;
nodes = (
(188,0,l),
(380,0,ls),
(574,0,o),
(750,120,o),
(750,358,cs),
(750,607,o),
(599,710,o),
(330,710,cs),
(189,710,l),
(41,713,l),
(41,688,l),
(61,686,ls),
(130,678,o),
(147,676,o),
(147,577,cs),
(147,133,ls),
(147,34,o),
(129,32,o),
(60,24,cs),
(40,22,l),
(40,-3,l)
);
},
{
closed = 1;
nodes = (
(238,30,o),
(233,88,o),
(233,146,cs),
(233,680,l),
(359,680,ls),
(576,680,o),
(654,559,o),
(654,356,cs),
(654,133,o),
(547,30,o),
(384,30,cs),
(299,30,ls)
);
}
);
width = 812;
},
{
anchors = (
{
name = bottom;
pos = (381,0);
},
{
name = center;
pos = (241,367);
},
{
name = top;
pos = (371,710);
}
);
layerId = m002;
shapes = (
{
closed = 1;
nodes = (
(193,0,l),
(420,0,ls),
(610,0,o),
(783,120,o),
(783,358,cs),
(783,597,o),
(650,710,o),
(370,710,cs),
(199,710,l),
(30,713,l),
(30,673,l),
(50,671,ls),
(103,666,o),
(116,651,o),
(116,577,cs),
(116,133,ls),
(116,59,o),
(103,45,o),
(50,40,cs),
(30,38,l),
(30,-3,l)
);
},
{
closed = 1;
nodes = (
(300,50,o),
(271,74,o),
(271,153,cs),
(271,660,l),
(369,660,ls),
(545,660,o),
(608,546,o),
(608,356,cs),
(608,147,o),
(524,50,o),
(394,50,cs),
(357,50,l)
);
}
);
width = 833;
}
);
metricLeft = I;
metricRight = O;
unicode = 68;
},
{
color = 4;
glyphname = E;
kernLeft = H;
kernRight = H;
layers = (
{
anchors = (
{
name = bottom;
pos = (353,0);
},
{
name = ogonek;
pos = (559,0);
},
{
name = top;
pos = (363,710);
},
{
name = topleft;
pos = (2,710);
}
);
layerId = "9372F035-DA38-4B54-966C-CEBA9B53DD02";
shapes = (
{
closed = 1;
nodes = (
(188,0,l),
(599,0,l),
(602,90,l),
(609,210,l),
(584,210,l),
(571,55,o),
(539,28,o),
(423,28,cs),
(330,28,ls),
(254,28,o),
(231,43,o),
(231,107,cs),
(231,681,l),
(363,681,ls),
(511,681,o),
(543,667,o),
(562,546,c),
(586,546,l),
(578,638,l),
(576,713,l),
(451,710,l),
(188,710,l),
(40,713,l),
(40,688,l),
(60,686,ls),
(129,678,o),
(146,676,o),
(146,577,cs),
(146,133,ls),
(146,34,o),
(129,32,o),
(60,24,cs),
(40,22,l),
(40,-3,l)
);
},
{
closed = 1;
nodes = (
(439,226,l),
(436,374,l),
(439,508,l),
(414,508,l),
(409,409,o),
(382,388,o),
(343,388,cs),
(225,388,l),
(225,360,l),
(343,360,ls),
(389,360,o),
(414,323,o),
(414,226,c)
);
}
);
width = 649;
},
{
anchors = (
{
name = bottom;
pos = (353,0);
},
{
name = ogonek;
pos = (529,0);
},
{
name = top;
pos = (363,710);
},
{
name = topleft;
pos = (2,710);
}
);
layerId = m002;
shapes = (
{
closed = 1;
nodes = (
(188,0,l),
(619,0,l),
(622,90,l),
(629,230,l),
(588,230,l),
(573,89,o),
(514,44,o),
(393,44,cs),
(370,44,ls),
(294,44,o),
(271,56,o),
(271,107,cs),
(271,666,l),
(353,666,ls),
(494,666,o),
(547,634,o),
(566,526,c),
(606,526,l),
(598,638,l),
(596,713,l),
(456,710,l),
(188,710,l),
(30,713,l),
(30,673,l),
(50,671,ls),
(103,666,o),
(116,651,o),
(116,577,cs),
(116,133,ls),
(116,59,o),
(103,45,o),
(50,40,cs),
(30,38,l),
(30,-3,l)
);
},
{
closed = 1;
nodes = (
(469,216,l),
(466,374,l),
(469,518,l),
(429,518,l),
(417,416,o),
(374,396,o),
(303,396,cs),
(225,396,l),
(225,352,l),
(303,352,ls),
(385,352,o),
(424,317,o),
(429,216,c)
);
}
);
width = 649;
}
);
metricLeft = I;
unicode = 69;
},
{
color = 4;
glyphname = Eogonek;
kernLeft = H;
kernRight = H;
layers = (
{
layerId = "9372F035-DA38-4B54-966C-CEBA9B53DD02";
shapes = (
{
ref = E;
},
{
closed = 1;
nodes = (
(580,-294,o),
(617,-234,o),
(624,-183,c),
(607,-170,l),
(588,-212,o),
(552,-239,o),
(515,-239,cs),
(474,-239,o),
(439,-210,o),
(439,-154,cs),
(439,-69,o),
(527,0,o),
(599,0,c),
(593,29,l),
(460,-14,o),
(386,-112,o),
(386,-191,cs),
(386,-250,o),
(433,-294,o),
(494,-294,cs)
);
}
);
width = 664;
},
{
layerId = m002;
shapes = (
{
ref = E;
},
{
closed = 1;
nodes = (
(574,-294,o),
(626,-229,o),
(633,-178,c),
(603,-167,l),
(586,-199,o),
(559,-219,o),
(521,-219,cs),
(486,-219,o),
(463,-191,o),
(463,-154,cs),
(463,-103,o),
(506,-35,o),
(619,0,c),
(603,29,l),
(434,-10,o),
(358,-117,o),
(358,-187,cs),
(358,-251,o),
(415,-294,o),
(485,-294,cs)
);
}
);
width = 653;
}
);
metricLeft = E;
metricRight = E;
unicode = 280;
},
{
color = 4;
glyphname = F;
kernLeft = H;
kernRight = F;
layers = (
{
anchors = (
{
name = bottom;
pos = (197,0);
},
{
name = top;
pos = (337,710);
}
);
layerId = "9372F035-DA38-4B54-966C-CEBA9B53DD02";
shapes = (
{
closed = 1;
nodes = (
(188,0,l),
(189,0,l),
(351,-3,l),
(351,22,l),
(317,24,ls),
(252,28,o),
(231,34,o),
(231,133,cs),
(231,681,l),
(395,681,ls),
(461,681,o),
(567,681,o),
(578,548,c),
(602,548,l),
(593,637,l),
(590,713,l),
(468,710,l),
(188,710,l),
(40,713,l),
(40,688,l),
(60,686,ls),
(129,678,o),
(146,676,o),
(146,577,cs),
(146,133,ls),
(146,34,o),
(129,32,o),
(60,24,cs),
(40,22,l),
(40,-3,l)
);
},
{
closed = 1;
nodes = (
(439,226,l),
(436,374,l),
(439,508,l),
(414,508,l),
(409,409,o),
(382,388,o),
(343,388,cs),
(225,388,l),
(225,360,l),
(343,360,ls),
(389,360,o),
(414,323,o),
(414,226,c)
);
}
);
width = 607;
},
{
anchors = (
{
name = bottom;
pos = (207,0);
},
{
name = top;
pos = (347,710);
}
);
layerId = m002;
shapes = (
{
closed = 1;
nodes = (
(188,0,l),
(194,0,l),
(357,-3,l),
(357,38,l),
(337,40,ls),
(284,45,o),
(271,59,o),
(271,133,cs),
(271,666,l),
(353,666,ls),
(497,666,o),
(567,634,o),
(586,526,c),
(626,526,l),
(618,638,l),
(616,713,l),
(497,710,l),
(188,710,l),
(30,713,l),
(30,673,l),
(50,671,ls),
(103,666,o),
(116,651,o),
(116,577,cs),
(116,133,ls),
(116,59,o),
(103,45,o),
(50,40,cs),
(30,38,l),
(30,-3,l)
);
},
{
closed = 1;
nodes = (
(469,216,l),
(466,374,l),
(469,518,l),
(429,518,l),
(417,416,o),
(374,396,o),
(303,396,cs),
(225,396,l),
(225,352,l),
(303,352,ls),
(385,352,o),
(424,317,o),
(429,216,c)
);
}
);
width = 630;
}
);
metricLeft = I;
unicode = 70;
},
{
color = 4;
glyphname = Fhook;
kernLeft = H;
kernRight = F;
layers = (
{
anchors = (
{
name = top;
pos = (337,710);
}
);
layerId = "9372F035-DA38-4B54-966C-CEBA9B53DD02";
shapes = (
{
closed = 1;
nodes = (
(141,-290,o),
(231,-273,o),
(231,-138,c),
(231,683,l),
(395,683,ls),
(461,683,o),
(567,683,o),
(578,548,c),
(602,548,l),
(593,637,l),
(590,711,l),
(518,710,l),
(188,710,l),
(40,713,l),
(40,688,l),
(60,686,ls),
(129,679,o),
(146,676,o),
(146,577,cs),
(146,-156,ls),
(146,-180,o),
(146,-266,o),
(72,-266,cs),
(45,-266,o),
(37,-251,o),
(37,-238,cs),
(37,-222,o),
(48,-211,o),
(48,-190,cs),
(48,-166,o),
(28,-149,o),
(3,-149,cs),
(-32,-149,o),
(-49,-175,o),
(-49,-202,cs),
(-49,-255,o),
(7,-290,o),
(66,-290,cs)
);
},
{
closed = 1;
nodes = (
(439,226,l),
(436,374,l),
(439,508,l),
(414,508,l),
(409,409,o),
(382,388,o),
(343,388,cs),
(225,388,l),
(225,360,l),
(343,360,ls),
(389,360,o),
(414,323,o),
(414,226,c)
);
}
);
width = 607;
},
{
anchors = (
{
name = top;
pos = (337,710);
}
);
layerId = m002;
shapes = (
{
closed = 1;
nodes = (
(198,-290,o),
(270,-226,o),
(270,-73,c),
(271,666,l),
(353,666,ls),
(497,666,o),
(567,634,o),
(586,526,c),
(626,526,l),
(618,638,l),
(616,713,l),
(497,710,l),
(188,710,l),
(30,713,l),
(30,673,l),
(50,671,ls),
(103,666,o),
(116,651,o),
(116,577,cs),
(116,-95,ls),
(116,-178,o),
(110,-246,o),
(65,-246,cs),
(43,-246,o),
(30,-238,o),
(30,-220,cs),
(30,-199,o),
(42,-182,o),
(42,-162,cs),
(42,-128,o),
(15,-103,o),
(-34,-103,cs),
(-81,-103,o),
(-108,-131,o),
(-108,-173,cs),
(-108,-247,o),
(-43,-290,o),
(59,-290,cs)
);
},
{
closed = 1;
nodes = (
(469,216,l),
(466,374,l),
(469,518,l),
(429,518,l),
(417,416,o),
(374,396,o),
(303,396,cs),
(225,396,l),
(225,352,l),
(303,352,ls),
(385,352,o),
(424,317,o),
(429,216,c)
);
}
);
width = 630;
}
);
metricRight = F;
unicode = 401;
},
{
color = 4;
glyphname = G;
kernLeft = O;
kernRight = G;
layers = (
{
anchors = (
{
name = bottom;
pos = (399,0);
},
{
name = top;
pos = (399,710);
}
);
background = {
shapes = (
{
closed = 1;
nodes = (
(466,-11,o),
(522,16,o),
(557,33,cs),
(573,41,o),
(585,47,o),
(595,47,cs),
(612,47,o),
(618,28,o),
(623,11,cs),
(626,0,l),
(650,0,l),
(647,117,l),
(649,239,l),
(625,239,l),
(612,119,o),
(528,19,o),
(399,19,cs),
(225,19,o),
(164,145,o),
(164,355,cs),
(164,541,o),
(224,694,o),
(399,694,cs),
(524,694,o),
(602,614,o),
(622,476,c),
(647,476,l),
(645,593,l),
(647,710,l),
(622,710,l),
(619,682,o),
(609,672,o),
(595,672,cs),
(589,672,o),
(573,679,o),
(556,687,cs),
(529,700,o),
(477,724,o),
(396,724,cs),
(213,724,o),
(62,567,o),
(62,355,cs),
(62,141,o),
(186,-11,o),
(390,-11,cs)
);
}
);
};
layerId = "9372F035-DA38-4B54-966C-CEBA9B53DD02";
shapes = (
{
closed = 1;
nodes = (
(493,-11,o),
(541,23,o),
(576,48,cs),
(596,63,o),
(612,75,o),
(633,75,cs),
(645,75,o),
(662,67,o),
(680,39,c),
(703,54,l),
(689,79,ls),
(679,97,o),
(667,125,o),
(667,156,cs),
(667,174,ls),
(667,237,o),
(692,258,o),
(728,261,cs),
(773,265,l),
(773,289,l),
(619,285,l),
(453,289,l),
(453,265,l),
(496,261,ls),
(569,254,o),
(592,233,o),
(592,174,cs),
(592,146,ls),
(592,81,o),
(511,19,o),
(400,19,cs),
(250,19,o),
(164,126,o),
(164,355,cs),
(164,572,o),
(241,694,o),
(397,694,cs),
(504,694,o),
(617,614,o),
(621,478,c),
(646,478,l),
(644,595,l),
(646,710,l),
(621,710,l),
(621,694,o),
(614,673,o),
(596,673,cs),
(579,673,o),
(570,677,o),
(536,692,cs),
(506,705,o),
(459,724,o),
(400,724,cs),
(218,724,o),
(62,572,o),
(62,355,cs),
(62,131,o),
(210,-11,o),
(394,-11,cs)
);
}
);
width = 785;
},
{
anchors = (
{
name = bottom;
pos = (410,0);
},
{
name = top;
pos = (410,710);
}
);
layerId = m002;
shapes = (
{
closed = 1;
nodes = (
(472,-11,o),
(515,10,o),
(549,30,cs),
(579,48,o),
(602,64,o),
(631,64,cs),
(657,64,o),
(682,53,o),
(704,24,c),
(737,48,l),
(727,67,ls),
(710,99,o),
(696,132,o),
(696,171,cs),
(696,178,ls),
(696,237,o),
(725,257,o),
(769,262,cs),
(794,265,l),
(794,305,l),
(620,301,l),
(434,305,l),
(434,265,l),
(487,261,ls),
(537,257,o),
(553,233,o),
(553,174,cs),
(553,151,ls),
(553,93,o),
(507,39,o),
(421,39,cs),
(273,39,o),
(225,158,o),
(225,355,cs),
(225,530,o),
(272,674,o),
(430,674,cs),
(535,674,o),
(613,591,o),
(637,466,c),
(678,466,l),
(676,593,l),
(678,710,l),
(635,710,l),
(630,688,o),
(620,680,o),
(606,680,cs),
(600,680,o),
(584,686,o),
(567,693,cs),
(540,703,o),
(488,724,o),
(407,724,cs),
(211,724,o),
(50,567,o),
(50,355,cs),
(50,141,o),
(183,-11,o),
(401,-11,cs)
);
}
);
width = 796;
}
);
metricLeft = O;
unicode = 71;
},
{
color = 4;
glyphname = H;
kernLeft = H;
kernRight = H;
layers = (
{
anchors = (
{
name = bottom;
pos = (420,0);
},
{
name = center;
pos = (420,521);
},
{
name = top;
pos = (425,710);
},
{
name = topleft;
pos = (-10,710);
}
);
layerId = "9372F035-DA38-4B54-966C-CEBA9B53DD02";
shapes = (
{
closed = 1;
nodes = (
(640,352,l),
(640,384,l),
(198,384,l),
(198,352,l)
);
},
{
locked = 1;
pos = (466,0);
ref = I;
},
{
locked = 1;
ref = I;
}
);
width = 843;
},
{
anchors = (
{
name = bottom;
pos = (411,0);
},
{
name = center;
pos = (411,521);
},
{
name = top;
pos = (416,710);
},
{
name = topleft;
pos = (-10,710);
}
);
background = {
anchors = (
{
name = bottom;
pos = (411,0);
},
{
name = center;
pos = (411,521);
},
{
name = top;
pos = (416,710);
},
{
name = topleft;
pos = (-10,710);
}
);
shapes = (
{
closed = 1;
nodes = (
(640,341,l),
(640,395,l),
(198,395,l),
(198,341,l)
);
}
);
};
layerId = m002;
shapes = (
{
closed = 1;
nodes = (
(640,341,l),
(640,395,l),
(198,395,l),
(198,341,l)
);
},
{
locked = 1;
pos = (466,0);
ref = I;
},
{
locked = 1;
ref = I;
}
);
width = 853;
}
);
metricLeft = I;
metricRight = I;
unicode = 72;
},
{
color = 4;
glyphname = I;
kernLeft = H;
kernRight = H;
layers = (
{
anchors = (
{
name = bottom;
pos = (180,0);
},
{
name = ogonek;
pos = (214,0);
},
{
name = top;
pos = (187,710);
},
{
name = topleft;
pos = (-5,710);
}
);
layerId = "9372F035-DA38-4B54-966C-CEBA9B53DD02";
shapes = (
{
closed = 1;
nodes = (
(188,0,l),
(189,0,l),
(337,-3,l),
(337,22,l),
(317,24,ls),
(248,32,o),
(231,34,o),
(231,133,cs),
(231,577,ls),
(231,676,o),
(248,678,o),
(317,686,cs),
(337,688,l),
(337,713,l),
(189,710,l),
(188,710,l),
(40,713,l),
(40,688,l),
(60,686,ls),
(129,678,o),
(146,676,o),
(146,577,cs),
(146,133,ls),
(146,34,o),
(129,32,o),
(60,24,cs),
(40,22,l),
(40,-3,l)
);
}
);
width = 377;
},
{
anchors = (
{
name = bottom;
pos = (195,0);
},
{
name = ogonek;
pos = (214,0);
},
{
name = top;
pos = (196,710);
},
{
name = topleft;
pos = (-5,710);
}
);
background = {
shapes = (
{
closed = 1;
nodes = (
(188,0,l),
(189,0,l),
(337,-3,l),
(337,22,l),
(317,24,ls),
(248,31,o),
(231,34,o),
(231,133,cs),
(231,577,ls),
(231,676,o),
(248,679,o),
(317,686,cs),
(337,688,l),
(337,713,l),
(189,710,l),
(188,710,l),
(40,713,l),
(40,688,l),
(60,686,ls),
(129,679,o),
(146,676,o),
(146,577,cs),
(146,133,ls),
(146,34,o),
(129,31,o),
(60,24,cs),
(40,22,l),
(40,-3,l)
);
}
);
};
layerId = m002;
shapes = (
{
closed = 1;
nodes = (
(193,0,l),
(194,0,l),
(357,-3,l),
(357,38,l),
(337,40,ls),
(284,45,o),
(271,59,o),
(271,133,cs),
(271,577,ls),
(271,651,o),
(284,666,o),
(337,671,cs),
(357,673,l),
(357,713,l),
(194,710,l),
(193,710,l),
(30,713,l),
(30,673,l),
(50,671,ls),
(103,666,o),
(116,651,o),
(116,577,cs),
(116,133,ls),
(116,59,o),
(103,45,o),
(50,40,cs),
(30,38,l),
(30,-3,l)
);
}
);
width = 387;
}
);
unicode = 73;
},
{
color = 4;
glyphname = J;
kernLeft = J;
kernRight = J;
layers = (
{
anchors = (
{
name = bottom;
pos = (193,0);
},
{
name = top;
pos = (253,710);
}
);
layerId = "9372F035-DA38-4B54-966C-CEBA9B53DD02";
shapes = (
{
closed = 1;
nodes = (
(205,-11,o),
(295,6,o),
(295,141,cs),
(295,577,ls),
(295,676,o),
(312,678,o),
(381,686,cs),
(401,688,l),
(401,713,l),
(253,710,l),
(252,710,l),
(104,713,l),
(104,688,l),
(124,686,ls),
(193,678,o),
(210,676,o),
(210,577,cs),
(210,123,ls),
(210,99,o),
(210,13,o),
(136,13,cs),
(109,13,o),
(101,28,o),
(101,41,cs),
(101,48,o),
(103,54,o),
(106,62,c),
(109,69,o),
(112,77,o),
(112,89,cs),
(112,113,o),
(92,130,o),
(67,130,cs),
(32,130,o),
(15,104,o),
(15,77,cs),
(15,24,o),
(71,-11,o),
(130,-11,cs)
);
}
);
width = 431;
},
{
anchors = (
{
name = bottom;
pos = (246,0);
},
{
name = top;
pos = (306,710);
}
);
layerId = m002;
shapes = (
{
closed = 1;
nodes = (
(310,-14,o),
(382,50,o),
(382,203,cs),
(383,577,ls),
(383,651,o),
(396,666,o),
(449,671,cs),
(469,673,l),
(469,713,l),
(306,710,l),
(305,710,l),
(142,713,l),
(142,673,l),
(162,671,ls),
(215,666,o),
(228,651,o),
(228,577,cs),
(228,181,ls),
(228,98,o),
(222,30,o),
(177,30,cs),
(155,30,o),
(142,38,o),
(142,56,cs),
(142,64,o),
(144,73,o),
(147,83,cs),
(150,92,o),
(154,103,o),
(154,114,cs),
(154,148,o),
(127,173,o),
(78,173,cs),
(31,173,o),
(4,145,o),
(4,103,cs),
(4,29,o),
(69,-14,o),
(171,-14,cs)
);
}
);
width = 484;
}
);
unicode = 74;
},
{
color = 4;
glyphname = K;
kernLeft = H;
kernRight = K;
layers = (
{
anchors = (
{
name = bottom;
pos = (393,0);
},
{
name = top;
pos = (371,710);
}
);
layerId = "9372F035-DA38-4B54-966C-CEBA9B53DD02";
shapes = (
{
closed = 1;
nodes = (
(522,606,ls),
(560,651,o),
(594,679,o),
(634,684,cs),
(668,688,l),
(668,713,l),
(547,710,l),
(419,713,l),
(419,687,l),
(451,684,ls),
(480,681,o),
(497,671,o),
(497,652,cs),
(497,635,o),
(485,611,o),
(457,578,cs),
(219,300,l),
(219,249,l)
);
},
{
closed = 1;
nodes = (
(188,0,l),
(324,-3,l),
(324,22,l),
(306,24,ls),
(242,32,o),
(227,34,o),
(227,133,cs),
(227,577,ls),
(227,667,o),
(240,678,o),
(301,685,cs),
(321,687,l),
(321,713,l),
(188,710,l),
(40,713,l),
(40,688,l),
(60,686,ls),
(129,678,o),
(146,676,o),
(146,577,cs),
(146,133,ls),
(146,34,o),
(129,32,o),
(60,24,cs),
(40,22,l),
(40,-3,l)
);
},
{
closed = 1;
nodes = (
(609,0,l),
(761,-3,l),
(761,22,l),
(740,24,ls),
(668,31,o),
(626,82,o),
(558,171,cs),
(356,435,l),
(297,365,l),
(497,107,ls),
(514,85,o),
(524,66,o),
(524,52,cs),
(524,36,o),
(510,25,o),
(476,23,cs),
(461,22,l),
(461,-3,l)
);
}
);
width = 741;
},
{
anchors = (
{
name = bottom;
pos = (413,0);
},
{
name = top;
pos = (391,710);
}
);
layerId = m002;
shapes = (
{
closed = 1;
nodes = (
(577,592,ls),
(617,634,o),
(649,662,o),
(689,670,cs),
(708,674,l),
(708,713,l),
(587,710,l),
(439,713,l),
(439,673,l),
(470,670,ls),
(499,667,o),
(516,657,o),
(516,638,cs),
(516,621,o),
(506,596,o),
(476,564,cs),
(239,310,l),
(239,229,l)
);
},
{
closed = 1;
nodes = (
(193,0,l),
(357,-3,l),
(357,38,l),
(337,40,ls),
(284,45,o),
(271,59,o),
(271,133,cs),
(271,577,ls),
(271,651,o),
(284,666,o),
(337,671,cs),
(357,673,l),
(357,713,l),
(194,710,l),
(30,713,l),
(30,673,l),
(50,671,ls),
(103,666,o),
(116,651,o),
(116,577,cs),
(116,133,ls),
(116,59,o),
(103,45,o),
(50,40,cs),
(30,38,l),
(30,-3,l)
);
},
{
closed = 1;
nodes = (
(649,0,l),
(781,-3,l),
(781,37,l),
(767,38,ls),
(727,41,o),
(704,66,o),
(639,171,cs),
(447,482,l),
(327,380,l),
(487,123,ls),
(502,100,o),
(509,82,o),
(509,68,cs),
(509,52,o),
(496,41,o),
(466,39,cs),
(451,38,l),
(451,-3,l)
);
}
);
width = 771;
}
);
metricLeft = I;
unicode = 75;
},
{
color = 4;
glyphname = L;
kernLeft = H;
kernRight = L;
layers = (
{
anchors = (
{
name = bottom;
pos = (359,0);
},
{
name = center;
pos = (212,375);
},
{
name = top;
pos = (188,710);
},
{
name = topright;
pos = (409,710);
}
);
layerId = "9372F035-DA38-4B54-966C-CEBA9B53DD02";
shapes = (
{
closed = 1;
nodes = (
(188,0,l),
(606,-3,l),
(616,210,l),
(594,210,l),
(584,92,o),
(539,29,o),
(423,29,cs),
(348,29,ls),
(235,29,o),
(231,73,o),
(231,172,cs),
(231,589,ls),
(231,679,o),
(245,681,o),
(303,688,cs),
(319,690,l),
(319,713,l),
(190,710,l),
(40,713,l),
(40,688,l),
(60,686,ls),
(129,679,o),
(146,676,o),
(146,577,cs),
(146,133,ls),
(146,34,o),
(129,31,o),
(60,24,cs),
(40,22,l),
(40,-3,l)
);
}
);
width = 651;
},
{
anchors = (
{
name = bottom;
pos = (369,0);
},
{
name = center;
pos = (222,375);
},
{
name = top;
pos = (198,710);
},
{
name = topright;
pos = (419,710);
}
);
layerId = m002;
shapes = (
{
closed = 1;
nodes = (
(188,0,l),
(619,0,l),
(629,230,l),
(589,230,l),
(563,89,o),
(501,44,o),
(383,44,cs),
(370,44,ls),
(294,44,o),
(271,58,o),
(271,117,cs),
(271,577,ls),
(271,661,o),
(284,666,o),
(337,671,cs),
(357,673,l),
(357,713,l),
(199,710,l),
(30,713,l),
(30,673,l),
(50,671,ls),
(103,666,o),
(116,651,o),
(116,577,cs),
(116,133,ls),
(116,59,o),
(103,45,o),
(50,40,cs),
(30,38,l),
(30,-3,l)
);
}
);
width = 661;
}
);
metricLeft = I;
unicode = 76;
},
{
color = 4;
glyphname = M;
kernLeft = M;
kernRight = H;
layers = (
{
anchors = (
{
name = bottom;
pos = (443,0);
},
{
name = top;
pos = (497,710);
}
);
guides = (
{
pos = (547,642);
}
);
layerId = "9372F035-DA38-4B54-966C-CEBA9B53DD02";
shapes = (
{
closed = 1;
nodes = (
(155,0,l),
(282,-3,l),
(282,22,l),
(262,24,ls),
(196,31,o),
(176,41,o),
(176,105,cs),
(176,681,l),
(159,679,l),
(434,0,l),
(453,0,l),
(765,682,l),
(749,684,l),
(749,133,ls),
(749,34,o),
(732,31,o),
(663,24,cs),
(643,22,l),
(643,-3,l),
(792,0,l),
(940,-3,l),
(940,22,l),
(920,24,ls),
(851,31,o),
(834,34,o),
(834,133,cs),
(834,577,ls),
(834,676,o),
(851,678,o),
(920,686,cs),
(940,688,l),
(940,713,l),
(800,710,l),
(740,710,l),
(462,101,l),
(490,101,l),
(239,710,l),
(183,710,l),
(35,713,l),
(35,688,l),
(55,686,ls),
(124,678,o),
(141,676,o),
(141,577,cs),
(141,133,ls),
(141,34,o),
(124,32,o),
(55,24,cs),
(35,22,l),
(35,-3,l)
);
}
);
width = 980;
},
{
anchors = (
{
name = bottom;
pos = (453,0);
},
{
name = top;
pos = (507,710);
}
);
guides = (
{
pos = (557,642);
}
);
layerId = m002;
shapes = (
{
closed = 1;
nodes = (
(155,-1,l),
(287,-3,l),
(287,37,l),
(257,39,ls),
(196,43,o),
(181,59,o),
(181,133,cs),
(181,679,l),
(157,679,l),
(454,0,l),
(493,0,l),
(780,682,l),
(755,682,l),
(755,133,ls),
(755,59,o),
(742,45,o),
(689,40,cs),
(669,38,l),
(669,-3,l),
(832,0,l),
(996,-3,l),
(996,38,l),
(976,40,ls),
(923,45,o),
(910,59,o),
(910,133,cs),
(910,577,ls),
(910,651,o),
(923,666,o),
(976,671,cs),
(996,673,l),
(996,713,l),
(833,710,l),
(732,710,l),
(477,101,l),
(547,174,l),
(313,710,l),
(203,710,l),
(40,713,l),
(40,673,l),
(60,671,ls),
(113,666,o),
(126,651,o),
(126,577,cs),
(126,133,ls),
(126,59,o),
(111,43,o),
(50,39,cs),
(20,37,l),
(20,-3,l)
);
}
);
width = 1026;
}
);
metricRight = I;
unicode = 77;
},
{
color = 4;
glyphname = N;
kernLeft = M;
kernRight = N;
layers = (
{
anchors = (
{
name = bottom;
pos = (436,0);
},
{
name = top;
pos = (402,710);
}
);
layerId = "9372F035-DA38-4B54-966C-CEBA9B53DD02";
shapes = (
{
closed = 1;
nodes = (
(163,0,l),
(291,-4,l),
(291,21,l),
(271,23,ls),
(202,30,o),
(185,33,o),
(185,133,cs),
(185,648,l),
(168,626,l),
(255,527,o),
(556,139,o),
(625,0,c),
(655,0,l),
(655,577,ls),
(655,676,o),
(672,678,o),
(741,686,cs),
(761,688,l),
(761,713,l),
(639,710,l),
(509,713,l),
(509,688,l),
(529,686,ls),
(598,679,o),
(615,676,o),
(615,577,cs),
(615,156,l),
(629,181,l),
(589,232,o),
(308,601,o),
(229,710,c),
(35,713,l),
(35,687,l),
(65,687,ls),
(111,687,o),
(133,664,o),
(145,649,c),
(145,133,ls),
(145,33,o),
(128,30,o),
(59,23,cs),
(39,21,l),
(39,-4,l)
);
}
);
width = 781;
},
{
anchors = (
{
name = bottom;
pos = (431,0);
},
{
name = top;
pos = (397,710);
}
);
layerId = m002;
shapes = (
{
closed = 1;
nodes = (
(158,-1,l),
(290,-3,l),
(290,37,l),
(260,39,ls),
(199,43,o),
(184,59,o),
(184,133,cs),
(184,644,l),
(172,558,l),
(289,429,o),
(494,164,o),
(600,0,c),
(658,0,l),
(658,577,ls),
(658,651,o),
(673,667,o),
(734,671,cs),
(764,673,l),
(764,713,l),
(632,711,l),
(497,713,l),
(497,673,l),
(527,671,ls),
(588,667,o),
(603,651,o),
(603,577,cs),
(603,165,l),
(628,239,l),
(498,405,o),
(359,577,o),
(259,710,c),
(20,713,l),
(20,673,l),
(32,673,ls),
(63,673,o),
(77,667,o),
(128,606,c),
(129,133,ls),
(129,59,o),
(114,43,o),
(53,39,cs),
(23,37,l),
(23,-3,l)
);
}
);
width = 784;
}
);
metricLeft = M;
unicode = 78;
},
{
color = 4;
glyphname = Eng;
kernLeft = H;
kernRight = N;
layers = (
{
layerId = "9372F035-DA38-4B54-966C-CEBA9B53DD02";
shapes = (
{
closed = 1;
nodes = (
(588,-264,o),
(656,-229,o),
(656,-60,cs),
(656,577,ls),
(656,676,o),
(672,678,o),
(741,686,cs),
(761,688,l),
(761,713,l),
(639,710,l),
(509,713,l),
(509,688,l),
(529,686,ls),
(598,679,o),
(615,676,o),
(615,577,cs),
(615,199,l),
(545,289,o),
(302,610,o),
(229,710,c),
(35,713,l),
(35,687,l),
(65,687,ls),
(111,687,o),
(133,664,o),
(145,649,c),
(145,133,ls),
(145,33,o),
(128,30,o),
(59,23,cs),
(39,21,l),
(39,-4,l),
(163,0,l),
(291,-4,l),
(291,21,l),
(271,23,ls),
(202,30,o),
(185,33,o),
(185,133,cs),
(185,606,l),
(289,483,o),
(560,131,o),
(626,0,c),
(626,-58,ls),
(626,-150,o),
(605,-223,o),
(554,-223,cs),
(544,-223,o),
(532,-218,o),
(532,-202,cs),
(532,-191,o),
(534,-190,o),
(534,-177,cs),
(534,-155,o),
(516,-137,o),
(486,-137,cs),
(456,-137,o),
(438,-161,o),
(438,-187,cs),
(438,-237,o),
(474,-264,o),
(524,-264,cs)
);
}
);
width = 781;
},
{
layerId = m002;
shapes = (
{
closed = 1;
nodes = (
(607,-264,o),
(658,-218,o),
(658,-110,cs),
(658,577,ls),
(658,651,o),
(673,667,o),
(734,671,cs),
(764,673,l),
(764,713,l),
(632,711,l),
(497,713,l),
(497,673,l),
(527,671,ls),
(588,667,o),
(603,651,o),
(603,577,cs),
(603,267,l),
(479,424,o),
(350,584,o),
(256,710,c),
(20,713,l),
(20,673,l),
(32,673,ls),
(63,673,o),
(78,667,o),
(129,606,c),
(129,133,ls),
(129,59,o),
(114,43,o),
(53,39,cs),
(23,37,l),
(23,-3,l),
(158,-1,l),
(290,-3,l),
(290,37,l),
(260,39,ls),
(199,43,o),
(184,59,o),
(184,133,cs),
(184,546,l),
(302,413,o),
(498,159,o),
(601,0,c),
(601,-130,ls),
(601,-184,o),
(585,-228,o),
(544,-228,cs),
(524,-228,o),
(512,-221,o),
(512,-204,cs),
(512,-189,o),
(523,-166,o),
(523,-151,cs),
(523,-120,o),
(498,-97,o),
(453,-97,cs),
(410,-97,o),
(385,-123,o),
(385,-161,cs),
(385,-226,o),
(441,-264,o),
(529,-264,cs)
);
}
);
width = 784;
}
);
metricLeft = N;
metricRight = N;
unicode = 330;
},
{
color = 4;
glyphname = O;
kernLeft = O;
kernRight = O;
layers = (
{
anchors = (
{
name = bottom;
pos = (410,0);
},
{
name = center;
pos = (410,355);
},
{
name = ogonek;
pos = (484,0);
},
{
name = top;
pos = (409,710);
},
{
name = topleft;
pos = (22,710);
}
);
layerId = "9372F035-DA38-4B54-966C-CEBA9B53DD02";
shapes = (
{
closed = 1;
nodes = (
(609,-11,o),
(756,141,o),
(756,357,cs),
(756,572,o),
(609,724,o),
(409,724,cs),
(209,724,o),
(62,572,o),
(62,357,cs),
(62,141,o),
(209,-11,o),
(409,-11,cs)
);
},
{
closed = 1;
nodes = (
(236,19,o),
(164,147,o),
(164,357,cs),
(164,566,o),
(236,694,o),
(409,694,cs),
(582,694,o),
(654,566,o),
(654,357,cs),
(654,147,o),
(582,19,o),
(409,19,cs)
);
}
);
width = 818;
},
{
anchors = (
{
name = bottom;
pos = (421,0);
},
{
name = center;
pos = (421,355);
},
{
name = ogonek;
pos = (495,0);
},
{
name = top;
pos = (420,710);
},
{
name = topleft;
pos = (33,710);
}
);
layerId = m002;
shapes = (
{
closed = 1;
nodes = (
(633,-11,o),
(790,141,o),
(790,357,cs),
(790,572,o),
(633,724,o),
(420,724,cs),
(207,724,o),
(50,572,o),
(50,357,cs),
(50,141,o),
(207,-11,o),
(420,-11,cs)
);
},
{
closed = 1;
nodes = (
(282,39,o),
(225,159,o),
(225,357,cs),
(225,554,o),
(282,674,o),
(420,674,cs),
(558,674,o),
(615,554,o),
(615,357,cs),
(615,159,o),
(558,39,o),
(420,39,cs)
);
}
);
width = 840;
}
);
unicode = 79;
},
{
color = 4;
glyphname = OE;
kernLeft = O;
kernRight = E;
layers = (
{
layerId = "9372F035-DA38-4B54-966C-CEBA9B53DD02";
shapes = (
{
closed = 1;
nodes = (
(431,-11,o),
(458,-8,o),
(484,-2,c),
(569,0,l),
(960,0,l),
(963,90,l),
(970,210,l),
(945,210,l),
(932,52,o),
(900,25,o),
(774,25,cs),
(682,25,ls),
(629,25,o),
(614,54,o),
(614,107,cs),
(614,683,l),
(714,683,ls),
(862,683,o),
(894,669,o),
(913,546,c),
(937,546,l),
(929,638,l),
(927,713,l),
(815,710,l),
(563,710,l),
(511,710,l),
(480,719,o),
(447,725,o),
(414,725,cs),
(227,725,o),
(62,572,o),
(62,355,cs),
(62,141,o),
(209,-11,o),
(404,-11,cs)
);
},
{
closed = 1;
nodes = (
(243,19,o),
(164,145,o),
(164,355,cs),
(164,558,o),
(242,695,o),
(414,695,cs),
(489,695,o),
(528,672,o),
(528,577,cs),
(528,133,ls),
(528,37,o),
(497,19,o),
(404,19,cs)
);
},
{
closed = 1;
nodes = (
(790,226,l),
(787,374,l),
(790,508,l),
(765,508,l),
(760,408,o),
(733,387,o),
(694,387,cs),
(608,387,l),
(608,362,l),
(694,362,ls),
(740,362,o),
(765,324,o),
(765,226,c)
);
}
);
width = 1010;
},
{
background = {
shapes = (
{
closed = 1;
nodes = (
(431,-11,o),
(458,-8,o),
(484,-2,c),
(569,0,l),
(960,0,l),
(963,90,l),
(970,210,l),
(945,210,l),
(932,52,o),
(900,25,o),
(774,25,cs),
(682,25,ls),
(629,25,o),
(614,54,o),
(614,107,cs),
(614,683,l),
(714,683,ls),
(862,683,o),
(894,669,o),
(913,546,c),
(937,546,l),
(929,638,l),
(927,710,l),
(511,710,l),
(480,719,o),
(447,725,o),
(414,725,cs),
(227,725,o),
(62,572,o),
(62,355,cs),
(62,141,o),
(209,-11,o),
(404,-11,cs)
);
},
{
closed = 1;
nodes = (
(243,19,o),
(164,145,o),
(164,355,cs),
(164,558,o),
(242,695,o),
(414,695,cs),
(489,695,o),
(528,672,o),
(528,577,cs),
(528,133,ls),
(528,37,o),
(497,19,o),
(404,19,cs)
);
},
{
closed = 1;
nodes = (
(790,226,l),
(787,374,l),
(790,508,l),
(765,508,l),
(760,408,o),
(733,387,o),
(694,387,cs),
(608,387,l),
(608,362,l),
(694,362,ls),
(740,362,o),
(765,324,o),
(765,226,c)
);
}
);
};
layerId = m002;
shapes = (
{
closed = 1;
nodes = (
(450,-11,o),
(480,-8,o),
(508,-2,c),
(608,0,l),
(1039,0,l),
(1042,90,l),
(1049,230,l),
(1008,230,l),
(993,89,o),
(934,44,o),
(813,44,cs),
(790,44,ls),
(714,44,o),
(691,56,o),
(691,107,cs),
(691,666,l),
(773,666,ls),
(914,666,o),
(967,634,o),
(986,526,c),
(1026,526,l),
(1018,638,l),
(1016,713,l),
(876,710,l),
(608,710,l),
(522,712,l),
(490,720,o),
(456,724,o),
(420,724,cs),
(207,724,o),
(50,572,o),
(50,357,cs),
(50,141,o),
(207,-11,o),
(420,-11,cs)
);
},
{
closed = 1;
nodes = (
(282,39,o),
(225,159,o),
(225,357,cs),
(225,554,o),
(282,674,o),
(420,674,cs),
(501,674,o),
(536,648,o),
(536,567,cs),
(536,143,ls),
(536,63,o),
(500,39,o),
(420,39,cs)
);
},
{
closed = 1;
nodes = (
(889,216,l),
(886,374,l),
(889,518,l),
(849,518,l),
(837,416,o),
(794,396,o),
(723,396,cs),
(645,396,l),
(645,352,l),
(723,352,ls),
(805,352,o),
(844,317,o),
(849,216,c)
);
}
);
width = 1069;
}
);
metricLeft = O;
metricRight = E;
unicode = 338;
},
{
color = 4;
glyphname = P;
kernLeft = H;
kernRight = P;
layers = (
{
anchors = (
{
name = bottom;
pos = (187,0);
},
{
name = top;
pos = (297,710);
}
);
layerId = "9372F035-DA38-4B54-966C-CEBA9B53DD02";
shapes = (
{
closed = 1;
nodes = (
(185,0,l),
(354,-3,l),
(354,22,l),
(332,24,ls),
(251,32,o),
(231,34,o),
(231,133,cs),
(231,682,l),
(363,682,ls),
(425,682,o),
(515,666,o),
(515,514,cs),
(515,408,o),
(486,345,o),
(348,345,cs),
(225,345,l),
(225,315,l),
(348,315,ls),
(519,315,o),
(610,395,o),
(610,514,cs),
(610,680,o),
(485,710,o),
(324,710,cs),
(188,710,l),
(40,713,l),
(40,688,l),
(60,686,ls),
(129,678,o),
(146,676,o),
(146,577,cs),
(146,133,ls),
(146,34,o),
(129,32,o),
(60,24,cs),
(40,22,l),
(40,-3,l)
);
}
);
width = 635;
},
{
anchors = (
{
name = bottom;
pos = (197,0);
},
{
name = top;
pos = (307,710);
}
);
layerId = m002;
shapes = (
{
closed = 1;
nodes = (
(194,0,l),
(357,-3,l),
(357,38,l),
(337,40,ls),
(284,45,o),
(271,59,o),
(271,133,cs),
(271,660,l),
(353,660,ls),
(405,660,o),
(480,646,o),
(480,509,cs),
(480,412,o),
(455,355,o),
(338,355,cs),
(235,355,l),
(235,305,l),
(358,305,ls),
(549,305,o),
(650,387,o),
(650,509,cs),
(650,679,o),
(512,710,o),
(334,710,cs),
(188,710,l),
(30,713,l),
(30,673,l),
(50,671,ls),
(103,666,o),
(116,651,o),
(116,577,cs),
(116,133,ls),
(116,59,o),
(103,45,o),
(50,40,cs),
(30,38,l),
(30,-3,l)
);
}
);
width = 662;
}
);
metricLeft = I;
unicode = 80;
},
{
color = 4;
glyphname = Thorn;
kernLeft = H;
kernRight = Thorn;
layers = (
{
anchors = (
{
name = bottom;
pos = (285,0);
},
{
name = top;
pos = (285,710);
}
);
layerId = "9372F035-DA38-4B54-966C-CEBA9B53DD02";
shapes = (
{
closed = 1;
nodes = (
(191,0,l),
(333,-3,l),
(333,22,l),
(313,24,ls),
(244,32,o),
(226,34,o),
(226,133,cs),
(226,577,ls),
(226,676,o),
(243,678,o),
(312,686,cs),
(332,688,l),
(332,713,l),
(187,710,l),
(40,713,l),
(40,688,l),
(60,686,ls),
(129,678,o),
(146,676,o),
(146,577,cs),
(146,133,ls),
(146,34,o),
(130,32,o),
(61,24,cs),
(41,22,l),
(41,-3,l)
);
},
{
closed = 1;
nodes = (
(298,179,ls),
(469,179,o),
(565,256,o),
(565,370,cs),
(565,539,o),
(420,556,o),
(313,556,cs),
(220,556,l),
(220,531,l),
(313,531,ls),
(426,531,o),
(465,490,o),
(465,370,cs),
(465,267,o),
(436,205,o),
(298,205,cs),
(221,205,l),
(221,179,l)
);
}
);
width = 555;
},
{
anchors = (
{
name = bottom;
pos = (285,0);
},
{
name = top;
pos = (285,710);
}
);
layerId = m002;
shapes = (
{
closed = 1;
nodes = (
(194,0,l),
(357,-3,l),
(357,38,l),
(337,40,ls),
(284,45,o),
(271,59,o),
(271,133,c),
(271,607,l),
(271,681,o),
(284,695,o),
(337,700,cs),
(357,702,l),
(357,743,l),
(194,740,l),
(30,743,l),
(30,702,l),
(50,700,ls),
(103,695,o),
(116,681,o),
(116,607,c),
(116,133,l),
(116,59,o),
(103,45,o),
(50,40,cs),
(30,38,l),
(30,-3,l)
);
},
{
closed = 1;
nodes = (
(358,166,ls),
(549,166,o),
(650,248,o),
(650,370,cs),
(650,492,o),
(549,574,o),
(358,574,cs),
(235,574,l),
(235,524,l),
(338,524,ls),
(455,524,o),
(480,467,o),
(480,370,cs),
(480,273,o),
(455,216,o),
(338,216,cs),
(235,216,l),
(235,166,l)
);
}
);
width = 640;
}
);
metricLeft = I;
metricRight = R;
unicode = 222;
},
{
color = 4;
glyphname = Q;
kernLeft = O;
kernRight = O;
layers = (
{
anchors = (
{
name = top;
pos = (410,710);
}
);
layerId = "9372F035-DA38-4B54-966C-CEBA9B53DD02";
shapes = (
{
closed = 1;
nodes = (
(743,-294,o),
(784,-233,o),
(794,-124,c),
(774,-124,l),
(763,-200,o),
(719,-221,o),
(674,-221,cs),
(623,-221,o),
(573,-187,o),
(524,-147,cs),
(471,-104,o),
(416,-69,o),
(331,-69,cs),
(318,-69,o),
(306,-69,o),
(284,-71,c),
(294,-79,l),
(482,8,l),
(423,6,l),
(213,-90,l),
(273,-71,l),
(168,-71,o),
(89,-97,o),
(89,-152,cs),
(89,-174,o),
(101,-185,o),
(118,-185,cs),
(140,-185,o),
(160,-169,o),
(180,-151,cs),
(212,-122,o),
(232,-108,o),
(267,-88,c),
(226,-100,l),
(318,-90,o),
(375,-132,o),
(459,-202,cs),
(505,-240,o),
(558,-294,o),
(653,-294,cs)
);
},
{
ref = O;
}
);
width = 804;
},
{
anchors = (
{
name = top;
pos = (410,710);
}
);
layerId = m002;
shapes = (
{
closed = 1;
nodes = (
(743,-294,o),
(796,-237,o),
(804,-104,c),
(764,-104,l),
(755,-149,o),
(720,-161,o),
(684,-161,cs),
(622,-161,o),
(576,-137,o),
(524,-112,cs),
(473,-89,o),
(415,-65,o),
(331,-65,cs),
(318,-65,o),
(306,-65,o),
(284,-74,c),
(314,-79,l),
(502,8,l),
(413,6,l),
(203,-90,l),
(283,-68,l),
(168,-68,o),
(79,-91,o),
(79,-156,cs),
(79,-181,o),
(93,-199,o),
(125,-199,cs),
(155,-199,o),
(180,-178,o),
(211,-152,cs),
(237,-131,o),
(267,-106,o),
(306,-88,c),
(227,-101,l),
(305,-92,o),
(367,-138,o),
(431,-187,cs),
(499,-238,o),
(568,-294,o),
(662,-294,cs)
);
},
{
ref = O;
}
);
width = 804;
}
);
metricLeft = O;
unicode = 81;
},
{
color = 4;
glyphname = R;
kernLeft = H;
kernRight = R;
layers = (
{
anchors = (
{
name = bottom;
pos = (401,0);
},
{
name = top;
pos = (313,710);
}
);
layerId = "9372F035-DA38-4B54-966C-CEBA9B53DD02";
shapes = (
{
closed = 1;
nodes = (
(644,-11,o),
(684,1,o),
(705,12,c),
(698,37,l),
(687,31,o),
(673,25,o),
(658,25,cs),
(624,25,o),
(589,56,o),
(572,169,cs),
(553,293,o),
(482,354,o),
(374,354,c),
(373,351,l),
(482,362,o),
(583,408,o),
(583,535,cs),
(583,670,o),
(463,710,o),
(328,710,cs),
(188,710,l),
(40,713,l),
(40,688,l),
(60,686,ls),
(129,678,o),
(146,676,o),
(146,577,cs),
(146,133,ls),
(146,34,o),
(129,32,o),
(60,24,cs),
(40,22,l),
(40,-3,l),
(188,0,l),
(337,-3,l),
(337,22,l),
(317,24,ls),
(248,32,o),
(231,34,o),
(231,133,cs),
(231,684,l),
(330,684,ls),
(447,684,o),
(488,627,o),
(488,529,cs),
(488,425,o),
(443,373,o),
(315,373,cs),
(225,373,l),
(225,346,l),
(274,346,ls),
(448,346,o),
(477,226,o),
(491,119,cs),
(501,45,o),
(533,-11,o),
(607,-11,cs)
);
}
);
width = 695;
},
{
anchors = (
{
name = bottom;
pos = (411,0);
},
{
name = top;
pos = (323,710);
}
);
background = {
shapes = (
{
closed = 0;
nodes = (
(235,336,l),
(284,336,ls),
(436,336,o),
(460,221,o),
(473,119,cs),
(483,45,o),
(532,-11,o),
(637,-11,cs),
(674,-11,o),
(714,1,o),
(735,12,c),
(728,37,l),
(717,31,o),
(703,25,o),
(688,25,cs),
(662,25,o),
(640,59,o),
(622,179,cs),
(603,303,o),
(514,364,o),
(384,364,c)
);
}
);
};
layerId = m002;
shapes = (
{
closed = 1;
nodes = (
(675,-11,o),
(711,-2,o),
(736,7,c),
(724,46,l),
(716,43,o),
(707,41,o),
(698,41,cs),
(672,41,o),
(648,71,o),
(632,179,cs),
(613,303,o),
(514,364,o),
(372,364,c),
(372,345,l),
(541,345,o),
(650,412,o),
(650,524,cs),
(650,655,o),
(556,710,o),
(334,710,cs),
(188,710,l),
(30,713,l),
(30,673,l),
(50,671,ls),
(103,666,o),
(116,651,o),
(116,577,cs),
(116,133,ls),
(116,59,o),
(103,45,o),
(50,40,cs),
(30,38,l),
(30,-3,l),
(194,0,l),
(357,-3,l),
(357,38,l),
(337,40,ls),
(284,45,o),
(271,59,o),
(271,133,cs),
(271,660,l),
(353,660,ls),
(435,660,o),
(479,613,o),
(479,524,cs),
(479,422,o),
(441,385,o),
(338,385,cs),
(235,385,l),
(235,336,l),
(284,336,ls),
(409,336,o),
(459,281,o),
(479,127,cs),
(492,31,o),
(538,-11,o),
(627,-11,cs)
);
}
);
width = 721;
}
);
metricLeft = I;
unicode = 82;
},
{
color = 4;
glyphname = S;
kernLeft = S;
kernRight = S;
layers = (
{
anchors = (
{
name = bottom;
pos = (313,0);
},
{
name = top;
pos = (285,710);
}
);
guides = (
{
angle = 90;
pos = (287,121);
}
);
layerId = "9372F035-DA38-4B54-966C-CEBA9B53DD02";
shapes = (
{
closed = 1;
nodes = (
(419,-11,o),
(506,68,o),
(506,187,cs),
(506,300,o),
(439,350,o),
(329,404,cs),
(288,424,ls),
(209,462,o),
(155,499,o),
(155,575,cs),
(155,646,o),
(208,696,o),
(287,696,cs),
(366,696,o),
(441,630,o),
(454,519,c),
(479,519,l),
(477,616,l),
(480,712,l),
(455,712,l),
(453,690,o),
(448,681,o),
(436,681,cs),
(425,681,o),
(413,685,o),
(395,694,cs),
(374,705,o),
(336,724,o),
(282,724,cs),
(164,724,o),
(80,649,o),
(80,543,cs),
(80,452,o),
(128,400,o),
(228,352,cs),
(270,332,ls),
(373,283,o),
(434,235,o),
(434,146,cs),
(434,56,o),
(370,18,o),
(309,18,cs),
(197,18,o),
(119,111,o),
(98,200,cs),
(87,247,l),
(62,247,l),
(65,118,l),
(60,0,l),
(85,0,l),
(88,15,ls),
(92,33,o),
(97,52,o),
(116,52,cs),
(130,52,o),
(148,44,o),
(178,28,cs),
(212,10,o),
(256,-11,o),
(309,-11,cs)
);
}
);
width = 561;
},
{
anchors = (
{
name = bottom;
pos = (343,0);
},
{
name = top;
pos = (315,710);
}
);
guides = (
{
angle = 90;
pos = (317,121);
}
);
layerId = m002;
shapes = (
{
closed = 1;
nodes = (
(473,-11,o),
(576,68,o),
(576,197,cs),
(576,326,o),
(486,389,o),
(408,424,cs),
(328,460,ls),
(252,494,o),
(208,528,o),
(208,581,cs),
(208,637,o),
(252,674,o),
(328,674,cs),
(406,674,o),
(481,612,o),
(505,509,c),
(545,509,l),
(543,616,l),
(547,710,l),
(507,710,l),
(504,688,o),
(496,681,o),
(477,681,cs),
(464,681,o),
(451,685,o),
(430,694,cs),
(408,704,o),
(368,724,o),
(305,724,cs),
(169,724,o),
(73,646,o),
(73,524,cs),
(73,439,o),
(122,373,o),
(210,333,cs),
(300,292,ls),
(409,242,o),
(444,212,o),
(444,145,cs),
(444,71,o),
(387,39,o),
(322,39,cs),
(217,39,o),
(143,124,o),
(114,200,cs),
(92,257,l),
(52,257,l),
(56,118,l),
(50,0,l),
(90,0,l),
(94,15,ls),
(99,33,o),
(103,52,o),
(124,52,cs),
(139,52,o),
(160,44,o),
(194,28,cs),
(232,10,o),
(282,-11,o),
(342,-11,cs)
);
}
);
width = 621;
}
);
unicode = 83;
},
{
color = 4;
glyphname = Germandbls;
kernLeft = Germandbls;
kernRight = Germandbls;
layers = (
{
layerId = "9372F035-DA38-4B54-966C-CEBA9B53DD02";
shapes = (
{
closed = 1;
nodes = (
(618,677,l),
(564,701,o),
(486,721,o),
(409,721,cs),
(220,721,o),
(126,642,o),
(126,487,cs),
(126,133,ls),
(126,44,o),
(117,32,o),
(40,24,cs),
(20,22,l),
(20,-3,l),
(168,0,l),
(169,0,l),
(221,-1,l),
(211,133,l),
(211,487,ls),
(211,616,o),
(284,692,o),
(404,692,cs),
(465,692,o),
(516,672,o),
(545,634,c),
(570,661,l),
(470,624,o),
(398,560,o),
(398,477,cs),
(398,414,o),
(439,368,o),
(513,322,cs),
(558,294,ls),
(611,261,o),
(640,217,o),
(640,154,cs),
(640,75,o),
(596,18,o),
(516,18,cs),
(429,18,o),
(378,72,o),
(355,150,cs),
(341,197,l),
(320,197,l),
(321,26,l),
(383,3,o),
(447,-11,o),
(500,-11,cs),
(628,-11,o),
(711,70,o),
(711,185,cs),
(711,271,o),
(669,331,o),
(598,375,cs),
(540,411,ls),
(493,441,o),
(470,468,o),
(470,511,cs),
(470,572,o),
(520,618,o),
(618,653,c)
);
}
);
width = 766;
},
{
layerId = m002;
shapes = (
{
closed = 1;
nodes = (
(633,681,l),
(578,705,o),
(490,721,o),
(409,721,cs),
(200,721,o),
(101,640,o),
(101,467,cs),
(101,133,ls),
(101,61,o),
(89,44,o),
(35,39,cs),
(15,37,l),
(15,-3,l),
(178,0,l),
(179,0,l),
(266,-3,l),
(256,128,l),
(256,477,ls),
(256,601,o),
(311,671,o),
(408,671,cs),
(464,671,o),
(507,657,o),
(537,629,c),
(539,648,l),
(438,618,o),
(384,551,o),
(388,461,cs),
(391,398,o),
(423,347,o),
(485,308,cs),
(527,282,ls),
(587,245,o),
(647,212,o),
(647,145,cs),
(647,80,o),
(608,39,o),
(545,39,cs),
(483,39,o),
(427,96,o),
(387,200,cs),
(365,257,l),
(325,257,l),
(325,54,l),
(394,9,o),
(465,-11,o),
(555,-11,cs),
(689,-11,o),
(779,72,o),
(779,197,cs),
(779,282,o),
(739,340,o),
(636,406,cs),
(589,436,ls),
(542,466,o),
(521,496,o),
(521,531,cs),
(521,585,o),
(558,624,o),
(632,647,c)
);
}
);
width = 824;
}
);
metricRight = S;
unicode = 7838;
},
{
color = 4;
glyphname = T;
kernLeft = T;
kernRight = T;
layers = (
{
anchors = (
{
name = bottom;
pos = (374,0);
},
{
name = center;
pos = (371,355);
},
{
name = top;
pos = (377,710);
}
);
layerId = "9372F035-DA38-4B54-966C-CEBA9B53DD02";
shapes = (
{
closed = 1;
nodes = (
(374,0,l),
(537,-3,l),
(537,22,l),
(515,24,ls),
(434,32,o),
(414,34,o),
(414,133,cs),
(414,701,l),
(329,701,l),
(329,133,ls),
(329,34,o),
(309,32,o),
(228,24,cs),
(206,22,l),
(206,-3,l)
);
},
{
closed = 1;
nodes = (
(741,510,l),
(716,633,l),
(705,713,l),
(419,710,l),
(324,710,l),
(39,713,l),
(28,633,l),
(3,510,l),
(24,505,l),
(76,635,o),
(96,683,o),
(188,683,cs),
(562,683,ls),
(648,683,o),
(673,620,o),
(719,504,c)
);
}
);
width = 744;
},
{
anchors = (
{
name = bottom;
pos = (380,0);
},
{
name = center;
pos = (377,355);
},
{
name = top;
pos = (383,710);
}
);
layerId = m002;
shapes = (
{
closed = 1;
nodes = (
(379,0,l),
(562,-3,l),
(562,38,l),
(522,40,ls),
(469,43,o),
(456,59,o),
(456,133,cs),
(456,701,l),
(301,701,l),
(301,133,ls),
(301,59,o),
(288,43,o),
(235,40,cs),
(195,38,l),
(195,-3,l)
);
},
{
closed = 1;
nodes = (
(753,480,l),
(728,633,l),
(717,713,l),
(425,710,l),
(330,710,l),
(39,713,l),
(28,633,l),
(3,480,l),
(40,475,l),
(105,591,o),
(130,661,o),
(244,661,cs),
(518,661,ls),
(626,661,o),
(657,578,o),
(715,474,c)
);
}
);
width = 756;
}
);
unicode = 84;
},
{
color = 4;
glyphname = U;
kernLeft = U;
kernRight = U;
layers = (
{
anchors = (
{
name = bottom;
pos = (403,0);
},
{
name = ogonek;
pos = (519,0);
},
{
name = top;
pos = (409,710);
},
{
name = topright;
pos = (746,710);
}
);
layerId = "9372F035-DA38-4B54-966C-CEBA9B53DD02";
shapes = (
{
closed = 1;
nodes = (
(558,-11,o),
(639,74,o),
(639,229,cs),
(639,577,ls),
(639,676,o),
(656,678,o),
(725,686,cs),
(745,688,l),
(745,713,l),
(646,711,l),
(498,713,l),
(498,688,l),
(518,686,ls),
(587,678,o),
(604,676,o),
(604,577,cs),
(604,229,ls),
(604,101,o),
(547,22,o),
(413,22,cs),
(297,22,o),
(216,88,o),
(216,223,cs),
(216,577,ls),
(216,676,o),
(233,678,o),
(302,686,cs),
(322,688,l),
(322,713,l),
(174,710,l),
(173,710,l),
(25,713,l),
(25,688,l),
(45,686,ls),
(114,678,o),
(131,676,o),
(131,577,cs),
(131,223,ls),
(131,57,o),
(227,-11,o),
(394,-11,cs)
);
}
);
width = 750;
},
{
anchors = (
{
name = bottom;
pos = (403,0);
},
{
name = ogonek;
pos = (519,0);
},
{
name = top;
pos = (419,710);
},
{
name = topright;
pos = (746,710);
}
);
layerId = m002;
shapes = (
{
closed = 1;
nodes = (
(565,-11,o),
(649,74,o),
(649,229,cs),
(649,577,ls),
(649,651,o),
(664,667,o),
(725,671,cs),
(755,673,l),
(755,713,l),
(623,711,l),
(488,713,l),
(488,673,l),
(518,671,ls),
(579,667,o),
(594,651,o),
(594,577,cs),
(594,229,ls),
(594,120,o),
(540,52,o),
(413,52,cs),
(323,52,o),
(261,108,o),
(261,223,cs),
(261,577,ls),
(261,651,o),
(274,666,o),
(327,671,cs),
(347,673,l),
(347,713,l),
(184,710,l),
(183,710,l),
(20,713,l),
(20,673,l),
(40,671,ls),
(93,666,o),
(106,651,o),
(106,577,cs),
(106,223,ls),
(106,57,o),
(211,-11,o),
(394,-11,cs)
);
}
);
width = 755;
}
);
unicode = 85;
},
{
color = 4;
glyphname = V;
kernLeft = V;
kernRight = V;
layers = (
{
anchors = (
{
name = bottom;
pos = (373,0);
},
{
name = top;
pos = (409,710);
}
);
layerId = "9372F035-DA38-4B54-966C-CEBA9B53DD02";
shapes = (
{
closed = 1;
nodes = (
(388,-10,l),
(628,587,ls),
(651,644,o),
(674,673,o),
(725,684,cs),
(748,689,l),
(748,713,l),
(648,710,l),
(508,713,l),
(508,688,l),
(543,684,ls),
(587,679,o),
(603,660,o),
(603,634,cs),
(603,620,o),
(599,604,o),
(592,588,cs),
(385,75,l),
(412,75,l),
(196,587,ls),
(189,604,o),
(185,619,o),
(185,632,cs),
(185,662,o),
(205,680,o),
(253,685,cs),
(283,688,l),
(283,713,l),
(134,710,l),
(-15,713,l),
(-15,688,l),
(5,684,ls),
(54,674,o),
(77,648,o),
(94,607,cs),
(356,-10,l)
);
}
);
width = 733;
},
{
anchors = (
{
name = bottom;
pos = (379,0);
},
{
name = top;
pos = (415,710);
}
);
layerId = m002;
shapes = (
{
closed = 1;
nodes = (
(413,0,l),
(642,557,ls),
(677,643,o),
(686,667,o),
(741,672,cs),
(751,673,l),
(751,713,l),
(639,711,l),
(504,713,l),
(504,673,l),
(534,671,ls),
(570,669,o),
(594,650,o),
(594,610,cs),
(594,594,o),
(590,574,o),
(580,550,cs),
(385,75,l),
(433,75,l),
(240,587,ls),
(235,600,o),
(233,613,o),
(233,625,cs),
(233,649,o),
(245,668,o),
(281,671,cs),
(303,673,l),
(303,713,l),
(143,710,l),
(-20,713,l),
(-20,673,l),
(0,671,ls),
(43,667,o),
(56,650,o),
(72,607,cs),
(301,0,l)
);
}
);
width = 731;
}
);
unicode = 86;
},
{
color = 4;
glyphname = W;
kernLeft = V;
kernRight = V;
layers = (
{
anchors = (
{
name = bottom;
pos = (522,0);
},
{
name = top;
pos = (544,710);
}
);
guides = (
{
pos = (259,687);
}
);
layerId = "9372F035-DA38-4B54-966C-CEBA9B53DD02";
shapes = (
{
closed = 1;
nodes = (
(327,-9,l),
(532,547,l),
(520,546,l),
(728,-9,l),
(760,-9,l),
(952,621,ls),
(963,658,o),
(996,676,o),
(1040,683,cs),
(1064,687,l),
(1064,713,l),
(958,710,l),
(826,713,l),
(826,687,l),
(859,683,ls),
(897,678,o),
(918,668,o),
(918,639,cs),
(918,631,o),
(916,621,o),
(913,610,cs),
(756,95,l),
(779,95,l),
(599,582,ls),
(592,600,o),
(589,616,o),
(589,629,cs),
(589,662,o),
(611,681,o),
(654,684,cs),
(692,687,l),
(690,713,l),
(653,711,ls),
(612,709,o),
(560,702,o),
(545,646,c),
(555,656,l),
(548,684,o),
(520,702,o),
(464,708,cs),
(422,713,l),
(418,687,l),
(458,681,ls),
(497,675,o),
(521,660,o),
(521,629,cs),
(521,621,o),
(519,611,o),
(515,599,cs),
(328,91,l),
(352,91,l),
(188,598,ls),
(183,612,o),
(181,623,o),
(181,633,cs),
(181,674,o),
(219,681,o),
(255,685,cs),
(283,688,l),
(283,713,l),
(135,710,l),
(-15,713,l),
(-15,688,l),
(8,683,ls),
(51,674,o),
(81,651,o),
(99,594,cs),
(295,-9,l)
);
}
);
width = 1049;
},
{
anchors = (
{
name = bottom;
pos = (549,0);
},
{
name = top;
pos = (598,710);
}
);
background = {
shapes = (
{
closed = 1;
nodes = (
(834,0,l),
(1033,557,ls),
(1065,646,o),
(1077,667,o),
(1132,672,cs),
(1142,673,l),
(1142,713,l),
(1030,711,l),
(895,713,l),
(895,673,l),
(925,671,ls),
(961,669,o),
(985,650,o),
(985,610,cs),
(985,594,o),
(979,574,o),
(971,550,cs),
(806,75,l),
(854,75,l),
(691,587,ls),
(687,600,o),
(684,613,o),
(684,625,cs),
(684,649,o),
(696,668,o),
(732,671,cs),
(754,673,l),
(754,713,l),
(689,711,ls),
(569,706,o),
(509,650,o),
(557,502,cs),
(722,0,l)
);
},
{
closed = 1;
nodes = (
(380,0,l),
(579,557,ls),
(605,629,o),
(593,700,o),
(499,708,cs),
(441,713,l),
(436,673,l),
(471,670,ls),
(507,667,o),
(531,650,o),
(531,619,cs),
(531,594,o),
(525,574,o),
(517,550,cs),
(352,75,l),
(400,75,l),
(237,587,ls),
(233,600,o),
(230,613,o),
(230,625,cs),
(230,649,o),
(242,668,o),
(278,671,cs),
(300,673,l),
(300,713,l),
(140,710,l),
(-23,713,l),
(-23,673,l),
(-3,671,ls),
(40,667,o),
(55,650,o),
(69,607,cs),
(268,0,l)
);
}
);
};
guides = (
{
pos = (286,687);
}
);
layerId = m002;
shapes = (
{
closed = 1;
nodes = (
(381,0,l),
(566,529,l),
(551,529,l),
(722,0,l),
(834,0,l),
(1033,557,ls),
(1065,646,o),
(1077,667,o),
(1132,672,cs),
(1142,673,l),
(1142,713,l),
(1030,711,l),
(895,713,l),
(895,673,l),
(925,671,ls),
(961,669,o),
(985,650,o),
(985,610,cs),
(985,594,o),
(979,574,o),
(971,550,cs),
(821,117,l),
(841,117,l),
(691,587,ls),
(687,600,o),
(684,613,o),
(684,625,cs),
(684,649,o),
(696,668,o),
(732,671,cs),
(754,673,l),
(754,713,l),
(689,711,ls),
(630,709,o),
(586,687,o),
(561,642,c),
(582,640,l),
(574,677,o),
(543,707,o),
(489,710,cs),
(441,713,l),
(439,673,l),
(471,670,ls),
(511,666,o),
(531,646,o),
(531,619,cs),
(531,594,o),
(525,574,o),
(517,550,cs),
(366,117,l),
(387,117,l),
(237,587,ls),
(233,600,o),
(230,613,o),
(230,625,cs),
(230,649,o),
(242,668,o),
(278,671,cs),
(300,673,l),
(300,713,l),
(140,710,l),
(-20,713,l),
(-20,673,l),
(0,671,ls),
(43,667,o),
(58,650,o),
(72,607,cs),
(268,0,l)
);
}
);
width = 1122;
}
);
metricLeft = V;
metricRight = V;
unicode = 87;
},
{
color = 4;
glyphname = X;
kernLeft = X;
kernRight = X;
layers = (
{
anchors = (
{
name = bottom;
pos = (327,0);
},
{
name = top;
pos = (390,710);
}
);
guides = (
{
angle = 90;
pos = (-13,553);
},
{
angle = 90;
pos = (702,554);
}
);
layerId = "9372F035-DA38-4B54-966C-CEBA9B53DD02";
shapes = (
{
closed = 1;
nodes = (
(568,0,l),
(717,-3,l),
(717,22,l),
(687,27,ls),
(645,34,o),
(608,56,o),
(566,119,cs),
(260,577,ls),
(240,607,o),
(230,630,o),
(230,647,cs),
(230,668,o),
(247,679,o),
(282,683,cs),
(324,688,l),
(324,713,l),
(169,710,l),
(4,713,l),
(4,688,l),
(24,684,ls),
(75,674,o),
(104,664,o),
(150,594,cs),
(459,129,ls),
(476,103,o),
(485,81,o),
(485,64,cs),
(485,43,o),
(470,29,o),
(438,26,cs),
(397,22,l),
(397,-3,l)
);
},
{
closed = 1;
nodes = (
(114,0,l),
(238,-3,l),
(238,22,l),
(200,26,ls),
(178,28,o),
(166,42,o),
(166,62,cs),
(166,75,o),
(170,92,o),
(182,109,cs),
(339,328,l),
(318,354,l),
(152,126,ls),
(90,40,o),
(50,31,o),
(11,25,cs),
(-10,22,l),
(-10,-3,l)
);
},
{
closed = 1;
nodes = (
(539,583,ls),
(592,657,o),
(639,682,o),
(677,686,cs),
(698,688,l),
(698,713,l),
(582,710,l),
(450,713,l),
(450,688,l),
(483,684,ls),
(514,680,o),
(527,666,o),
(527,646,cs),
(527,633,o),
(521,617,o),
(509,600,cs),
(367,402,l),
(388,375,l)
);
}
);
width = 707;
},
{
anchors = (
{
name = bottom;
pos = (346,0);
},
{
name = top;
pos = (409,710);
}
);
guides = (
{
angle = 90;
pos = (6,553);
},
{
angle = 90;
pos = (721,554);
}
);
layerId = m002;
shapes = (
{
closed = 1;
nodes = (
(603,0,l),
(756,-3,l),
(756,37,l),
(736,39,ls),
(699,43,o),
(685,60,o),
(652,103,c),
(317,558,ls),
(297,585,o),
(286,610,o),
(286,629,cs),
(286,654,o),
(305,670,o),
(346,672,cs),
(368,673,l),
(368,713,l),
(172,710,l),
(-1,713,l),
(-1,673,l),
(22,671,ls),
(55,668,o),
(71,639,o),
(98,603,cs),
(430,152,ls),
(450,125,o),
(461,101,o),
(461,82,cs),
(461,59,o),
(445,43,o),
(408,39,cs),
(386,37,l),
(386,-3,l)
);
},
{
closed = 1;
nodes = (
(122,-1,l),
(240,-3,l),
(240,37,l),
(210,39,ls),
(173,42,o),
(155,59,o),
(155,85,cs),
(155,106,o),
(167,133,o),
(192,160,cs),
(339,324,l),
(305,361,l),
(109,137,ls),
(44,63,o),
(25,42,o),
(-1,39,cs),
(-20,37,l),
(-20,-3,l)
);
},
{
closed = 1;
nodes = (
(586,573,ls),
(654,651,o),
(679,669,o),
(705,671,cs),
(727,673,l),
(727,713,l),
(583,711,l),
(472,713,l),
(472,673,l),
(502,670,ls),
(532,667,o),
(546,653,o),
(546,632,cs),
(546,610,o),
(530,580,o),
(503,550,cs),
(371,402,l),
(405,365,l)
);
}
);
width = 736;
}
);
unicode = 88;
},
{
color = 4;
glyphname = Y;
kernLeft = Y;
kernRight = Y;
layers = (
{
anchors = (
{
name = bottom;
pos = (325,0);
},
{
name = top;
pos = (375,710);
},
{
name = topleft;
pos = (-55,710);
}
);
layerId = "9372F035-DA38-4B54-966C-CEBA9B53DD02";
shapes = (
{
closed = 1;
nodes = (
(336,0,l),
(337,0,l),
(485,-3,l),
(485,22,l),
(465,24,ls),
(396,32,o),
(379,34,o),
(379,133,cs),
(379,288,l),
(561,606,ls),
(589,655,o),
(612,675,o),
(655,683,cs),
(682,688,l),
(682,713,l),
(576,708,l),
(444,713,l),
(444,688,l),
(473,685,ls),
(506,682,o),
(530,672,o),
(530,644,cs),
(530,629,o),
(523,609,o),
(508,582,cs),
(345,297,l),
(381,297,l),
(217,582,ls),
(202,608,o),
(195,628,o),
(195,643,cs),
(195,670,o),
(217,682,o),
(250,685,cs),
(282,688,l),
(282,713,l),
(132,710,l),
(-20,713,l),
(-20,688,l),
(9,682,ls),
(63,671,o),
(88,647,o),
(119,593,cs),
(294,287,l),
(294,133,ls),
(294,34,o),
(277,32,o),
(208,24,cs),
(188,22,l),
(188,-3,l)
);
}
);
width = 662;
},
{
anchors = (
{
name = bottom;
pos = (330,0);
},
{
name = top;
pos = (380,710);
},
{
name = topleft;
pos = (-50,710);
}
);
layerId = m002;
shapes = (
{
closed = 1;
nodes = (
(340,0,l),
(341,0,l),
(504,-3,l),
(504,38,l),
(484,40,ls),
(431,45,o),
(418,59,o),
(418,133,cs),
(418,311,l),
(567,557,ls),
(617,640,o),
(631,667,o),
(686,672,cs),
(696,673,l),
(696,713,l),
(584,711,l),
(449,713,l),
(449,673,l),
(483,671,ls),
(517,669,o),
(530,653,o),
(530,629,cs),
(530,601,o),
(512,563,o),
(491,528,cs),
(345,285,l),
(404,323,l),
(273,550,ls),
(256,580,o),
(244,608,o),
(244,630,cs),
(244,653,o),
(256,668,o),
(290,671,cs),
(312,673,l),
(312,713,l),
(138,710,l),
(-25,713,l),
(-25,673,l),
(-5,671,ls),
(27,668,o),
(37,659,o),
(67,607,cs),
(263,267,l),
(263,133,ls),
(263,59,o),
(250,45,o),
(197,40,cs),
(177,38,l),
(177,-3,l)
);
}
);
width = 671;
}
);
unicode = 89;
},
{
color = 4;
glyphname = Z;
kernLeft = H;
kernRight = H;
layers = (
{
anchors = (
{
name = bottom;
pos = (309,0);
},
{
name = top;
pos = (309,710);
}
);
layerId = "9372F035-DA38-4B54-966C-CEBA9B53DD02";
shapes = (
{
closed = 1;
nodes = (
(589,100,l),
(599,267,l),
(575,267,l),
(554,115,o),
(529,33,o),
(378,32,cs),
(103,30,l),
(116,4,l),
(585,679,l),
(585,713,l),
(361,710,l),
(66,712,l),
(64,659,l),
(53,526,l),
(77,526,l),
(93,640,o),
(107,676,o),
(289,678,cs),
(516,680,l),
(503,706,l),
(30,26,l),
(30,0,l),
(383,0,l),
(589,-3,l)
);
}
);
width = 639;
},
{
anchors = (
{
name = bottom;
pos = (319,0);
},
{
name = top;
pos = (319,710);
}
);
layerId = m002;
shapes = (
{
closed = 1;
nodes = (
(604,72,l),
(612,264,l),
(572,264,l),
(551,95,o),
(472,44,o),
(309,44,cs),
(117,44,l),
(197,33,l),
(615,673,l),
(615,713,l),
(371,710,l),
(57,713,l),
(55,638,l),
(47,506,l),
(87,506,l),
(106,629,o),
(176,666,o),
(320,666,cs),
(522,666,l),
(453,700,l),
(20,37,l),
(20,-3,l),
(393,0,l),
(602,-3,l)
);
}
);
width = 645;
}
);
unicode = 90;
},
{
color = 4;
glyphname = a;
kernLeft = a;
kernRight = a;
layers = (
{
anchors = (
{
name = bottom;
pos = (169,0);
},
{
name = ogonek;
pos = (459,0);
},
{
name = top;
pos = (241,433);
}
);
layerId = "9372F035-DA38-4B54-966C-CEBA9B53DD02";
shapes = (
{
closed = 1;
nodes = (
(453,-11,o),
(479,13,o),
(490,52,c),
(472,59,l),
(466,41,o),
(451,24,o),
(431,24,cs),
(400,24,o),
(395,57,o),
(395,116,cs),
(395,296,ls),
(395,408,o),
(348,454,o),
(241,454,cs),
(166,454,o),
(69,427,o),
(69,356,cs),
(69,331,o),
(87,310,o),
(111,310,cs),
(136,310,o),
(157,325,o),
(157,350,cs),
(157,360,o),
(155,369,o),
(152,377,cs),
(150,383,o),
(148,390,o),
(148,396,cs),
(148,421,o),
(191,429,o),
(227,429,cs),
(303,429,o),
(325,393,o),
(325,320,cs),
(325,104,ls),
(325,36,o),
(339,-11,o),
(405,-11,cs)
);
},
{
closed = 1;
nodes = (
(234,-11,o),
(299,27,o),
(334,97,c),
(328,130,l),
(312,79,o),
(254,26,o),
(193,26,cs),
(150,26,o),
(128,50,o),
(128,87,cs),
(128,170,o),
(241,233,o),
(330,270,c),
(329,289,l),
(291,275,o),
(234,253,o),
(180,223,cs),
(111,185,o),
(50,141,o),
(50,82,cs),
(50,23,o),
(97,-11,o),
(161,-11,cs)
);
}
);
width = 490;
},
{
anchors = (
{
name = bottom;
pos = (184,0);
},
{
name = ogonek;
pos = (483,0);
},
{
name = top;
pos = (256,433);
}
);
layerId = m002;
shapes = (
{
closed = 1;
nodes = (
(462,-14,o),
(499,12,o),
(516,52,c),
(489,65,l),
(484,52,o),
(473,42,o),
(459,42,cs),
(435,42,o),
(432,61,o),
(432,96,cs),
(432,299,ls),
(432,413,o),
(375,460,o),
(246,460,cs),
(173,460,o),
(44,421,o),
(44,332,cs),
(44,301,o),
(69,275,o),
(107,275,cs),
(150,275,o),
(182,294,o),
(182,326,cs),
(182,338,o),
(180,348,o),
(175,359,cs),
(172,366,o),
(169,376,o),
(169,383,cs),
(169,414,o),
(195,424,o),
(226,424,cs),
(274,424,o),
(292,404,o),
(292,343,cs),
(292,83,ls),
(292,36,o),
(314,-14,o),
(403,-14,cs)
);
},
{
closed = 1;
nodes = (
(259,-14,o),
(310,47,o),
(340,113,c),
(334,170,l),
(320,120,o),
(281,47,o),
(219,47,cs),
(190,47,o),
(176,68,o),
(176,99,cs),
(176,185,o),
(266,238,o),
(336,262,c),
(335,291,l),
(297,279,o),
(239,260,o),
(183,234,cs),
(82,189,o),
(30,135,o),
(30,81,cs),
(30,21,o),
(80,-14,o),
(154,-14,cs)
);
}
);
width = 516;
}
);
unicode = 97;
},
{
color = 4;
glyphname = ae;
kernLeft = a;
kernRight = o;
layers = (
{
layerId = "9372F035-DA38-4B54-966C-CEBA9B53DD02";
shapes = (
{
closed = 1;
nodes = (
(624,-11,o),
(683,31,o),
(711,117,c),
(687,124,l),
(661,55,o),
(609,21,o),
(550,21,cs),
(454,21,o),
(395,105,o),
(395,222,cs),
(395,245,ls),
(395,345,o),
(452,429,o),
(538,429,cs),
(585,429,o),
(636,393,o),
(636,335,cs),
(636,305,o),
(617,268,o),
(524,268,cs),
(392,268,l),
(390,245,l),
(697,245,l),
(699,251,o),
(702,262,o),
(702,275,cs),
(702,383,o),
(638,454,o),
(538,454,cs),
(457,454,o),
(402,413,o),
(370,364,c),
(387,363,l),
(372,412,o),
(335,454,o),
(243,454,cs),
(166,454,o),
(69,424,o),
(69,353,cs),
(69,328,o),
(87,310,o),
(110,310,cs),
(136,310,o),
(157,325,o),
(157,350,cs),
(157,360,o),
(155,369,o),
(152,377,cs),
(150,383,o),
(148,390,o),
(148,396,cs),
(148,421,o),
(202,429,o),
(238,429,cs),
(317,429,o),
(325,373,o),
(325,306,cs),
(325,114,l),
(363,42,o),
(435,-11,o),
(536,-11,cs)
);
},
{
closed = 1;
nodes = (
(233,-11,o),
(303,31,o),
(343,103,c),
(328,130,l),
(313,78,o),
(249,24,o),
(199,24,cs),
(159,24,o),
(128,49,o),
(128,87,cs),
(128,170,o),
(241,233,o),
(330,270,c),
(329,289,l),
(243,257,o),
(50,180,o),
(50,83,cs),
(50,18,o),
(100,-11,o),
(169,-11,cs)
);
}
);
width = 746;
},
{
background = {
shapes = (
{
closed = 1;
nodes = (
(624,-11,o),
(683,31,o),
(711,117,c),
(687,124,l),
(661,55,o),
(609,21,o),
(550,21,cs),
(454,21,o),
(395,105,o),
(395,222,cs),
(395,245,ls),
(395,345,o),
(452,429,o),
(538,429,cs),
(585,429,o),
(636,393,o),
(636,335,cs),
(636,305,o),
(617,268,o),
(524,268,cs),
(392,268,l),
(390,245,l),
(697,245,l),
(699,251,o),
(702,262,o),
(702,275,cs),
(702,383,o),
(638,454,o),
(538,454,cs),
(457,454,o),
(402,413,o),
(370,364,c),
(387,363,l),
(372,412,o),
(335,454,o),
(243,454,cs),
(166,454,o),
(69,424,o),
(69,353,cs),
(69,328,o),
(87,310,o),
(110,310,cs),
(136,310,o),
(157,325,o),
(157,350,cs),
(157,360,o),
(155,369,o),
(152,377,c),
(150,383,o),
(148,390,o),
(148,396,cs),
(148,421,o),
(202,429,o),
(238,429,cs),
(317,429,o),
(325,373,o),
(325,306,cs),
(325,114,l),
(363,42,o),
(435,-11,o),
(536,-11,cs)
);
},
{
closed = 1;
nodes = (
(233,-11,o),
(303,31,o),
(343,103,c),
(328,130,l),
(313,78,o),
(249,24,o),
(199,24,cs),
(159,24,o),
(128,49,o),
(128,87,cs),
(128,170,o),
(241,233,o),
(330,270,c),
(329,289,l),
(243,257,o),
(50,180,o),
(50,83,cs),
(50,18,o),
(100,-11,o),
(169,-11,cs)
);
}
);
};
layerId = m002;
shapes = (
{
closed = 1;
nodes = (
(630,-14,o),
(694,31,o),
(731,115,c),
(697,128,l),
(669,70,o),
(625,41,o),
(566,41,cs),
(480,41,o),
(437,123,o),
(437,219,cs),
(437,249,ls),
(437,364,o),
(472,424,o),
(523,424,cs),
(557,424,o),
(586,392,o),
(586,338,cs),
(586,301,o),
(565,273,o),
(510,273,cs),
(409,273,l),
(407,237,l),
(727,237,l),
(728,242,o),
(730,257,o),
(730,278,cs),
(730,386,o),
(652,460,o),
(523,460,cs),
(464,460,o),
(412,440,o),
(368,406,c),
(396,405,l),
(368,443,o),
(320,460,o),
(246,460,cs),
(173,460,o),
(44,421,o),
(44,332,cs),
(44,301,o),
(69,275,o),
(107,275,cs),
(150,275,o),
(182,294,o),
(182,326,cs),
(182,338,o),
(180,348,o),
(175,359,cs),
(172,366,o),
(169,376,o),
(169,383,cs),
(169,414,o),
(195,424,o),
(226,424,cs),
(273,424,o),
(291,404,o),
(291,343,cs),
(291,101,l),
(351,33,o),
(400,-14,o),
(523,-14,cs)
);
},
{
closed = 1;
nodes = (
(266,-14,o),
(327,58,o),
(350,122,c),
(320,171,l),
(290,92,o),
(263,47,o),
(217,47,cs),
(190,47,o),
(176,68,o),
(176,99,cs),
(176,185,o),
(266,238,o),
(336,262,c),
(335,291,l),
(261,275,o),
(30,177,o),
(30,81,cs),
(30,21,o),
(80,-14,o),
(154,-14,cs)
);
}
);
width = 751;
}
);
metricLeft = a;
metricRight = e;
unicode = 230;
},
{
color = 4;
glyphname = b;
kernLeft = b;
kernRight = o;
layers = (
{
anchors = (
{
name = bottom;
pos = (274,0);
},
{
name = top;
pos = (299,433);
}
);
layerId = "9372F035-DA38-4B54-966C-CEBA9B53DD02";
shapes = (
{
closed = 1;
nodes = (
(422,-11,o),
(510,91,o),
(510,220,cs),
(510,351,o),
(422,454,o),
(307,454,cs),
(239,454,o),
(185,418,o),
(148,367,c),
(162,350,l),
(193,390,o),
(236,424,o),
(297,424,cs),
(386,424,o),
(430,336,o),
(430,220,cs),
(430,106,o),
(386,19,o),
(294,19,cs),
(232,19,o),
(178,62,o),
(161,99,c),
(152,65,l),
(179,28,o),
(236,-11,o),
(303,-11,cs)
);
},
{
closed = 1;
nodes = (
(114,-11,l),
(175,57,l),
(168,80,l),
(168,644,l),
(98,644,l),
(98,-11,l)
);
},
{
closed = 1;
nodes = (
(168,624,l),
(168,725,l),
(113,715,o),
(65,713,o),
(10,713,c),
(10,690,l),
(17,690,ls),
(67,690,o),
(98,678,o),
(98,609,c)
);
}
);
width = 555;
},
{
anchors = (
{
name = bottom;
pos = (270,0);
},
{
name = top;
pos = (295,433);
}
);
background = {
shapes = (
{
closed = 1;
nodes = (
(489,-14,o),
(564,88,o),
(564,223,cs),
(564,358,o),
(489,460,o),
(360,460,cs),
(279,460,o),
(224,420,o),
(175,360,c),
(187,334,l),
(225,374,o),
(269,405,o),
(310,405,cs),
(384,405,o),
(413,327,o),
(413,223,cs),
(413,120,o),
(384,41,o),
(310,41,cs),
(269,41,o),
(225,72,o),
(187,102,c),
(175,76,l),
(224,26,o),
(279,-14,o),
(360,-14,cs)
);
}
);
};
layerId = m002;
shapes = (
{
closed = 1;
nodes = (
(489,-14,o),
(564,88,o),
(564,223,cs),
(564,358,o),
(489,460,o),
(360,460,cs),
(279,460,o),
(224,420,o),
(175,370,c),
(187,344,l),
(225,374,o),
(269,405,o),
(310,405,cs),
(384,405,o),
(413,326,o),
(413,223,cs),
(413,120,o),
(384,41,o),
(310,41,cs),
(269,41,o),
(225,72,o),
(187,102,c),
(175,76,l),
(224,26,o),
(279,-14,o),
(360,-14,cs)
);
},
{
closed = 1;
nodes = (
(101,-11,l),
(232,54,l),
(216,72,l),
(216,650,l),
(76,640,l),
(76,-11,l)
);
},
{
closed = 1;
nodes = (
(216,622,l),
(216,725,l),
(142,715,o),
(80,713,o),
(6,713,c),
(6,679,l),
(17,678,ls),
(52,675,o),
(76,667,o),
(76,596,c)
);
}
);
width = 589;
}
);
metricRight = o;
unicode = 98;
},
{
color = 4;
glyphname = c;
kernLeft = o;
kernRight = o;
layers = (
{
anchors = (
{
name = bottom;
pos = (260,0);
},
{
name = top;
pos = (262,433);
}
);
layerId = "9372F035-DA38-4B54-966C-CEBA9B53DD02";
shapes = (
{
closed = 1;
nodes = (
(342,-11,o),
(415,23,o),
(440,115,c),
(416,123,l),
(393,47,o),
(337,19,o),
(281,19,cs),
(179,19,o),
(125,110,o),
(125,216,cs),
(125,344,o),
(186,429,o),
(279,429,cs),
(299,429,o),
(335,424,o),
(335,406,cs),
(335,398,o),
(333,391,o),
(331,384,cs),
(329,377,o),
(327,369,o),
(327,359,cs),
(327,339,o),
(344,314,o),
(379,314,cs),
(405,314,o),
(427,335,o),
(427,365,cs),
(427,423,o),
(344,454,o),
(280,454,cs),
(146,454,o),
(45,351,o),
(45,211,cs),
(45,83,o),
(131,-11,o),
(266,-11,cs)
);
}
);
width = 470;
},
{
anchors = (
{
name = bottom;
pos = (264,0);
},
{
name = top;
pos = (266,433);
}
);
background = {
shapes = (
{
closed = 1;
nodes = (
(371,-11,o),
(441,32,o),
(474,118,c),
(440,131,l),
(412,73,o),
(368,44,o),
(309,44,cs),
(216,44,o),
(170,126,o),
(170,222,cs),
(170,344,o),
(198,428,o),
(266,428,cs),
(302,428,o),
(332,396,o),
(332,342,cs),
(332,305,o),
(310,277,o),
(253,277,cs),
(118,277,l),
(116,241,l),
(470,241,l),
(471,246,o),
(473,261,o),
(473,282,cs),
(473,390,o),
(395,464,o),
(266,464,cs),
(125,464,o),
(29,363,o),
(29,217,cs),
(29,82,o),
(124,-11,o),
(262,-11,cs)
);
}
);
};
layerId = m002;
shapes = (
{
closed = 1;
nodes = (
(367,-14,o),
(432,31,o),
(470,115,c),
(436,128,l),
(408,70,o),
(364,41,o),
(305,41,cs),
(218,41,o),
(175,123,o),
(175,219,cs),
(175,345,o),
(213,424,o),
(284,424,cs),
(315,424,o),
(334,409,o),
(334,392,cs),
(334,383,o),
(332,373,o),
(330,364,cs),
(327,352,o),
(323,340,o),
(323,326,cs),
(323,293,o),
(351,270,o),
(395,270,cs),
(436,270,o),
(461,296,o),
(461,334,cs),
(461,409,o),
(386,460,o),
(276,460,cs),
(133,460,o),
(25,356,o),
(25,214,cs),
(25,79,o),
(120,-14,o),
(258,-14,cs)
);
}
);
width = 485;
}
);
metricLeft = o;
unicode = 99;
},
{
color = 4;
glyphname = d;
kernLeft = o;
kernRight = l;
layers = (
{
anchors = (
{
name = bottom;
pos = (283,0);
},
{
name = center;
pos = (385,567);
},
{
name = top;
pos = (283,433);
},
{
name = topright;
pos = (485,710);
}
);
layerId = "9372F035-DA38-4B54-966C-CEBA9B53DD02";
shapes = (
{
closed = 1;
nodes = (
(316,-11,o),
(370,25,o),
(407,76,c),
(393,93,l),
(362,53,o),
(319,19,o),
(258,19,cs),
(169,19,o),
(125,107,o),
(125,223,cs),
(125,337,o),
(169,424,o),
(261,424,cs),
(323,424,o),
(377,381,o),
(394,344,c),
(403,378,l),
(376,415,o),
(319,454,o),
(252,454,cs),
(133,454,o),
(45,352,o),
(45,223,cs),
(45,92,o),
(133,-11,o),
(248,-11,cs)
);
},
{
closed = 1;
nodes = (
(444,-1,o),
(469,0,o),
(499,0,cs),
(540,0,l),
(540,23,l),
(486,23,o),
(457,34,o),
(457,109,cs),
(457,725,l),
(402,715,o),
(354,713,o),
(299,713,c),
(299,690,l),
(306,690,ls),
(356,690,o),
(387,678,o),
(387,609,cs),
(387,83,l),
(395,70,l),
(409,-8,l)
);
}
);
width = 545;
},
{
anchors = (
{
name = bottom;
pos = (288,0);
},
{
name = center;
pos = (410,567);
},
{
name = top;
pos = (308,433);
},
{
name = topright;
pos = (510,710);
}
);
layerId = m002;
shapes = (
{
closed = 1;
nodes = (
(310,-14,o),
(365,26,o),
(414,76,c),
(402,102,l),
(364,72,o),
(320,41,o),
(279,41,cs),
(204,41,o),
(175,120,o),
(175,223,cs),
(175,326,o),
(204,405,o),
(279,405,cs),
(320,405,o),
(364,374,o),
(402,344,c),
(414,370,l),
(365,420,o),
(310,460,o),
(229,460,cs),
(100,460,o),
(25,358,o),
(25,223,cs),
(25,88,o),
(100,-14,o),
(229,-14,cs)
);
},
{
closed = 1;
nodes = (
(444,-6,o),
(498,0,o),
(563,0,cs),
(583,0,l),
(583,34,l),
(537,38,o),
(513,46,o),
(513,117,cs),
(513,725,l),
(439,715,o),
(376,713,o),
(302,713,c),
(302,679,l),
(313,678,ls),
(348,675,o),
(372,667,o),
(372,596,cs),
(372,76,l),
(382,56,l),
(395,-15,l)
);
}
);
width = 589;
}
);
metricLeft = o;
unicode = 100;
},
{
color = 4;
glyphname = eth;
kernLeft = o;
kernRight = O;
layers = (
{
anchors = (
{
name = bottom;
pos = (275,0);
},
{
name = center;
pos = (275,218);
},
{
name = ogonek;
pos = (494,10);
},
{
name = top;
pos = (275,429);
}
);
layerId = "9372F035-DA38-4B54-966C-CEBA9B53DD02";
shapes = (
{
closed = 1;
nodes = (
(404,-11,o),
(505,92,o),
(505,237,cs),
(505,420,o),
(365,641,o),
(131,724,c),
(121,702,l),
(258,640,o),
(354,529,o),
(402,402,c),
(411,410,l),
(372,438,o),
(326,454,o),
(275,454,cs),
(146,454,o),
(45,351,o),
(45,220,cs),
(45,92,o),
(146,-11,o),
(275,-11,cs)
);
},
{
closed = 1;
nodes = (
(167,14,o),
(125,104,o),
(125,220,cs),
(125,339,o),
(167,429,o),
(275,429,cs),
(383,429,o),
(425,339,o),
(425,220,cs),
(425,104,o),
(383,14,o),
(275,14,cs)
);
},
{
closed = 1;
nodes = (
(419,661,l),
(410,684,l),
(130,578,l),
(138,555,l)
);
}
);
width = 550;
},
{
anchors = (
{
name = bottom;
pos = (275,0);
},
{
name = center;
pos = (275,218);
},
{
name = ogonek;
pos = (494,10);
},
{
name = top;
pos = (275,429);
}
);
background = {
shapes = (
{
closed = 1;
nodes = (
(426,-14,o),
(535,87,o),
(535,222,cs),
(535,358,o),
(426,460,o),
(280,460,cs),
(134,460,o),
(25,358,o),
(25,222,cs),
(25,87,o),
(134,-14,o),
(280,-14,cs)
);
},
{
closed = 1;
nodes = (
(206,22,o),
(177,109,o),
(177,222,cs),
(177,337,o),
(206,425,o),
(280,425,cs),
(354,425,o),
(383,337,o),
(383,222,cs),
(383,109,o),
(354,22,o),
(280,22,cs)
);
}
);
};
layerId = m002;
shapes = (
{
closed = 1;
nodes = (
(436,-14,o),
(538,115,o),
(538,270,cs),
(538,435,o),
(422,628,o),
(131,724,c),
(117,692,l),
(241,632,o),
(339,525,o),
(372,402,c),
(411,410,l),
(372,438,o),
(326,454,o),
(275,454,cs),
(135,454,o),
(25,351,o),
(25,220,cs),
(25,90,o),
(137,-14,o),
(280,-14,cs)
);
},
{
closed = 1;
nodes = (
(204,22,o),
(175,109,o),
(175,220,cs),
(175,333,o),
(204,418,o),
(280,418,cs),
(356,418,o),
(385,333,o),
(385,220,cs),
(385,109,o),
(356,22,o),
(280,22,cs)
);
},
{
closed = 1;
nodes = (
(424,651,l),
(405,694,l),
(125,588,l),
(143,545,l)
);
}
);
width = 563;
}
);
metricLeft = o;
metricRight = o;
unicode = 240;
},
{
color = 4;
glyphname = e;
kernLeft = o;
kernRight = o;
layers = (
{
anchors = (
{
name = bottom;
pos = (269,0);
},
{
name = ogonek;
pos = (372,0);
},
{
name = top;
pos = (266,436);
}
);
layerId = "9372F035-DA38-4B54-966C-CEBA9B53DD02";
shapes = (
{
closed = 1;
nodes = (
(355,-11,o),
(414,31,o),
(442,115,c),
(418,124,l),
(391,54,o),
(340,19,o),
(278,19,cs),
(177,19,o),
(125,110,o),
(125,217,cs),
(125,342,o),
(171,429,o),
(267,429,cs),
(316,429,o),
(364,393,o),
(364,335,cs),
(364,305,o),
(345,268,o),
(255,268,cs),
(123,268,l),
(121,245,l),
(428,245,l),
(429,249,o),
(431,260,o),
(431,276,cs),
(431,382,o),
(369,454,o),
(267,454,cs),
(145,454,o),
(45,351,o),
(45,212,cs),
(45,81,o),
(132,-11,o),
(264,-11,cs)
);
}
);
width = 477;
},
{
anchors = (
{
name = bottom;
pos = (262,0);
},
{
name = ogonek;
pos = (375,0);
},
{
name = top;
pos = (271,436);
}
);
layerId = m002;
shapes = (
{
closed = 1;
nodes = (
(368,-14,o),
(432,31,o),
(469,115,c),
(435,128,l),
(407,70,o),
(363,41,o),
(304,41,cs),
(218,41,o),
(175,123,o),
(175,219,cs),
(175,340,o),
(200,424,o),
(261,424,cs),
(295,424,o),
(324,392,o),
(324,338,cs),
(324,301,o),
(303,273,o),
(248,273,cs),
(113,273,l),
(111,237,l),
(465,237,l),
(466,242,o),
(468,257,o),
(468,278,cs),
(468,386,o),
(390,460,o),
(261,460,cs),
(126,460,o),
(25,358,o),
(25,222,cs),
(25,87,o),
(126,-14,o),
(261,-14,cs)
);
}
);
width = 489;
}
);
metricLeft = o;
unicode = 101;
},
{
color = 4;
glyphname = f;
kernLeft = l;
kernRight = f;
layers = (
{
layerId = "9372F035-DA38-4B54-966C-CEBA9B53DD02";
shapes = (
{
closed = 1;
nodes = (
(148,0,l),
(271,-3,l),
(271,20,l),
(255,22,ls),
(197,29,o),
(183,31,o),
(183,121,cs),
(183,550,ls),
(183,632,o),
(197,699,o),
(273,699,cs),
(290,699,o),
(308,692,o),
(308,675,cs),
(308,671,o),
(307,667,o),
(305,662,cs),
(302,654,o),
(299,645,o),
(299,632,cs),
(299,611,o),
(318,590,o),
(343,590,cs),
(370,590,o),
(392,608,o),
(392,643,cs),
(392,696,o),
(341,724,o),
(273,724,cs),
(168,724,o),
(113,672,o),
(113,550,cs),
(113,121,ls),
(113,31,o),
(99,29,o),
(41,22,cs),
(25,20,l),
(25,-3,l)
);
},
{
closed = 1;
nodes = (
(119,411,l),
(119,436,l),
(27,436,l),
(27,411,l)
);
},
{
closed = 1;
nodes = (
(286,411,l),
(286,436,l),
(177,436,l),
(177,411,l)
);
}
);
width = 339;
},
{
layerId = m002;
shapes = (
{
closed = 1;
nodes = (
(151,0,l),
(291,-3,l),
(291,31,l),
(273,34,ls),
(230,41,o),
(220,52,o),
(220,124,cs),
(220,550,ls),
(220,626,o),
(229,688,o),
(288,688,cs),
(312,688,o),
(327,681,o),
(327,664,cs),
(327,657,o),
(325,649,o),
(322,640,cs),
(320,631,o),
(316,621,o),
(316,611,cs),
(316,580,o),
(341,557,o),
(386,557,cs),
(429,557,o),
(454,583,o),
(454,621,cs),
(454,686,o),
(383,724,o),
(273,724,cs),
(146,724,o),
(80,666,o),
(80,530,cs),
(80,124,ls),
(80,52,o),
(70,41,o),
(28,34,cs),
(10,31,l),
(10,-3,l)
);
},
{
closed = 1;
nodes = (
(119,406,l),
(119,446,l),
(10,446,l),
(10,406,l)
);
},
{
closed = 1;
nodes = (
(341,406,l),
(341,446,l),
(177,446,l),
(177,406,l)
);
}
);
width = 379;
}
);
unicode = 102;
},
{
color = 4;
glyphname = g;
kernLeft = g;
kernRight = g;
layers = (
{
anchors = (
{
name = top;
pos = (251,436);
}
);
guides = (
{
angle = 90;
pos = (252,323);
}
);
layerId = "9372F035-DA38-4B54-966C-CEBA9B53DD02";
shapes = (
{
closed = 1;
nodes = (
(375,-294,o),
(488,-230,o),
(488,-116,cs),
(488,7,o),
(387,24,o),
(262,30,cs),
(218,32,ls),
(162,35,o),
(112,41,o),
(112,83,cs),
(112,118,o),
(156,137,o),
(196,144,c),
(165,156,l),
(109,143,o),
(52,101,o),
(52,46,cs),
(52,-28,o),
(134,-39,o),
(195,-42,cs),
(297,-47,ls),
(396,-52,o),
(442,-77,o),
(442,-137,cs),
(442,-223,o),
(354,-269,o),
(252,-269,cs),
(160,-269,o),
(82,-245,o),
(82,-176,cs),
(82,-142,o),
(107,-133,o),
(107,-99,cs),
(107,-74,o),
(88,-61,o),
(66,-61,cs),
(32,-61,o),
(10,-93,o),
(10,-135,cs),
(10,-245,o),
(127,-294,o),
(252,-294,cs)
);
},
{
closed = 1;
nodes = (
(356,132,o),
(437,203,o),
(437,293,cs),
(437,383,o),
(355,454,o),
(252,454,cs),
(148,454,o),
(67,384,o),
(67,293,cs),
(67,201,o),
(150,132,o),
(252,132,cs)
);
},
{
closed = 1;
nodes = (
(174,157,o),
(144,216,o),
(144,293,cs),
(144,370,o),
(174,429,o),
(252,429,cs),
(330,429,o),
(360,370,o),
(360,293,cs),
(360,216,o),
(330,157,o),
(252,157,cs)
);
},
{
closed = 1;
nodes = (
(524,378,o),
(546,394,o),
(546,422,cs),
(546,456,o),
(511,479,o),
(470,479,cs),
(428,479,o),
(384,462,o),
(356,420,c),
(375,407,l),
(387,427,o),
(407,448,o),
(430,448,cs),
(447,448,o),
(455,436,o),
(458,420,cs),
(463,394,o),
(480,378,o),
(503,378,cs)
);
}
);
width = 554;
},
{
anchors = (
{
name = top;
pos = (268,446);
}
);
background = {
shapes = (
{
closed = 1;
nodes = (
(392,-294,o),
(505,-230,o),
(505,-116,cs),
(505,7,o),
(404,24,o),
(279,30,cs),
(235,32,ls),
(179,35,o),
(129,41,o),
(129,83,cs),
(129,118,o),
(173,137,o),
(213,144,c),
(182,156,l),
(126,143,o),
(69,101,o),
(69,46,cs),
(69,-28,o),
(151,-39,o),
(212,-42,cs),
(314,-47,ls),
(413,-52,o),
(459,-77,o),
(459,-137,cs),
(459,-223,o),
(371,-269,o),
(269,-269,cs),
(177,-269,o),
(99,-245,o),
(99,-176,cs),
(99,-142,o),
(124,-133,o),
(124,-99,cs),
(124,-74,o),
(105,-61,o),
(83,-61,cs),
(49,-61,o),
(27,-93,o),
(27,-135,cs),
(27,-245,o),
(144,-294,o),
(269,-294,cs)
);
},
{
closed = 1;
nodes = (
(373,132,o),
(454,203,o),
(454,293,cs),
(454,383,o),
(372,454,o),
(269,454,cs),
(165,454,o),
(84,384,o),
(84,293,cs),
(84,201,o),
(167,132,o),
(269,132,cs)
);
},
{
closed = 1;
nodes = (
(191,157,o),
(161,216,o),
(161,293,cs),
(161,370,o),
(191,429,o),
(269,429,cs),
(347,429,o),
(377,370,o),
(377,293,cs),
(377,216,o),
(347,157,o),
(269,157,cs)
);
},
{
closed = 1;
nodes = (
(541,378,o),
(563,394,o),
(563,422,cs),
(563,456,o),
(528,479,o),
(487,479,cs),
(445,479,o),
(401,462,o),
(373,420,c),
(392,407,l),
(404,427,o),
(424,448,o),
(447,448,cs),
(464,448,o),
(472,436,o),
(475,420,cs),
(480,394,o),
(497,378,o),
(520,378,cs)
);
}
);
};
guides = (
{
angle = 90;
pos = (269,323);
}
);
layerId = m002;
shapes = (
{
closed = 1;
nodes = (
(404,-294,o),
(528,-230,o),
(528,-116,cs),
(528,0,o),
(461,38,o),
(326,48,cs),
(216,56,ls),
(155,60,o),
(131,67,o),
(131,94,cs),
(131,122,o),
(173,138,o),
(213,144,c),
(182,168,l),
(109,153,o),
(34,107,o),
(34,35,cs),
(34,-57,o),
(122,-70,o),
(198,-75,cs),
(326,-83,ls),
(415,-89,o),
(444,-105,o),
(444,-155,cs),
(444,-218,o),
(363,-254,o),
(269,-254,cs),
(183,-254,o),
(100,-237,o),
(100,-183,cs),
(100,-156,o),
(126,-148,o),
(126,-120,cs),
(126,-91,o),
(98,-75,o),
(68,-75,cs),
(25,-75,o),
(-4,-107,o),
(-4,-149,cs),
(-4,-259,o),
(144,-294,o),
(269,-294,cs)
);
},
{
closed = 1;
nodes = (
(395,131,o),
(487,197,o),
(480,295,cs),
(473,394,o),
(395,460,o),
(268,460,cs),
(141,460,o),
(55,393,o),
(55,295,cs),
(55,198,o),
(141,131,o),
(268,131,cs)
);
},
{
closed = 1;
nodes = (
(213,169,o),
(192,223,o),
(192,295,cs),
(192,368,o),
(213,423,o),
(268,423,cs),
(323,423,o),
(344,368,o),
(344,295,cs),
(344,223,o),
(323,169,o),
(268,169,cs)
);
},
{
closed = 1;
nodes = (
(557,395,o),
(582,414,o),
(582,446,cs),
(582,494,o),
(546,524,o),
(499,524,cs),
(440,524,o),
(389,495,o),
(360,426,c),
(393,415,l),
(404,446,o),
(423,466,o),
(445,467,cs),
(460,468,o),
(468,458,o),
(475,438,cs),
(489,405,o),
(503,395,o),
(529,395,cs)
);
}
);
width = 586;
}
);
unicode = 103;
},
{
color = 4;
glyphname = h;
kernLeft = l;
kernRight = n;
layers = (
{
anchors = (
{
name = bottom;
pos = (289,0);
},
{
name = center;
pos = (142,567);
},
{
name = top;
pos = (341,710);
}
);
layerId = "9372F035-DA38-4B54-966C-CEBA9B53DD02";
shapes = (
{
closed = 1;
nodes = (
(138,0,l),
(261,-3,l),
(261,20,l),
(245,22,ls),
(187,29,o),
(173,31,o),
(173,121,cs),
(173,640,l),
(103,640,l),
(103,121,ls),
(103,31,o),
(89,29,o),
(31,22,cs),
(15,20,l),
(15,-3,l)
);
},
{
closed = 1;
nodes = (
(448,0,l),
(571,-3,l),
(571,20,l),
(555,22,ls),
(497,29,o),
(483,31,o),
(483,121,cs),
(483,321,ls),
(483,406,o),
(427,454,o),
(336,454,cs),
(232,454,o),
(161,373,o),
(150,315,c),
(171,315,l),
(186,360,o),
(238,424,o),
(314,424,cs),
(377,424,o),
(413,388,o),
(413,321,cs),
(413,121,ls),
(413,31,o),
(399,29,o),
(341,22,cs),
(325,20,l),
(325,-3,l)
);
},
{
closed = 1;
nodes = (
(173,624,l),
(173,725,l),
(118,715,o),
(70,713,o),
(15,713,c),
(15,690,l),
(22,690,ls),
(72,690,o),
(103,678,o),
(103,609,c)
);
}
);
width = 582;
},
{
anchors = (
{
name = bottom;
pos = (289,0);
},
{
name = center;
pos = (142,567);
},
{
name = top;
pos = (341,710);
}
);
layerId = m002;
shapes = (
{
closed = 1;
nodes = (
(136,0,l),
(275,-3,l),
(275,31,l),
(253,34,ls),
(227,37,o),
(220,52,o),
(220,124,cs),
(220,647,l),
(80,647,l),
(80,124,ls),
(80,52,o),
(70,41,o),
(28,34,cs),
(10,31,l),
(10,-3,l)
);
},
{
closed = 1;
nodes = (
(462,0,l),
(598,-3,l),
(598,31,l),
(580,34,ls),
(536,41,o),
(528,56,o),
(528,124,cs),
(528,324,ls),
(528,408,o),
(471,460,o),
(378,460,cs),
(280,460,o),
(194,386,o),
(169,281,c),
(195,281,l),
(222,349,o),
(268,393,o),
(313,393,cs),
(365,393,o),
(387,368,o),
(387,310,cs),
(387,124,ls),
(387,65,o),
(376,38,o),
(345,34,cs),
(323,31,l),
(323,-3,l)
);
},
{
closed = 1;
nodes = (
(220,619,l),
(220,722,l),
(147,712,o),
(84,710,o),
(10,710,c),
(10,676,l),
(21,675,ls),
(56,672,o),
(80,664,o),
(80,593,c)
);
}
);
width = 602;
}
);
metricLeft = l;
metricRight = n;
unicode = 104;
},
{
color = 4;
glyphname = idotless;
kernLeft = n;
kernRight = u;
layers = (
{
anchors = (
{
name = bottom;
pos = (149,0);
},
{
name = ogonek;
pos = (172,0);
},
{
name = top;
pos = (142,436);
}
);
hints = (
{
horizontal = 1;
place = (-3, 24);
place = (-3, 24);
type = Stem;
},
{
origin = (0,9);
target = (0,6);
type = Stem;
}
);
layerId = "9372F035-DA38-4B54-966C-CEBA9B53DD02";
shapes = (
{
closed = 1;
nodes = (
(151,0,l),
(274,-3,l),
(274,20,l),
(258,22,ls),
(200,29,o),
(186,31,o),
(186,121,cs),
(186,375,l),
(116,375,l),
(116,121,ls),
(116,31,o),
(102,29,o),
(44,22,cs),
(28,20,l),
(28,-3,l)
);
},
{
closed = 1;
nodes = (
(186,347,l),
(186,448,l),
(131,438,o),
(83,436,o),
(28,436,c),
(28,413,l),
(35,413,ls),
(85,413,o),
(116,401,o),
(116,332,c)
);
}
);
width = 299;
},
{
anchors = (
{
name = bottom;
pos = (149,0);
},
{
name = ogonek;
pos = (172,0);
},
{
name = top;
pos = (142,436);
}
);
background = {
shapes = (
{
closed = 1;
nodes = (
(136,0,l),
(275,-3,l),
(275,31,l),
(253,34,ls),
(228,37,o),
(221,52,o),
(221,134,cs),
(221,383,l),
(80,383,l),
(80,134,ls),
(80,52,o),
(70,41,o),
(28,34,cs),
(10,31,l),
(10,-3,l)
);
},
{
closed = 1;
nodes = (
(221,355,l),
(221,458,l),
(148,448,o),
(84,446,o),
(10,446,c),
(10,412,l),
(21,411,ls),
(56,408,o),
(80,400,o),
(80,329,c)
);
}
);
};
hints = (
{
horizontal = 1;
place = (-3, 24);
place = (-3, 24);
type = Stem;
},
{
origin = (0,9);
target = (1,0);
type = Stem;
}
);
layerId = m002;
shapes = (
{
closed = 1;
nodes = (
(151,0,l),
(291,-3,l),
(291,31,l),
(273,34,ls),
(230,41,o),
(220,52,o),
(220,124,cs),
(220,383,l),
(80,373,l),
(80,124,ls),
(80,52,o),
(70,41,o),
(28,34,cs),
(10,31,l),
(10,-3,l)
);
},
{
closed = 1;
nodes = (
(220,355,l),
(220,458,l),
(146,448,o),
(84,446,o),
(10,446,c),
(10,412,l),
(21,411,ls),
(56,408,o),
(80,400,o),
(80,329,c)
);
}
);
width = 297;
}
);
unicode = 305;
},
{
color = 4;
glyphname = jdotless;
kernLeft = n;
kernRight = u;
layers = (
{
anchors = (
{
name = bottom;
pos = (146,0);
},
{
name = top;
pos = (149,430);
}
);
layerId = "9372F035-DA38-4B54-966C-CEBA9B53DD02";
shapes = (
{
closed = 1;
nodes = (
(131,-294,o),
(189,-237,o),
(189,-152,cs),
(189,451,l),
(134,441,o),
(86,436,o),
(31,436,c),
(31,413,l),
(85,413,o),
(119,407,o),
(119,335,cs),
(119,-152,ls),
(119,-205,o),
(114,-273,o),
(69,-273,cs),
(54,-273,o),
(41,-264,o),
(41,-246,cs),
(41,-240,o),
(42,-235,o),
(45,-226,cs),
(47,-220,o),
(49,-213,o),
(49,-207,cs),
(49,-189,o),
(36,-167,o),
(6,-167,cs),
(-29,-167,o),
(-47,-193,o),
(-47,-223,cs),
(-47,-266,o),
(-11,-294,o),
(52,-294,cs)
);
}
);
width = 276;
},
{
anchors = (
{
name = bottom;
pos = (186,1);
},
{
name = top;
pos = (189,431);
}
);
layerId = m002;
shapes = (
{
closed = 1;
nodes = (
(195,-297,o),
(261,-239,o),
(261,-103,cs),
(261,459,l),
(187,449,o),
(124,446,o),
(50,446,c),
(50,413,l),
(97,413,o),
(121,401,o),
(121,330,cs),
(121,-123,ls),
(121,-199,o),
(115,-261,o),
(73,-261,cs),
(53,-261,o),
(41,-254,o),
(41,-237,cs),
(41,-230,o),
(43,-222,o),
(46,-213,cs),
(48,-204,o),
(52,-194,o),
(52,-184,cs),
(52,-153,o),
(27,-130,o),
(-18,-130,cs),
(-61,-130,o),
(-86,-156,o),
(-86,-194,cs),
(-86,-259,o),
(-26,-297,o),
(68,-297,cs)
);
}
);
width = 316;
}
);
unicode = 567;
},
{
color = 4;
glyphname = k;
kernLeft = l;
kernRight = k;
layers = (
{
anchors = (
{
name = bottom;
pos = (322,0);
},
{
name = top;
pos = (250,436);
}
);
layerId = "9372F035-DA38-4B54-966C-CEBA9B53DD02";
shapes = (
{
closed = 1;
nodes = (
(138,0,l),
(261,-3,l),
(261,20,l),
(245,22,ls),
(187,29,o),
(173,31,o),
(173,121,cs),
(173,644,l),
(103,644,l),
(103,121,ls),
(103,31,o),
(89,29,o),
(31,22,cs),
(15,20,l),
(15,-3,l)
);
},
{
closed = 1;
nodes = (
(524,20,l),
(508,22,l),
(484,24,o),
(459,53,o),
(439,76,cs),
(257,280,l),
(212,226,l),
(413,0,l),
(524,-3,l)
);
},
{
closed = 1;
nodes = (
(327,335,ls),
(360,375,o),
(398,405,o),
(458,413,cs),
(474,415,l),
(474,438,l),
(390,436,l),
(294,438,l),
(294,415,l),
(310,413,ls),
(327,411,o),
(334,405,o),
(334,395,cs),
(334,388,o),
(330,378,o),
(321,367,cs),
(168,184,l),
(168,146,l)
);
},
{
closed = 1;
nodes = (
(173,624,l),
(173,725,l),
(118,715,o),
(70,713,o),
(15,713,c),
(15,690,l),
(22,690,ls),
(72,690,o),
(103,678,o),
(103,609,c)
);
}
);
width = 524;
},
{
anchors = (
{
name = bottom;
pos = (347,0);
},
{
name = top;
pos = (250,436);
}
);
layerId = m002;
shapes = (
{
closed = 1;
nodes = (
(151,0,l),
(291,-3,l),
(291,31,l),
(273,34,ls),
(230,41,o),
(220,52,o),
(220,124,cs),
(220,650,l),
(80,640,l),
(80,124,ls),
(80,52,o),
(70,41,o),
(28,34,cs),
(10,31,l),
(10,-3,l)
);
},
{
closed = 1;
nodes = (
(576,31,l),
(564,33,ls),
(547,36,o),
(533,51,o),
(506,88,cs),
(332,328,l),
(237,225,l),
(396,0,l),
(576,-3,l)
);
},
{
closed = 1;
nodes = (
(371,333,ls),
(408,371,o),
(444,404,o),
(510,412,cs),
(527,414,l),
(527,448,l),
(433,446,l),
(315,448,l),
(315,414,l),
(333,413,ls),
(353,412,o),
(360,405,o),
(360,395,cs),
(360,388,o),
(356,378,o),
(345,366,cs),
(184,198,l),
(184,141,l)
);
},
{
closed = 1;
nodes = (
(220,622,l),
(220,725,l),
(146,715,o),
(84,713,o),
(10,713,c),
(10,679,l),
(21,678,ls),
(56,675,o),
(80,667,o),
(80,596,c)
);
}
);
width = 580;
}
);
metricLeft = l;
unicode = 107;
},
{
color = 4;
glyphname = l;
kernLeft = l;
kernRight = l;
layers = (
{
anchors = (
{
name = bottom;
pos = (135,0);
},
{
name = center;
pos = (135,386);
},
{
name = top;
pos = (137,710);
},
{
name = topright;
pos = (212,710);
}
);
layerId = "9372F035-DA38-4B54-966C-CEBA9B53DD02";
shapes = (
{
closed = 1;
nodes = (
(138,0,l),
(261,-3,l),
(261,20,l),
(245,22,ls),
(187,29,o),
(173,31,o),
(173,121,cs),
(173,644,l),
(103,644,l),
(103,121,ls),
(103,31,o),
(89,29,o),
(31,22,cs),
(15,20,l),
(15,-3,l)
);
},
{
closed = 1;
nodes = (
(173,624,l),
(173,725,l),
(118,715,o),
(70,713,o),
(15,713,c),
(15,690,l),
(22,690,ls),
(72,690,o),
(103,678,o),
(103,609,c)
);
}
);
width = 276;
},
{
anchors = (
{
name = bottom;
pos = (155,0);
},
{
name = center;
pos = (155,386);
},
{
name = top;
pos = (157,710);
},
{
name = topright;
pos = (252,710);
}
);
layerId = m002;
shapes = (
{
closed = 1;
nodes = (
(151,0,l),
(291,-3,l),
(291,31,l),
(273,34,ls),
(230,41,o),
(220,52,o),
(220,124,cs),
(220,650,l),
(80,640,l),
(80,124,ls),
(80,52,o),
(70,41,o),
(28,34,cs),
(10,31,l),
(10,-3,l)
);
},
{
closed = 1;
nodes = (
(220,622,l),
(220,725,l),
(146,715,o),
(84,713,o),
(10,713,c),
(10,679,l),
(21,678,ls),
(56,675,o),
(80,667,o),
(80,596,c)
);
}
);
width = 297;
}
);
unicode = 108;
},
{
color = 4;
glyphname = m;
kernLeft = n;
kernRight = n;
layers = (
{
anchors = (
{
name = top;
pos = (486,436);
}
);
layerId = "9372F035-DA38-4B54-966C-CEBA9B53DD02";
shapes = (
{
closed = 1;
nodes = (
(151,0,l),
(264,-3,l),
(264,20,l),
(248,22,ls),
(198,29,o),
(186,31,o),
(186,121,cs),
(186,375,l),
(116,375,l),
(116,121,ls),
(116,31,o),
(102,29,o),
(44,22,cs),
(28,20,l),
(28,-3,l)
);
},
{
closed = 1;
nodes = (
(186,347,l),
(186,448,l),
(131,438,o),
(83,436,o),
(28,436,c),
(28,413,l),
(82,413,o),
(116,404,o),
(116,332,c)
);
},
{
closed = 1;
nodes = (
(446,0,l),
(559,-3,l),
(559,20,l),
(543,22,ls),
(493,29,o),
(481,31,o),
(481,121,cs),
(481,312,ls),
(481,410,o),
(425,454,o),
(339,454,cs),
(242,454,o),
(174,378,o),
(164,315,c),
(184,315,l),
(198,362,o),
(245,424,o),
(319,424,cs),
(377,424,o),
(411,388,o),
(411,329,cs),
(411,121,ls),
(411,31,o),
(399,29,o),
(349,22,cs),
(333,20,l),
(333,-3,l)
);
},
{
closed = 1;
nodes = (
(741,0,l),
(863,-3,l),
(863,20,l),
(847,22,ls),
(788,29,o),
(776,33,o),
(776,121,cs),
(776,312,ls),
(776,410,o),
(720,454,o),
(634,454,cs),
(537,454,o),
(469,378,o),
(459,315,c),
(479,315,l),
(493,362,o),
(540,424,o),
(614,424,cs),
(672,424,o),
(706,388,o),
(706,329,cs),
(706,121,ls),
(706,31,o),
(694,28,o),
(644,22,cs),
(628,20,l),
(628,-3,l)
);
}
);
width = 874;
},
{
anchors = (
{
name = top;
pos = (486,436);
}
);
layerId = m002;
shapes = (
{
closed = 1;
nodes = (
(136,0,l),
(281,-3,l),
(281,31,l),
(259,34,ls),
(228,38,o),
(220,52,o),
(220,124,cs),
(220,383,l),
(80,383,l),
(80,124,ls),
(80,52,o),
(70,41,o),
(28,34,cs),
(10,31,l),
(10,-3,l)
);
},
{
closed = 1;
nodes = (
(220,355,l),
(220,458,l),
(147,448,o),
(84,446,o),
(10,446,c),
(10,412,l),
(56,412,o),
(80,400,o),
(80,329,c)
);
},
{
closed = 1;
nodes = (
(452,0,l),
(578,-3,l),
(578,31,l),
(556,34,ls),
(523,38,o),
(518,56,o),
(518,124,cs),
(518,324,ls),
(518,408,o),
(461,460,o),
(378,460,cs),
(280,460,o),
(194,386,o),
(169,281,c),
(195,281,l),
(222,349,o),
(268,393,o),
(313,393,cs),
(356,393,o),
(378,368,o),
(378,310,cs),
(378,124,ls),
(378,65,o),
(368,38,o),
(339,34,cs),
(317,31,l),
(317,-3,l)
);
},
{
closed = 1;
nodes = (
(749,0,l),
(885,-3,l),
(885,31,l),
(867,34,ls),
(823,41,o),
(815,56,o),
(815,124,cs),
(815,324,ls),
(815,408,o),
(758,460,o),
(675,460,cs),
(564,460,o),
(474,382,o),
(459,271,c),
(492,271,l),
(509,345,o),
(562,393,o),
(610,393,cs),
(653,393,o),
(675,368,o),
(675,310,cs),
(675,124,ls),
(675,65,o),
(665,38,o),
(636,34,cs),
(614,31,l),
(614,-3,l)
);
}
);
width = 889;
}
);
metricLeft = n;
metricRight = n;
unicode = 109;
},
{
color = 4;
glyphname = n;
kernLeft = n;
kernRight = n;
layers = (
{
anchors = (
{
name = bottom;
pos = (301,0);
},
{
name = top;
pos = (301,436);
}
);
layerId = "9372F035-DA38-4B54-966C-CEBA9B53DD02";
shapes = (
{
closed = 1;
nodes = (
(151,0,l),
(274,-3,l),
(274,20,l),
(258,22,ls),
(200,29,o),
(186,31,o),
(186,121,cs),
(186,375,l),
(116,375,l),
(116,121,ls),
(116,31,o),
(102,29,o),
(44,22,cs),
(28,20,l),
(28,-3,l)
);
},
{
closed = 1;
nodes = (
(186,347,l),
(186,448,l),
(131,438,o),
(83,436,o),
(28,436,c),
(28,413,l),
(35,413,ls),
(85,413,o),
(116,401,o),
(116,332,c)
);
},
{
closed = 1;
nodes = (
(461,0,l),
(584,-3,l),
(584,20,l),
(568,22,ls),
(510,29,o),
(496,31,o),
(496,121,cs),
(496,321,ls),
(496,406,o),
(440,454,o),
(349,454,cs),
(245,454,o),
(174,373,o),
(163,315,c),
(184,315,l),
(199,360,o),
(251,424,o),
(327,424,cs),
(390,424,o),
(426,388,o),
(426,321,cs),
(426,121,ls),
(426,31,o),
(412,29,o),
(354,22,cs),
(338,20,l),
(338,-3,l)
);
}
);
width = 595;
},
{
anchors = (
{
name = bottom;
pos = (289,0);
},
{
name = top;
pos = (289,436);
}
);
background = {
shapes = (
{
closed = 1;
nodes = (
(145,0,l),
(281,-3,l),
(281,31,l),
(259,34,ls),
(228,38,o),
(220,52,o),
(220,124,cs),
(220,383,l),
(80,383,l),
(80,124,ls),
(80,52,o),
(70,41,o),
(28,34,cs),
(10,31,l),
(10,-3,l)
);
},
{
closed = 1;
nodes = (
(216,355,l),
(216,458,l),
(143,448,o),
(84,446,o),
(10,446,c),
(10,412,l),
(21,412,ls),
(56,412,o),
(80,400,o),
(80,329,c)
);
},
{
closed = 1;
nodes = (
(463,0,l),
(598,-3,l),
(598,31,l),
(580,34,ls),
(536,41,o),
(528,56,o),
(528,124,cs),
(528,324,ls),
(528,408,o),
(471,460,o),
(378,460,cs),
(280,460,o),
(194,386,o),
(169,281,c),
(195,281,l),
(222,349,o),
(268,393,o),
(313,393,cs),
(366,393,o),
(388,368,o),
(388,310,cs),
(388,124,ls),
(388,65,o),
(378,38,o),
(349,34,cs),
(327,31,l),
(327,-3,l)
);
},
{
closed = 1;
nodes = (
(1106,-14,o),
(1163,22,o),
(1195,92,c),
(1167,111,l),
(1144,64,o),
(1124,45,o),
(1109,45,cs),
(1092,45,o),
(1089,65,o),
(1103,104,cs),
(1173,303,ls),
(1209,405,o),
(1193,464,o),
(1098,464,cs),
(980,464,o),
(862,389,o),
(810,225,c),
(862,264,l),
(915,453,l),
(695,450,l),
(684,416,l),
(705,416,ls),
(759,416,o),
(760,392,o),
(743,344,cs),
(625,0,l),
(774,0,l),
(847,216,ls),
(885,328,o),
(948,394,o),
(1003,394,cs),
(1038,394,o),
(1043,362,o),
(1029,321,cs),
(965,131,ls),
(940,57,o),
(930,-14,o),
(1036,-14,cs)
);
}
);
};
layerId = m002;
shapes = (
{
closed = 1;
nodes = (
(145,0,l),
(281,-3,l),
(281,31,l),
(259,34,ls),
(228,38,o),
(220,52,o),
(220,124,cs),
(220,383,l),
(80,383,l),
(80,124,ls),
(80,52,o),
(70,41,o),
(28,34,cs),
(10,31,l),
(10,-3,l)
);
},
{
closed = 1;
nodes = (
(216,355,l),
(216,458,l),
(143,448,o),
(84,446,o),
(10,446,c),
(10,412,l),
(21,412,ls),
(56,412,o),
(80,400,o),
(80,329,c)
);
},
{
closed = 1;
nodes = (
(463,0,l),
(598,-3,l),
(598,31,l),
(580,34,ls),
(536,41,o),
(528,56,o),
(528,124,cs),
(528,324,ls),
(528,408,o),
(471,460,o),
(378,460,cs),
(280,460,o),
(194,386,o),
(169,281,c),
(195,281,l),
(222,349,o),
(268,393,o),
(313,393,cs),
(366,393,o),
(388,368,o),
(388,310,cs),
(388,124,ls),
(388,65,o),
(378,38,o),
(349,34,cs),
(327,31,l),
(327,-3,l)
);
}
);
width = 602;
}
);
unicode = 110;
},
{
color = 4;
glyphname = eng;
kernLeft = n;
kernRight = n;
layers = (
{
hints = (
{
horizontal = 1;
place = (-3, 24);
place = (-3, 24);
type = Stem;
},
{
place = (123, 70);
place = (123, 70);
type = Stem;
}
);
layerId = "9372F035-DA38-4B54-966C-CEBA9B53DD02";
shapes = (
{
closed = 1;
nodes = (
(438,-294,o),
(496,-237,o),
(496,-152,c),
(496,321,l),
(496,406,o),
(440,454,o),
(349,454,cs),
(245,454,o),
(174,373,o),
(163,315,c),
(184,315,l),
(199,360,o),
(251,424,o),
(327,424,cs),
(390,424,o),
(426,388,o),
(426,321,c),
(426,-152,l),
(426,-205,o),
(421,-273,o),
(376,-273,cs),
(361,-273,o),
(352,-266,o),
(352,-251,cs),
(352,-236,o),
(356,-232,o),
(356,-217,cs),
(356,-194,o),
(338,-167,o),
(308,-167,cs),
(278,-167,o),
(260,-190,o),
(260,-223,cs),
(260,-269,o),
(296,-294,o),
(359,-294,cs)
);
},
{
closed = 1;
nodes = (
(151,0,l),
(274,-3,l),
(274,20,l),
(258,22,ls),
(200,29,o),
(186,31,o),
(186,121,cs),
(186,343,l),
(186,352,l),
(186,448,l),
(131,438,o),
(83,436,o),
(28,436,c),
(28,413,l),
(35,413,ls),
(85,413,o),
(116,401,o),
(116,332,cs),
(116,121,ls),
(116,31,o),
(102,29,o),
(44,22,cs),
(28,20,l),
(28,-3,l)
);
}
);
width = 595;
},
{
background = {
shapes = (
{
closed = 1;
nodes = (
(442,-294,o),
(500,-237,o),
(500,-152,cs),
(500,335,ls),
(500,406,o),
(460,454,o),
(365,454,cs),
(215,454,o),
(177,313,o),
(162,236,c),
(187,257,l),
(198,313,o),
(246,424,o),
(343,424,cs),
(406,424,o),
(430,388,o),
(430,330,cs),
(430,-152,ls),
(430,-205,o),
(425,-273,o),
(380,-273,cs),
(365,-273,o),
(356,-266,o),
(356,-251,cs),
(356,-236,o),
(360,-232,o),
(360,-217,cs),
(360,-194,o),
(342,-167,o),
(312,-167,cs),
(282,-167,o),
(264,-190,o),
(264,-223,cs),
(264,-269,o),
(300,-294,o),
(363,-294,cs)
);
}
);
};
hints = (
{
horizontal = 1;
place = (-3, 24);
place = (-3, 24);
type = Stem;
},
{
place = (87, 141);
place = (87, 141);
type = Stem;
}
);
layerId = m002;
shapes = (
{
closed = 1;
nodes = (
(462,-297,o),
(528,-239,o),
(528,-103,c),
(528,324,ls),
(528,408,o),
(471,460,o),
(378,460,cs),
(280,460,o),
(194,386,o),
(169,281,c),
(195,281,l),
(222,349,o),
(268,393,o),
(313,393,cs),
(366,393,o),
(388,368,o),
(388,310,cs),
(388,-123,l),
(388,-199,o),
(382,-261,o),
(340,-261,cs),
(320,-261,o),
(308,-254,o),
(308,-237,cs),
(308,-212,o),
(319,-199,o),
(319,-184,cs),
(319,-153,o),
(294,-130,o),
(249,-130,cs),
(206,-130,o),
(181,-156,o),
(181,-194,cs),
(181,-259,o),
(241,-297,o),
(335,-297,cs)
);
},
{
closed = 1;
nodes = (
(156,0,l),
(281,-3,l),
(281,31,l),
(259,34,ls),
(228,38,o),
(220,52,o),
(220,124,cs),
(220,383,l),
(216,383,l),
(216,458,l),
(143,448,o),
(84,446,o),
(10,446,c),
(10,412,l),
(21,412,ls),
(56,412,o),
(80,400,o),
(80,329,cs),
(80,124,ls),
(80,52,o),
(70,41,o),
(28,34,cs),
(10,31,l),
(10,-3,l)
);
}
);
width = 595;
}
);
unicode = 331;
},
{
color = 4;
glyphname = o;
kernLeft = o;
kernRight = o;
layers = (
{
anchors = (
{
name = bottom;
pos = (275,0);
},
{
name = center;
pos = (275,218);
},
{
name = ogonek;
pos = (494,10);
},
{
name = top;
pos = (275,429);
}
);
guides = (
{
pos = (275,221);
},
{
angle = 90;
pos = (275,221);
}
);
layerId = "9372F035-DA38-4B54-966C-CEBA9B53DD02";
shapes = (
{
closed = 1;
nodes = (
(404,-11,o),
(505,92,o),
(505,220,cs),
(505,351,o),
(404,454,o),
(275,454,cs),
(146,454,o),
(45,351,o),
(45,220,cs),
(45,92,o),
(146,-11,o),
(275,-11,cs)
);
},
{
closed = 1;
nodes = (
(167,14,o),
(125,104,o),
(125,220,cs),
(125,339,o),
(167,429,o),
(275,429,cs),
(383,429,o),
(425,339,o),
(425,220,cs),
(425,104,o),
(383,14,o),
(275,14,cs)
);
}
);
width = 550;
},
{
anchors = (
{
name = bottom;
pos = (280,0);
},
{
name = center;
pos = (280,218);
},
{
name = ogonek;
pos = (499,10);
},
{
name = top;
pos = (280,429);
}
);
guides = (
{
pos = (280,221);
},
{
angle = 90;
pos = (280,221);
}
);
layerId = m002;
shapes = (
{
closed = 1;
nodes = (
(426,-14,o),
(535,87,o),
(535,223,cs),
(535,358,o),
(426,460,o),
(280,460,cs),
(134,460,o),
(25,358,o),
(25,223,cs),
(25,87,o),
(134,-14,o),
(280,-14,cs)
);
},
{
closed = 1;
nodes = (
(205,22,o),
(175,109,o),
(175,223,cs),
(175,337,o),
(205,424,o),
(280,424,cs),
(355,424,o),
(385,337,o),
(385,223,cs),
(385,109,o),
(355,22,o),
(280,22,cs)
);
}
);
width = 560;
}
);
unicode = 111;
},
{
color = 4;
glyphname = p;
kernLeft = p;
kernRight = o;
layers = (
{
anchors = (
{
name = bottom;
pos = (275,0);
},
{
name = top;
pos = (275,436);
}
);
layerId = "9372F035-DA38-4B54-966C-CEBA9B53DD02";
shapes = (
{
closed = 1;
nodes = (
(141,-280,l),
(264,-283,l),
(264,-260,l),
(248,-258,ls),
(190,-251,o),
(176,-249,o),
(176,-159,cs),
(176,367,l),
(169,382,l),
(176,451,l),
(121,441,o),
(73,436,o),
(18,436,c),
(18,413,l),
(72,413,o),
(106,407,o),
(106,335,cs),
(106,-159,ls),
(106,-249,o),
(92,-251,o),
(34,-258,cs),
(18,-260,l),
(18,-283,l)
);
},
{
closed = 1;
nodes = (
(430,-11,o),
(518,91,o),
(518,220,cs),
(518,351,o),
(430,454,o),
(315,454,cs),
(247,454,o),
(195,418,o),
(156,367,c),
(170,350,l),
(201,390,o),
(244,424,o),
(303,424,cs),
(394,424,o),
(438,336,o),
(438,220,cs),
(438,106,o),
(394,19,o),
(302,19,cs),
(240,19,o),
(186,62,o),
(169,99,c),
(160,65,l),
(187,28,o),
(244,-11,o),
(311,-11,cs)
);
}
);
width = 563;
},
{
anchors = (
{
name = bottom;
pos = (305,0);
},
{
name = top;
pos = (305,436);
}
);
layerId = m002;
shapes = (
{
closed = 1;
nodes = (
(147,-280,l),
(287,-283,l),
(287,-249,l),
(269,-246,ls),
(226,-239,o),
(216,-228,o),
(216,-156,cs),
(216,387,l),
(208,388,l),
(213,461,l),
(139,451,o),
(80,446,o),
(6,446,c),
(6,412,l),
(52,412,o),
(76,400,o),
(76,329,cs),
(76,-156,ls),
(76,-228,o),
(66,-239,o),
(24,-246,cs),
(6,-249,l),
(6,-283,l)
);
},
{
closed = 1;
nodes = (
(499,-14,o),
(574,88,o),
(574,223,cs),
(574,358,o),
(499,460,o),
(370,460,cs),
(289,460,o),
(234,420,o),
(185,370,c),
(197,344,l),
(235,374,o),
(279,405,o),
(320,405,cs),
(395,405,o),
(424,326,o),
(424,223,cs),
(424,120,o),
(395,41,o),
(320,41,cs),
(279,41,o),
(235,72,o),
(197,102,c),
(185,76,l),
(234,26,o),
(289,-14,o),
(370,-14,cs)
);
}
);
width = 599;
}
);
metricRight = o;
unicode = 112;
},
{
color = 4;
glyphname = thorn;
kernLeft = l;
kernRight = o;
layers = (
{
anchors = (
{
name = bottom;
pos = (293,0);
},
{
name = top;
pos = (293,436);
}
);
layerId = "9372F035-DA38-4B54-966C-CEBA9B53DD02";
shapes = (
{
closed = 1;
nodes = (
(141,-280,l),
(264,-283,l),
(264,-260,l),
(248,-258,ls),
(190,-251,o),
(176,-249,o),
(176,-159,cs),
(176,724,l),
(121,714,o),
(73,709,o),
(18,709,c),
(18,686,l),
(72,684,o),
(106,678,o),
(106,608,cs),
(106,-159,ls),
(106,-249,o),
(92,-251,o),
(34,-258,cs),
(18,-260,l),
(18,-283,l)
);
},
{
closed = 1;
nodes = (
(430,-11,o),
(518,91,o),
(518,220,cs),
(518,351,o),
(430,454,o),
(308,454,cs),
(250,454,o),
(202,429,o),
(170,387,c),
(170,348,l),
(200,396,o),
(247,429,o),
(308,429,cs),
(394,429,o),
(438,339,o),
(438,220,cs),
(438,106,o),
(394,19,o),
(308,19,cs),
(246,19,o),
(199,51,o),
(170,99,c),
(168,59,l),
(202,14,o),
(249,-11,o),
(308,-11,cs)
);
}
);
width = 563;
},
{
anchors = (
{
name = bottom;
pos = (300,0);
},
{
name = top;
pos = (300,436);
}
);
layerId = m002;
shapes = (
{
closed = 1;
nodes = (
(147,-281,l),
(287,-284,l),
(287,-250,l),
(269,-247,ls),
(226,-240,o),
(216,-229,o),
(216,-157,cs),
(216,724,l),
(142,714,o),
(80,712,o),
(6,712,c),
(6,678,l),
(52,675,o),
(76,667,o),
(76,595,cs),
(76,-157,ls),
(76,-229,o),
(66,-240,o),
(24,-247,cs),
(6,-250,l),
(6,-284,l)
);
},
{
closed = 1;
nodes = (
(499,-15,o),
(574,87,o),
(574,222,cs),
(574,357,o),
(499,459,o),
(370,459,cs),
(289,459,o),
(234,419,o),
(185,369,c),
(197,343,l),
(235,373,o),
(279,404,o),
(320,404,cs),
(395,404,o),
(424,325,o),
(424,222,cs),
(424,119,o),
(395,40,o),
(320,40,cs),
(279,40,o),
(235,71,o),
(197,101,c),
(185,75,l),
(234,25,o),
(289,-15,o),
(370,-15,cs)
);
}
);
width = 599;
}
);
metricLeft = p;
metricRight = p;
unicode = 254;
},
{
color = 4;
glyphname = q;
kernLeft = o;
kernRight = n;
layers = (
{
anchors = (
{
name = bottom;
pos = (277,0);
},
{
name = top;
pos = (277,436);
}
);
layerId = "9372F035-DA38-4B54-966C-CEBA9B53DD02";
shapes = (
{
closed = 1;
nodes = (
(422,-280,l),
(545,-283,l),
(545,-260,l),
(529,-258,ls),
(471,-251,o),
(457,-249,o),
(457,-159,cs),
(457,449,l),
(442,449,l),
(383,385,l),
(387,365,l),
(387,-159,ls),
(387,-249,o),
(373,-251,o),
(315,-258,cs),
(299,-260,l),
(299,-283,l)
);
},
{
closed = 1;
nodes = (
(316,-11,o),
(370,25,o),
(407,76,c),
(393,93,l),
(362,53,o),
(319,19,o),
(258,19,cs),
(169,19,o),
(125,107,o),
(125,223,cs),
(125,337,o),
(169,424,o),
(261,424,cs),
(323,424,o),
(377,381,o),
(394,344,c),
(403,378,l),
(376,415,o),
(319,454,o),
(252,454,cs),
(133,454,o),
(45,352,o),
(45,223,cs),
(45,92,o),
(133,-11,o),
(248,-11,cs)
);
}
);
width = 535;
},
{
anchors = (
{
name = bottom;
pos = (335,0);
},
{
name = top;
pos = (335,436);
}
);
layerId = m002;
shapes = (
{
closed = 1;
nodes = (
(443,-280,l),
(583,-283,l),
(583,-249,l),
(565,-246,ls),
(523,-239,o),
(513,-228,o),
(513,-156,cs),
(513,457,l),
(488,457,l),
(357,392,l),
(373,374,l),
(373,-156,ls),
(373,-228,o),
(363,-239,o),
(320,-246,cs),
(302,-249,l),
(302,-283,l)
);
},
{
closed = 1;
nodes = (
(310,-14,o),
(365,26,o),
(414,76,c),
(402,102,l),
(364,72,o),
(320,41,o),
(279,41,cs),
(204,41,o),
(175,120,o),
(175,223,cs),
(175,326,o),
(204,405,o),
(279,405,cs),
(320,405,o),
(364,374,o),
(402,344,c),
(414,370,l),
(365,420,o),
(310,460,o),
(229,460,cs),
(100,460,o),
(25,358,o),
(25,223,cs),
(25,88,o),
(100,-14,o),
(229,-14,cs)
);
}
);
width = 589;
}
);
metricLeft = o;
unicode = 113;
},
{
color = 4;
glyphname = r;
kernLeft = n;
kernRight = r;
layers = (
{
anchors = (
{
name = bottom;
pos = (149,0);
},
{
name = top;
pos = (189,436);
}
);
layerId = "9372F035-DA38-4B54-966C-CEBA9B53DD02";
shapes = (
{
closed = 1;
nodes = (
(151,0,l),
(274,-3,l),
(274,20,l),
(258,22,ls),
(200,29,o),
(186,31,o),
(186,121,cs),
(186,279,l),
(195,326,o),
(224,420,o),
(272,420,cs),
(280,420,o),
(286,417,o),
(286,410,cs),
(286,403,o),
(281,390,o),
(281,377,cs),
(281,360,o),
(296,344,o),
(324,344,cs),
(353,344,o),
(372,365,o),
(372,394,cs),
(372,419,o),
(358,454,o),
(302,454,cs),
(253,454,o),
(208,422,o),
(179,333,c),
(175,333,l),
(116,382,l),
(116,121,ls),
(116,31,o),
(102,29,o),
(44,22,cs),
(28,20,l),
(28,-3,l)
);
},
{
closed = 1;
nodes = (
(175,333,l),
(186,448,l),
(131,440,o),
(83,436,o),
(28,436,c),
(28,413,l),
(82,413,o),
(116,407,o),
(116,329,c)
);
}
);
width = 392;
},
{
anchors = (
{
name = bottom;
pos = (149,0);
},
{
name = top;
pos = (189,436);
}
);
layerId = m002;
shapes = (
{
closed = 1;
nodes = (
(136,0,l),
(281,-3,l),
(281,31,l),
(259,34,ls),
(228,38,o),
(220,52,o),
(220,124,cs),
(220,255,l),
(231,311,o),
(262,401,o),
(300,401,cs),
(311,401,o),
(319,397,o),
(319,385,cs),
(319,374,o),
(312,366,o),
(312,346,cs),
(312,321,o),
(337,304,o),
(373,304,cs),
(415,304,o),
(442,333,o),
(442,379,cs),
(442,410,o),
(423,460,o),
(357,460,cs),
(295,460,o),
(242,427,o),
(209,337,c),
(204,337,l),
(80,383,l),
(80,124,ls),
(80,52,o),
(70,41,o),
(28,34,cs),
(10,31,l),
(10,-3,l)
);
},
{
closed = 1;
nodes = (
(204,337,l),
(215,458,l),
(142,448,o),
(84,446,o),
(10,446,c),
(10,412,l),
(56,412,o),
(80,400,o),
(80,329,c)
);
}
);
width = 448;
}
);
metricLeft = n;
unicode = 114;
},
{
color = 4;
glyphname = s;
kernLeft = s;
kernRight = s;
layers = (
{
anchors = (
{
name = bottom;
pos = (206,3);
},
{
name = top;
pos = (203,433);
}
);
layerId = "9372F035-DA38-4B54-966C-CEBA9B53DD02";
shapes = (
{
closed = 1;
nodes = (
(302,-11,o),
(352,51,o),
(352,122,cs),
(352,182,o),
(325,224,o),
(244,255,cs),
(205,270,ls),
(150,291,o),
(117,316,o),
(117,358,cs),
(117,401,o),
(151,432,o),
(195,432,cs),
(257,432,o),
(290,379,o),
(299,316,c),
(322,316,l),
(322,386,l),
(326,451,l),
(304,452,l),
(300,438,o),
(296,431,o),
(288,431,cs),
(284,431,o),
(279,432,o),
(271,436,cs),
(255,444,o),
(232,454,o),
(199,454,cs),
(129,454,o),
(66,404,o),
(66,325,cs),
(66,262,o),
(101,225,o),
(171,198,cs),
(207,184,ls),
(267,161,o),
(303,134,o),
(303,91,cs),
(303,42,o),
(266,12,o),
(212,12,cs),
(136,12,o),
(84,78,o),
(81,134,cs),
(80,151,l),
(58,151,l),
(55,66,l),
(51,0,l),
(74,0,l),
(78,19,o),
(80,21,o),
(86,21,cs),
(90,21,o),
(96,18,o),
(106,13,cs),
(126,4,o),
(161,-11,o),
(212,-11,cs)
);
}
);
width = 393;
},
{
anchors = (
{
name = bottom;
pos = (232,3);
},
{
name = top;
pos = (229,433);
}
);
background = {
shapes = (
{
closed = 1;
nodes = (
(328,-11,o),
(378,51,o),
(378,122,cs),
(378,182,o),
(351,224,o),
(270,255,cs),
(231,270,ls),
(176,291,o),
(143,316,o),
(143,358,cs),
(143,401,o),
(177,432,o),
(221,432,cs),
(283,432,o),
(316,379,o),
(325,316,c),
(348,316,l),
(348,386,l),
(352,451,l),
(330,452,l),
(326,438,o),
(322,431,o),
(314,431,cs),
(310,431,o),
(305,432,o),
(297,436,cs),
(281,444,o),
(258,454,o),
(225,454,cs),
(155,454,o),
(92,404,o),
(92,325,cs),
(92,262,o),
(127,225,o),
(197,198,cs),
(233,184,ls),
(293,161,o),
(329,134,o),
(329,91,cs),
(329,42,o),
(292,12,o),
(238,12,cs),
(162,12,o),
(110,78,o),
(107,134,cs),
(106,151,l),
(84,151,l),
(81,66,l),
(77,0,l),
(100,0,l),
(104,19,o),
(106,21,o),
(112,21,cs),
(116,21,o),
(122,18,o),
(132,13,cs),
(152,4,o),
(187,-11,o),
(238,-11,cs)
);
}
);
};
layerId = m002;
shapes = (
{
closed = 1;
nodes = (
(350,-16,o),
(424,42,o),
(424,129,cs),
(424,206,o),
(388,245,o),
(289,276,cs),
(232,294,ls),
(177,311,o),
(155,333,o),
(155,368,cs),
(155,403,o),
(182,428,o),
(219,428,cs),
(275,428,o),
(319,390,o),
(355,310,c),
(388,310,l),
(388,394,l),
(392,460,l),
(359,460,l),
(355,446,o),
(349,441,o),
(337,441,cs),
(330,441,o),
(327,442,o),
(314,446,cs),
(272,460,o),
(252,464,o),
(224,464,cs),
(120,464,o),
(45,403,o),
(45,318,cs),
(45,251,o),
(86,206,o),
(175,176,cs),
(235,156,ls),
(308,132,o),
(327,116,o),
(327,83,cs),
(327,46,o),
(290,20,o),
(238,20,cs),
(173,20,o),
(106,70,o),
(82,134,cs),
(71,163,l),
(42,163,l),
(39,65,l),
(35,0,l),
(68,0,l),
(70,18,o),
(74,25,o),
(84,25,cs),
(92,25,o),
(100,22,o),
(116,13,cs),
(151,-6,o),
(194,-16,o),
(238,-16,cs)
);
}
);
width = 449;
}
);
unicode = 115;
},
{
color = 4;
glyphname = germandbls;
kernLeft = l;
kernRight = B;
layers = (
{
layerId = "9372F035-DA38-4B54-966C-CEBA9B53DD02";
shapes = (
{
closed = 1;
nodes = (
(489,-11,o),
(573,62,o),
(573,140,cs),
(573,202,o),
(533,257,o),
(443,318,cs),
(387,356,o),
(354,396,o),
(354,426,cs),
(354,448,o),
(372,474,o),
(420,520,cs),
(455,553,o),
(471,580,o),
(471,608,cs),
(471,673,o),
(398,724,o),
(304,724,cs),
(172,724,o),
(113,654,o),
(113,498,cs),
(113,121,ls),
(113,40,o),
(106,30,o),
(41,22,cs),
(25,20,l),
(25,-3,l),
(148,0,l),
(194,0,l),
(187,35,o),
(184,69,o),
(184,121,cs),
(184,550,ls),
(184,647,o),
(221,699,o),
(290,699,cs),
(352,699,o),
(391,656,o),
(391,586,cs),
(391,549,o),
(369,503,o),
(335,469,cs),
(299,433,o),
(288,414,o),
(288,389,cs),
(288,354,o),
(320,315,o),
(386,271,cs),
(465,218,o),
(495,177,o),
(495,123,cs),
(495,59,o),
(452,14,o),
(391,14,cs),
(350,14,o),
(328,30,o),
(328,59,cs),
(328,80,o),
(335,90,o),
(335,107,cs),
(335,130,o),
(314,149,o),
(289,149,cs),
(260,149,o),
(241,127,o),
(241,93,cs),
(241,34,o),
(310,-11,o),
(401,-11,cs)
);
},
{
closed = 1;
nodes = (
(133,413,l),
(133,436,l),
(27,436,l),
(27,413,l)
);
}
);
width = 614;
},
{
layerId = m002;
shapes = (
{
closed = 1;
nodes = (
(571,-16,o),
(645,49,o),
(645,149,cs),
(645,227,o),
(617,262,o),
(502,326,cs),
(409,378,o),
(373,398,o),
(373,432,cs),
(373,458,o),
(387,475,o),
(435,506,cs),
(497,547,o),
(518,572,o),
(518,605,cs),
(518,676,o),
(427,724,o),
(293,724,cs),
(148,724,o),
(80,662,o),
(80,530,cs),
(80,124,ls),
(80,55,o),
(72,41,o),
(28,34,cs),
(10,31,l),
(10,-3,l),
(151,0,l),
(230,-3,l),
(223,35,o),
(220,78,o),
(220,124,cs),
(220,550,ls),
(220,647,o),
(246,688,o),
(308,688,cs),
(354,688,o),
(383,647,o),
(383,581,cs),
(383,549,o),
(371,517,o),
(343,481,cs),
(304,427,o),
(286,389,o),
(286,355,cs),
(286,303,o),
(317,268,o),
(405,220,cs),
(510,164,o),
(538,137,o),
(538,91,cs),
(538,47,o),
(508,20,o),
(459,20,cs),
(423,20,o),
(402,33,o),
(402,56,cs),
(402,68,o),
(415,84,o),
(415,98,cs),
(415,129,o),
(385,149,o),
(340,149,cs),
(304,149,o),
(277,125,o),
(277,92,cs),
(277,28,o),
(351,-16,o),
(459,-16,cs)
);
},
{
closed = 1;
nodes = (
(119,406,l),
(119,446,l),
(10,446,l),
(10,406,l)
);
}
);
width = 670;
}
);
metricLeft = f;
metricRight = s;
unicode = 223;
},
{
color = 4;
glyphname = t;
kernLeft = t;
kernRight = t;
layers = (
{
anchors = (
{
name = bottom;
pos = (198,0);
},
{
name = center;
pos = (168,306);
},
{
name = top;
pos = (157,521);
},
{
name = topright;
pos = (231,689);
}
);
layerId = "9372F035-DA38-4B54-966C-CEBA9B53DD02";
shapes = (
{
closed = 1;
nodes = (
(246,-11,o),
(275,-1,o),
(298,24,cs),
(309,36,o),
(321,53,o),
(329,73,c),
(307,84,l),
(290,49,o),
(270,23,o),
(236,23,cs),
(195,23,o),
(174,52,o),
(174,111,cs),
(174,411,l),
(302,411,l),
(302,436,l),
(174,436,l),
(174,557,l),
(148,557,l),
(139,484,o),
(112,442,o),
(57,438,cs),
(30,436,l),
(30,411,l),
(104,411,l),
(104,115,ls),
(104,25,o),
(149,-11,o),
(214,-11,cs)
);
}
);
width = 339;
},
{
anchors = (
{
name = bottom;
pos = (218,0);
},
{
name = center;
pos = (181,306);
},
{
name = top;
pos = (177,521);
},
{
name = topright;
pos = (251,689);
}
);
background = {
shapes = (
{
closed = 0;
nodes = (
(383,115,l),
(349,128,l)
);
}
);
};
layerId = m002;
shapes = (
{
closed = 1;
nodes = (
(269,-11,o),
(308,2,o),
(338,35,cs),
(352,51,o),
(367,73,o),
(379,99,c),
(348,114,l),
(330,79,o),
(304,54,o),
(272,54,cs),
(238,54,o),
(226,71,o),
(226,117,cs),
(226,406,l),
(348,406,l),
(348,446,l),
(226,446,l),
(226,587,l),
(186,587,l),
(171,500,o),
(127,463,o),
(38,450,cs),
(10,446,l),
(10,406,l),
(86,406,l),
(86,127,ls),
(86,29,o),
(144,-11,o),
(228,-11,cs)
);
}
);
width = 379;
}
);
unicode = 116;
},
{
color = 4;
glyphname = u;
kernLeft = u;
kernRight = n;
layers = (
{
anchors = (
{
name = bottom;
pos = (237,0);
},
{
name = ogonek;
pos = (430,0);
},
{
name = top;
pos = (260,434);
}
);
guides = (
{
angle = 90;
pos = (395,301);
}
);
layerId = "9372F035-DA38-4B54-966C-CEBA9B53DD02";
shapes = (
{
closed = 1;
nodes = (
(303,-11,o),
(352,16,o),
(387,55,cs),
(406,76,o),
(420,101,o),
(432,128,c),
(408,133,l),
(384,78,o),
(334,21,o),
(261,21,cs),
(204,21,o),
(168,56,o),
(168,122,cs),
(168,434,l),
(133,433,l),
(10,436,l),
(10,413,l),
(26,411,ls),
(84,404,o),
(98,402,o),
(98,312,cs),
(98,118,ls),
(98,33,o),
(151,-11,o),
(238,-11,cs)
);
},
{
closed = 1;
nodes = (
(466,1,o),
(506,1,o),
(561,1,c),
(561,24,l),
(507,24,o),
(478,35,o),
(478,111,cs),
(478,434,l),
(443,433,l),
(320,436,l),
(320,413,l),
(336,411,ls),
(394,404,o),
(408,402,o),
(408,312,cs),
(408,-9,l)
);
}
);
width = 571;
},
{
anchors = (
{
name = bottom;
pos = (251,0);
},
{
name = ogonek;
pos = (444,0);
},
{
name = top;
pos = (274,434);
}
);
background = {
shapes = (
{
closed = 1;
nodes = (
(466,453,l),
(321,456,l),
(321,422,l),
(343,419,ls),
(373,415,o),
(381,401,o),
(381,329,cs),
(381,-5,l),
(454,5,o),
(518,7,o),
(592,7,c),
(592,41,l),
(581,42,ls),
(546,45,o),
(522,53,o),
(522,124,cs),
(522,456,l)
);
},
{
closed = 1;
nodes = (
(140,453,l),
(4,456,l),
(4,422,l),
(22,419,ls),
(66,412,o),
(74,397,o),
(74,329,cs),
(74,125,ls),
(74,41,o),
(131,-11,o),
(224,-11,cs),
(275,-11,o),
(323,9,o),
(361,44,cs),
(395,75,o),
(421,118,o),
(433,168,c),
(407,168,l),
(380,100,o),
(334,56,o),
(289,56,cs),
(237,56,o),
(215,81,o),
(215,139,cs),
(215,456,l)
);
}
);
};
guides = (
{
angle = 90;
pos = (399,301);
}
);
layerId = m002;
shapes = (
{
closed = 1;
nodes = (
(275,-14,o),
(323,6,o),
(361,41,cs),
(395,72,o),
(421,115,o),
(433,165,c),
(407,165,l),
(380,97,o),
(334,53,o),
(289,53,cs),
(236,53,o),
(214,78,o),
(214,136,cs),
(214,446,l),
(140,443,l),
(4,446,l),
(4,412,l),
(22,409,ls),
(66,402,o),
(74,387,o),
(74,319,cs),
(74,122,ls),
(74,38,o),
(131,-14,o),
(224,-14,cs)
);
},
{
closed = 1;
nodes = (
(455,-2,o),
(518,-3,o),
(592,-3,c),
(592,31,l),
(546,35,o),
(522,44,o),
(522,114,cs),
(522,446,l),
(466,443,l),
(321,446,l),
(321,412,l),
(343,409,ls),
(374,405,o),
(382,391,o),
(382,319,cs),
(382,-12,l)
);
}
);
width = 598;
}
);
metricRight = i;
note = u;
unicode = 117;
},
{
color = 4;
glyphname = v;
kernLeft = v;
kernRight = v;
layers = (
{
anchors = (
{
name = bottom;
pos = (261,0);
},
{
name = top;
pos = (271,436);
}
);
layerId = "9372F035-DA38-4B54-966C-CEBA9B53DD02";
shapes = (
{
closed = 1;
nodes = (
(267,0,l),
(411,336,ls),
(431,383,o),
(446,405,o),
(484,410,cs),
(507,413,l),
(507,436,l),
(423,433,l),
(333,436,l),
(333,413,l),
(350,411,ls),
(382,407,o),
(396,398,o),
(396,379,cs),
(396,370,o),
(393,359,o),
(387,346,cs),
(258,43,l),
(283,43,l),
(144,350,ls),
(139,362,o),
(136,372,o),
(136,380,cs),
(136,397,o),
(146,407,o),
(176,411,cs),
(192,413,l),
(192,436,l),
(90,433,l),
(-13,436,l),
(-13,413,l),
(5,411,ls),
(40,407,o),
(54,386,o),
(66,360,cs),
(229,0,l)
);
}
);
width = 507;
},
{
anchors = (
{
name = bottom;
pos = (274,0);
},
{
name = top;
pos = (284,436);
}
);
layerId = m002;
shapes = (
{
closed = 1;
nodes = (
(300,0,l),
(438,334,ls),
(458,382,o),
(469,409,o),
(495,411,cs),
(506,412,l),
(506,446,l),
(442,443,l),
(338,446,l),
(338,412,l),
(365,409,ls),
(395,406,o),
(407,397,o),
(407,378,cs),
(407,368,o),
(403,357,o),
(398,344,cs),
(277,45,l),
(311,79,l),
(205,348,ls),
(200,360,o),
(196,371,o),
(196,379,cs),
(196,396,o),
(203,406,o),
(227,409,cs),
(254,412,l),
(254,446,l),
(115,443,l),
(-14,446,l),
(-14,412,l),
(4,410,ls),
(29,407,o),
(37,383,o),
(47,358,cs),
(195,0,l)
);
}
);
width = 512;
}
);
unicode = 118;
},
{
color = 4;
glyphname = w;
kernLeft = v;
kernRight = v;
layers = (
{
anchors = (
{
name = bottom;
pos = (378,0);
},
{
name = top;
pos = (378,436);
}
);
background = {
shapes = (
{
closed = 1;
nodes = (
(247,0,l),
(391,336,ls),
(411,383,o),
(426,405,o),
(464,410,cs),
(487,413,l),
(487,436,l),
(403,433,l),
(313,436,l),
(313,413,l),
(330,411,ls),
(362,407,o),
(376,398,o),
(376,379,cs),
(376,370,o),
(373,359,o),
(367,346,cs),
(238,43,l),
(263,43,l),
(124,350,ls),
(119,362,o),
(116,372,o),
(116,380,cs),
(116,397,o),
(126,407,o),
(156,411,cs),
(172,413,l),
(172,436,l),
(70,433,l),
(-33,436,l),
(-33,413,l),
(-15,411,ls),
(20,407,o),
(34,386,o),
(46,360,cs),
(209,0,l)
);
}
);
};
layerId = "9372F035-DA38-4B54-966C-CEBA9B53DD02";
shapes = (
{
closed = 1;
nodes = (
(228,0,l),
(381,349,l),
(369,349,l),
(505,0,l),
(543,0,l),
(677,339,ls),
(691,373,o),
(705,405,o),
(752,411,cs),
(768,413,l),
(768,436,l),
(689,433,l),
(595,436,l),
(595,413,l),
(611,411,ls),
(644,407,o),
(660,397,o),
(660,375,cs),
(660,367,o),
(654,351,o),
(651,342,cs),
(535,49,l),
(558,49,l),
(443,344,ls),
(438,357,o),
(435,369,o),
(435,378,cs),
(435,396,o),
(445,410,o),
(469,412,cs),
(484,413,l),
(484,436,l),
(438,436,ls),
(411,436,o),
(368,425,o),
(371,390,c),
(381,390,l),
(374,421,o),
(349,436,o),
(319,436,cs),
(284,436,l),
(284,413,l),
(315,412,ls),
(342,411,o),
(356,396,o),
(356,369,cs),
(356,358,o),
(351,344,o),
(344,328,cs),
(220,48,l),
(244,47,l),
(136,346,ls),
(132,357,o),
(131,366,o),
(131,374,cs),
(131,397,o),
(147,409,o),
(181,412,cs),
(191,413,l),
(191,436,l),
(93,433,l),
(-13,436,l),
(-13,413,l),
(-2,412,ls),
(31,409,o),
(51,383,o),
(67,339,cs),
(190,0,l)
);
}
);
width = 768;
},
{
anchors = (
{
name = bottom;
pos = (400,0);
},
{
name = top;
pos = (400,436);
}
);
background = {
anchors = (
{
name = bottom;
pos = (388,0);
},
{
name = top;
pos = (388,436);
}
);
shapes = (
{
closed = 1;
nodes = (
(248,0,l),
(401,349,l),
(389,349,l),
(525,0,l),
(563,0,l),
(697,339,ls),
(711,373,o),
(725,405,o),
(772,411,cs),
(788,413,l),
(788,436,l),
(709,433,l),
(615,436,l),
(615,413,l),
(631,411,ls),
(664,407,o),
(680,397,o),
(680,375,cs),
(680,367,o),
(674,351,o),
(671,342,cs),
(555,49,l),
(578,49,l),
(463,344,ls),
(458,357,o),
(455,369,o),
(455,378,cs),
(455,396,o),
(465,410,o),
(489,412,cs),
(504,413,l),
(504,436,l),
(458,436,ls),
(431,436,o),
(388,425,o),
(391,390,c),
(399,393,l),
(390,419,o),
(369,436,o),
(339,436,cs),
(304,436,l),
(304,413,l),
(335,412,ls),
(362,411,o),
(376,396,o),
(376,369,cs),
(376,358,o),
(371,344,o),
(364,328,cs),
(240,48,l),
(264,47,l),
(156,346,ls),
(152,357,o),
(151,366,o),
(151,374,cs),
(151,397,o),
(167,409,o),
(201,412,cs),
(211,413,l),
(211,436,l),
(113,433,l),
(7,436,l),
(7,413,l),
(18,412,ls),
(51,409,o),
(71,383,o),
(87,339,cs),
(210,0,l)
);
}
);
};
layerId = m002;
shapes = (
{
closed = 1;
nodes = (
(290,0,l),
(402,291,l),
(393,291,l),
(505,0,l),
(610,0,l),
(738,334,ls),
(757,383,o),
(769,409,o),
(795,411,cs),
(806,412,l),
(806,446,l),
(742,443,l),
(638,446,l),
(638,412,l),
(665,411,ls),
(695,410,o),
(707,397,o),
(707,378,cs),
(707,368,o),
(703,357,o),
(698,344,cs),
(598,75,l),
(621,75,l),
(525,348,ls),
(521,360,o),
(516,371,o),
(516,383,cs),
(516,396,o),
(523,410,o),
(547,411,cs),
(574,412,l),
(574,446,l),
(477,446,ls),
(416,446,o),
(396,416,o),
(394,377,c),
(420,377,l),
(420,414,o),
(404,446,o),
(336,446,cs),
(308,446,l),
(308,412,l),
(320,412,ls),
(362,412,o),
(376,395,o),
(376,365,cs),
(376,346,o),
(370,322,o),
(359,293,cs),
(279,75,l),
(301,75,l),
(205,348,ls),
(201,360,o),
(196,371,o),
(196,379,cs),
(196,396,o),
(203,410,o),
(227,411,cs),
(254,412,l),
(254,446,l),
(115,443,l),
(-14,446,l),
(-14,412,l),
(4,410,ls),
(29,407,o),
(37,383,o),
(47,358,cs),
(185,0,l)
);
}
);
width = 812;
}
);
metricLeft = v;
metricRight = v;
unicode = 119;
},
{
color = 4;
glyphname = x;
kernLeft = x;
kernRight = x;
layers = (
{
layerId = "9372F035-DA38-4B54-966C-CEBA9B53DD02";
shapes = (
{
closed = 1;
nodes = (
(431,0,l),
(530,-2,l),
(530,20,l),
(519,22,ls),
(480,29,o),
(446,66,o),
(415,100,cs),
(188,350,ls),
(175,365,o),
(171,372,o),
(171,382,cs),
(171,401,o),
(203,408,o),
(212,410,cs),
(228,413,l),
(228,436,l),
(116,433,l),
(4,436,l),
(4,413,l),
(13,412,ls),
(41,409,o),
(57,394,o),
(89,359,cs),
(349,73,ls),
(359,62,o),
(362,52,o),
(362,45,cs),
(362,32,o),
(349,26,o),
(323,23,cs),
(307,21,l),
(307,-2,l)
);
},
{
closed = 1;
nodes = (
(97,0,l),
(191,-3,l),
(191,21,l),
(175,23,ls),
(150,26,o),
(140,38,o),
(140,52,cs),
(140,62,o),
(147,74,o),
(156,84,cs),
(249,191,l),
(233,208,l),
(142,105,ls),
(110,69,o),
(74,31,o),
(13,22,cs),
(0,20,l),
(0,-3,l)
);
},
{
closed = 1;
nodes = (
(379,329,ls),
(414,368,o),
(452,407,o),
(507,412,cs),
(518,413,l),
(518,436,l),
(442,433,l),
(326,436,l),
(326,413,l),
(332,412,ls),
(359,408,o),
(382,396,o),
(382,380,cs),
(382,371,o),
(378,361,o),
(368,350,cs),
(275,245,l),
(291,229,l)
);
}
);
width = 525;
},
{
layerId = m002;
shapes = (
{
closed = 1;
nodes = (
(425,0,l),
(564,-2,l),
(564,31,l),
(553,33,ls),
(530,37,o),
(498,65,o),
(460,112,cs),
(268,348,ls),
(256,363,o),
(249,375,o),
(249,385,cs),
(249,397,o),
(259,405,o),
(279,409,cs),
(298,412,l),
(298,446,l),
(151,443,l),
(6,446,l),
(6,412,l),
(15,411,ls),
(34,409,o),
(45,399,o),
(79,357,cs),
(293,98,ls),
(309,80,o),
(320,64,o),
(320,52,cs),
(320,43,o),
(312,36,o),
(292,34,cs),
(273,32,l),
(273,-2,l)
);
},
{
closed = 1;
nodes = (
(99,0,l),
(199,-3,l),
(199,32,l),
(183,34,ls),
(160,37,o),
(147,48,o),
(147,61,cs),
(147,72,o),
(153,85,o),
(167,99,cs),
(274,205,l),
(229,213,l),
(131,117,ls),
(96,82,o),
(68,49,o),
(17,35,cs),
(2,31,l),
(2,-3,l)
);
},
{
closed = 1;
nodes = (
(419,327,ls),
(457,365,o),
(494,399,o),
(531,409,cs),
(542,412,l),
(542,446,l),
(454,443,l),
(345,446,l),
(345,412,l),
(360,409,ls),
(379,405,o),
(403,394,o),
(403,380,cs),
(403,371,o),
(399,360,o),
(377,339,cs),
(285,251,l),
(323,232,l)
);
}
);
width = 566;
}
);
unicode = 120;
},
{
color = 4;
glyphname = y;
kernLeft = v;
kernRight = y;
layers = (
{
anchors = (
{
name = bottom;
pos = (277,0);
},
{
name = top;
pos = (275,436);
}
);
layerId = "9372F035-DA38-4B54-966C-CEBA9B53DD02";
shapes = (
{
closed = 1;
nodes = (
(121,-294,o),
(166,-232,o),
(198,-163,cs),
(424,330,ls),
(443,372,o),
(459,404,o),
(508,411,cs),
(523,413,l),
(523,436,l),
(443,433,l),
(347,436,l),
(347,413,l),
(363,411,ls),
(397,407,o),
(412,398,o),
(412,378,cs),
(412,368,o),
(408,355,o),
(401,339,cs),
(173,-152,ls),
(145,-211,o),
(119,-224,o),
(95,-224,cs),
(79,-224,o),
(67,-215,o),
(58,-208,cs),
(49,-201,o),
(39,-194,o),
(21,-194,cs),
(-8,-194,o),
(-30,-215,o),
(-30,-241,cs),
(-30,-268,o),
(-8,-294,o),
(38,-294,cs)
);
},
{
closed = 1;
nodes = (
(284,52,l),
(151,344,ls),
(144,359,o),
(140,371,o),
(140,380,cs),
(140,398,o),
(152,407,o),
(182,411,cs),
(196,413,l),
(196,436,l),
(95,433,l),
(-9,436,l),
(-9,413,l),
(14,410,ls),
(47,406,o),
(59,384,o),
(73,354,cs),
(246,-26,l)
);
}
);
width = 523;
},
{
anchors = (
{
name = bottom;
pos = (279,0);
},
{
name = top;
pos = (277,436);
}
);
layerId = m002;
shapes = (
{
closed = 1;
nodes = (
(118,-297,o),
(171,-266,o),
(221,-157,cs),
(446,334,ls),
(468,382,o),
(481,409,o),
(507,411,cs),
(519,412,l),
(519,446,l),
(456,443,l),
(351,446,l),
(351,412,l),
(377,409,ls),
(405,406,o),
(416,398,o),
(416,380,cs),
(416,370,o),
(412,358,o),
(406,344,cs),
(182,-146,ls),
(151,-213,o),
(124,-224,o),
(96,-224,cs),
(72,-224,o),
(64,-214,o),
(50,-196,cs),
(37,-180,o),
(20,-162,o),
(-15,-162,cs),
(-49,-162,o),
(-78,-185,o),
(-78,-222,cs),
(-78,-281,o),
(-14,-297,o),
(32,-297,cs)
);
},
{
closed = 1;
nodes = (
(327,109,l),
(222,348,ls),
(217,360,o),
(213,371,o),
(212,379,cs),
(212,396,o),
(218,406,o),
(242,409,cs),
(269,412,l),
(269,446,l),
(129,443,l),
(1,446,l),
(1,412,l),
(19,410,ls),
(44,407,o),
(53,383,o),
(64,358,cs),
(241,-36,l)
);
}
);
width = 525;
}
);
metricRight = v;
unicode = 121;
},
{
color = 4;
glyphname = z;
kernLeft = z;
kernRight = z;
layers = (
{
anchors = (
{
name = bottom;
pos = (243,0);
},
{
name = top;
pos = (243,436);
}
);
layerId = "9372F035-DA38-4B54-966C-CEBA9B53DD02";
shapes = (
{
closed = 1;
nodes = (
(413,0,l),
(414,53,l),
(426,158,l),
(403,158,l),
(388,43,o),
(321,25,o),
(232,25,cs),
(93,25,l),
(105,0,l),
(428,417,l),
(421,436,l),
(75,436,l),
(64,365,l),
(42,275,l),
(65,275,l),
(87,389,o),
(152,412,o),
(265,412,cs),
(376,412,l),
(349,426,l),
(35,20,l),
(42,0,l)
);
}
);
width = 466;
},
{
anchors = (
{
name = bottom;
pos = (252,0);
},
{
name = top;
pos = (252,436);
}
);
layerId = m002;
shapes = (
{
closed = 1;
nodes = (
(453,0,l),
(454,54,l),
(464,172,l),
(431,172,l),
(396,54,o),
(327,37,o),
(256,37,cs),
(105,37,l),
(177,11,l),
(461,416,l),
(453,446,l),
(66,446,l),
(55,373,l),
(32,271,l),
(65,271,l),
(108,388,o),
(174,410,o),
(270,410,cs),
(393,410,l),
(297,426,l),
(20,30,l),
(28,0,l)
);
}
);
width = 484;
}
);
unicode = 122;
},
{
color = 4;
glyphname = f_b.liga;
kernLeft = f;
kernRight = o;
layers = (
{
anchors = (
{
name = bottom;
pos = (576,0);
},
{
name = top;
pos = (576,436);
}
);
layerId = "9372F035-DA38-4B54-966C-CEBA9B53DD02";
shapes = (
{
closed = 1;
nodes = (
(724,-11,o),
(812,91,o),
(812,220,cs),
(812,351,o),
(724,454,o),
(602,454,cs),
(545,454,o),
(501,430,o),
(470,389,c),
(470,724,l),
(400,644,l),
(400,0,l),
(420,0,l),
(471,49,l),
(503,13,o),
(548,-11,o),
(602,-11,cs)
);
},
{
closed = 1;
nodes = (
(544,19,o),
(499,47,o),
(470,90,c),
(470,356,l),
(499,400,o),
(544,429,o),
(602,429,cs),
(688,429,o),
(732,339,o),
(732,220,cs),
(732,106,o),
(688,19,o),
(602,19,cs)
);
},
{
closed = 1;
nodes = (
(148,0,l),
(265,-3,l),
(265,20,l),
(249,22,ls),
(198,28,o),
(183,31,o),
(183,121,cs),
(183,411,l),
(275,411,l),
(275,436,l),
(183,436,l),
(183,485,ls),
(183,611,o),
(203,699,o),
(307,699,cs),
(351,699,o),
(400,677,o),
(400,594,c),
(470,724,l),
(460,724,l),
(406,694,l),
(384,712,o),
(347,724,o),
(308,724,cs),
(157,724,o),
(113,611,o),
(113,485,cs),
(113,436,l),
(27,436,l),
(27,411,l),
(113,411,l),
(113,121,ls),
(113,31,o),
(99,29,o),
(41,22,cs),
(25,20,l),
(25,-3,l)
);
}
);
width = 857;
},
{
anchors = (
{
name = bottom;
pos = (576,0);
},
{
name = top;
pos = (576,436);
}
);
layerId = m002;
shapes = (
{
closed = 1;
nodes = (
(813,-14,o),
(888,88,o),
(888,223,cs),
(888,358,o),
(813,460,o),
(684,460,cs),
(625,460,o),
(580,439,o),
(541,408,c),
(541,724,l),
(401,640,l),
(401,-11,l),
(426,-11,l),
(534,43,l),
(575,10,o),
(622,-14,o),
(684,-14,cs)
);
},
{
closed = 1;
nodes = (
(603,41,o),
(571,58,o),
(541,79,c),
(541,367,l),
(571,388,o),
(603,405,o),
(634,405,cs),
(709,405,o),
(738,326,o),
(738,223,cs),
(738,120,o),
(709,41,o),
(634,41,cs)
);
},
{
closed = 1;
nodes = (
(151,0,l),
(291,-3,l),
(291,31,l),
(273,34,ls),
(230,41,o),
(220,52,o),
(220,124,cs),
(220,406,l),
(341,406,l),
(341,446,l),
(221,446,l),
(221,540,ls),
(221,646,o),
(248,688,o),
(315,688,cs),
(374,688,o),
(401,657,o),
(401,600,c),
(541,724,l),
(521,724,l),
(425,696,l),
(398,712,o),
(358,724,o),
(313,724,cs),
(152,724,o),
(80,663,o),
(80,520,cs),
(80,446,l),
(10,446,l),
(10,406,l),
(80,406,l),
(80,124,ls),
(80,52,o),
(70,41,o),
(28,34,cs),
(10,31,l),
(10,-3,l)
);
}
);
width = 913;
}
);
metricLeft = f;
metricRight = b;
},
{
color = 4;
glyphname = f_f.liga;
kernLeft = f;
kernRight = f;
layers = (
{
layerId = "9372F035-DA38-4B54-966C-CEBA9B53DD02";
shapes = (
{
closed = 1;
nodes = (
(156,0,l),
(270,-3,l),
(270,20,l),
(254,22,ls),
(202,28,o),
(191,31,o),
(191,121,cs),
(191,411,l),
(346,411,l),
(346,436,l),
(191,436,l),
(191,470,ls),
(191,595,o),
(220,669,o),
(315,669,cs),
(401,669,o),
(426,590,o),
(434,527,c),
(466,635,l),
(439,680,o),
(364,693,o),
(323,693,cs),
(187,693,o),
(121,610,o),
(121,452,cs),
(121,436,l),
(25,436,l),
(25,411,l),
(121,411,l),
(121,121,ls),
(121,31,o),
(107,29,o),
(49,22,cs),
(33,20,l),
(33,-3,l)
);
},
{
alignment = -1;
pos = (295,0);
ref = f;
}
);
width = 634;
},
{
layerId = m002;
shapes = (
{
closed = 1;
nodes = (
(151,0,l),
(291,-3,l),
(291,31,l),
(273,34,ls),
(230,41,o),
(220,52,o),
(220,124,cs),
(220,406,l),
(341,406,l),
(341,446,l),
(221,446,l),
(221,510,ls),
(221,616,o),
(248,658,o),
(315,658,cs),
(374,658,o),
(403,617,o),
(418,511,c),
(464,629,l),
(455,656,o),
(392,694,o),
(313,694,cs),
(152,694,o),
(80,630,o),
(80,480,cs),
(80,446,l),
(10,446,l),
(10,406,l),
(80,406,l),
(80,124,ls),
(80,52,o),
(70,41,o),
(28,34,cs),
(10,31,l),
(10,-3,l)
);
},
{
alignment = -1;
pos = (305,0);
ref = f;
}
);
width = 684;
}
);
metricLeft = f;
metricRight = f;
},
{
color = 4;
glyphname = f_f_b.liga;
kernLeft = f;
kernRight = o;
layers = (
{
layerId = "9372F035-DA38-4B54-966C-CEBA9B53DD02";
shapes = (
{
closed = 1;
nodes = (
(156,0,l),
(270,-3,l),
(270,20,l),
(254,22,ls),
(202,28,o),
(191,31,o),
(191,121,cs),
(191,411,l),
(346,411,l),
(346,436,l),
(191,436,l),
(191,470,ls),
(191,595,o),
(220,669,o),
(315,669,cs),
(401,669,o),
(426,590,o),
(434,527,c),
(466,635,l),
(439,680,o),
(364,693,o),
(323,693,cs),
(187,693,o),
(121,610,o),
(121,452,cs),
(121,436,l),
(25,436,l),
(25,411,l),
(121,411,l),
(121,121,ls),
(121,31,o),
(107,29,o),
(49,22,cs),
(33,20,l),
(33,-3,l)
);
},
{
alignment = -1;
pos = (288,0);
ref = f_b.liga;
}
);
width = 1145;
},
{
layerId = m002;
shapes = (
{
closed = 1;
nodes = (
(151,0,l),
(291,-3,l),
(291,31,l),
(273,34,ls),
(230,41,o),
(220,52,o),
(220,124,cs),
(220,406,l),
(341,406,l),
(341,446,l),
(220,446,l),
(220,520,ls),
(220,626,o),
(247,668,o),
(315,668,cs),
(374,668,o),
(403,627,o),
(418,521,c),
(464,639,l),
(455,666,o),
(392,704,o),
(313,704,cs),
(152,704,o),
(80,640,o),
(80,490,cs),
(80,446,l),
(10,446,l),
(10,406,l),
(80,406,l),
(80,124,ls),
(80,52,o),
(70,41,o),
(28,34,cs),
(10,31,l),
(10,-3,l)
);
},
{
alignment = -1;
pos = (305,0);
ref = f_b.liga;
}
);
width = 1218;
}
);
metricLeft = f;
metricRight = b;
},
{
color = 4;
glyphname = f_f_h.liga;
kernLeft = f;
kernRight = n;
layers = (
{
layerId = "9372F035-DA38-4B54-966C-CEBA9B53DD02";
shapes = (
{
closed = 1;
nodes = (
(156,0,l),
(270,-3,l),
(270,20,l),
(254,22,ls),
(202,28,o),
(191,31,o),
(191,121,cs),
(191,411,l),
(346,411,l),
(346,436,l),
(191,436,l),
(191,470,ls),
(191,595,o),
(220,669,o),
(315,669,cs),
(401,669,o),
(426,590,o),
(434,527,c),
(466,635,l),
(439,680,o),
(364,693,o),
(323,693,cs),
(187,693,o),
(121,610,o),
(121,452,cs),
(121,436,l),
(25,436,l),
(25,411,l),
(121,411,l),
(121,121,ls),
(121,31,o),
(107,29,o),
(49,22,cs),
(33,20,l),
(33,-3,l)
);
},
{
alignment = -1;
pos = (283,0);
ref = f_h.liga;
}
);
width = 1162;
},
{
layerId = m002;
shapes = (
{
closed = 1;
nodes = (
(151,0,l),
(291,-3,l),
(291,31,l),
(273,34,ls),
(230,41,o),
(220,52,o),
(220,124,cs),
(220,406,l),
(341,406,l),
(341,446,l),
(220,446,l),
(220,520,ls),
(220,626,o),
(247,668,o),
(315,668,cs),
(374,668,o),
(403,627,o),
(418,521,c),
(464,639,l),
(455,666,o),
(392,704,o),
(313,704,cs),
(152,704,o),
(80,640,o),
(80,490,cs),
(80,446,l),
(10,446,l),
(10,406,l),
(80,406,l),
(80,124,ls),
(80,52,o),
(70,41,o),
(28,34,cs),
(10,31,l),
(10,-3,l)
);
},
{
alignment = -1;
pos = (305,0);
ref = f_h.liga;
}
);
width = 1230;
}
);
metricLeft = f;
metricRight = h;
},
{
color = 4;
glyphname = f_f_i.liga;
kernLeft = f;
kernRight = l;
layers = (
{
layerId = "9372F035-DA38-4B54-966C-CEBA9B53DD02";
shapes = (
{
closed = 1;
nodes = (
(156,0,l),
(270,-3,l),
(270,20,l),
(254,22,ls),
(202,28,o),
(191,31,o),
(191,121,cs),
(191,411,l),
(346,411,l),
(346,436,l),
(191,436,l),
(191,470,ls),
(191,595,o),
(220,669,o),
(315,669,cs),
(401,669,o),
(426,590,o),
(434,527,c),
(466,635,l),
(439,680,o),
(364,693,o),
(323,693,cs),
(187,693,o),
(121,610,o),
(121,452,cs),
(121,436,l),
(25,436,l),
(25,411,l),
(121,411,l),
(121,121,ls),
(121,31,o),
(107,29,o),
(49,22,cs),
(33,20,l),
(33,-3,l)
);
},
{
alignment = -1;
pos = (272,0);
ref = fi;
}
);
width = 839;
},
{
layerId = m002;
shapes = (
{
closed = 1;
nodes = (
(151,0,l),
(291,-3,l),
(291,31,l),
(273,34,ls),
(230,41,o),
(220,52,o),
(220,124,cs),
(220,406,l),
(341,406,l),
(341,446,l),
(220,446,l),
(220,520,ls),
(220,626,o),
(247,668,o),
(315,668,cs),
(374,668,o),
(403,627,o),
(418,521,c),
(464,639,l),
(455,666,o),
(392,704,o),
(313,704,cs),
(152,704,o),
(80,640,o),
(80,490,cs),
(80,446,l),
(10,446,l),
(10,406,l),
(80,406,l),
(80,124,ls),
(80,52,o),
(70,41,o),
(28,34,cs),
(10,31,l),
(10,-3,l)
);
},
{
alignment = -1;
pos = (305,0);
ref = fi;
}
);
width = 915;
}
);
metricLeft = f;
metricRight = i;
},
{
color = 4;
glyphname = f_f_j.liga;
kernLeft = f;
kernRight = l;
layers = (
{
layerId = "9372F035-DA38-4B54-966C-CEBA9B53DD02";
shapes = (
{
closed = 1;
nodes = (
(156,0,l),
(270,-3,l),
(270,20,l),
(254,22,ls),
(202,28,o),
(191,31,o),
(191,121,cs),
(191,411,l),
(346,411,l),
(346,436,l),
(191,436,l),
(191,470,ls),
(191,595,o),
(220,669,o),
(315,669,cs),
(401,669,o),
(426,590,o),
(434,527,c),
(466,635,l),
(439,680,o),
(364,693,o),
(323,693,cs),
(187,693,o),
(121,610,o),
(121,452,cs),
(121,436,l),
(25,436,l),
(25,411,l),
(121,411,l),
(121,121,ls),
(121,31,o),
(107,29,o),
(49,22,cs),
(33,20,l),
(33,-3,l)
);
},
{
alignment = -1;
pos = (280,0);
ref = f_j.liga;
}
);
width = 821;
},
{
layerId = m002;
shapes = (
{
closed = 1;
nodes = (
(151,0,l),
(291,-3,l),
(291,31,l),
(273,34,ls),
(230,41,o),
(220,52,o),
(220,124,cs),
(220,406,l),
(341,406,l),
(341,446,l),
(220,446,l),
(220,520,ls),
(220,626,o),
(247,668,o),
(315,668,cs),
(374,668,o),
(403,627,o),
(418,521,c),
(464,639,l),
(455,666,o),
(392,704,o),
(313,704,cs),
(152,704,o),
(80,640,o),
(80,490,cs),
(80,446,l),
(10,446,l),
(10,406,l),
(80,406,l),
(80,124,ls),
(80,52,o),
(70,41,o),
(28,34,cs),
(10,31,l),
(10,-3,l)
);
},
{
alignment = -1;
pos = (305,0);
ref = f_j.liga;
}
);
width = 886;
}
);
metricLeft = f;
metricRight = j;
},
{
color = 4;
glyphname = f_f_k.liga;
kernLeft = f;
kernRight = k;
layers = (
{
layerId = "9372F035-DA38-4B54-966C-CEBA9B53DD02";
shapes = (
{
closed = 1;
nodes = (
(156,0,l),
(270,-3,l),
(270,20,l),
(254,22,ls),
(202,28,o),
(191,31,o),
(191,121,cs),
(191,411,l),
(346,411,l),
(346,436,l),
(191,436,l),
(191,470,ls),
(191,595,o),
(220,669,o),
(315,669,cs),
(401,669,o),
(426,590,o),
(434,527,c),
(466,635,l),
(439,680,o),
(364,693,o),
(323,693,cs),
(187,693,o),
(121,610,o),
(121,452,cs),
(121,436,l),
(25,436,l),
(25,411,l),
(121,411,l),
(121,121,ls),
(121,31,o),
(107,29,o),
(49,22,cs),
(33,20,l),
(33,-3,l)
);
},
{
alignment = -1;
pos = (287,0);
ref = f_k.liga;
}
);
width = 1108;
},
{
layerId = m002;
shapes = (
{
closed = 1;
nodes = (
(151,0,l),
(291,-3,l),
(291,31,l),
(273,34,ls),
(230,41,o),
(220,52,o),
(220,124,cs),
(220,406,l),
(341,406,l),
(341,446,l),
(220,446,l),
(220,520,ls),
(220,626,o),
(247,668,o),
(315,668,cs),
(374,668,o),
(403,627,o),
(418,521,c),
(464,639,l),
(455,666,o),
(392,704,o),
(313,704,cs),
(152,704,o),
(80,640,o),
(80,490,cs),
(80,446,l),
(10,446,l),
(10,406,l),
(80,406,l),
(80,124,ls),
(80,52,o),
(70,41,o),
(28,34,cs),
(10,31,l),
(10,-3,l)
);
},
{
alignment = -1;
pos = (305,0);
ref = f_k.liga;
}
);
width = 1205;
}
);
metricLeft = f;
metricRight = k;
},
{
color = 4;
glyphname = f_f_l.liga;
kernLeft = f;
kernRight = l;
layers = (
{
layerId = "9372F035-DA38-4B54-966C-CEBA9B53DD02";
shapes = (
{
closed = 1;
nodes = (
(156,0,l),
(270,-3,l),
(270,20,l),
(254,22,ls),
(202,28,o),
(191,31,o),
(191,121,cs),
(191,411,l),
(346,411,l),
(346,436,l),
(191,436,l),
(191,470,ls),
(191,595,o),
(220,669,o),
(315,669,cs),
(401,669,o),
(426,590,o),
(434,527,c),
(466,635,l),
(439,680,o),
(364,693,o),
(323,693,cs),
(187,693,o),
(121,610,o),
(121,452,cs),
(121,436,l),
(25,436,l),
(25,411,l),
(121,411,l),
(121,121,ls),
(121,31,o),
(107,29,o),
(49,22,cs),
(33,20,l),
(33,-3,l)
);
},
{
alignment = -1;
pos = (283,0);
ref = fl;
}
);
width = 856;
},
{
layerId = m002;
shapes = (
{
closed = 1;
nodes = (
(151,0,l),
(291,-3,l),
(291,31,l),
(273,34,ls),
(230,41,o),
(220,52,o),
(220,124,cs),
(220,406,l),
(341,406,l),
(341,446,l),
(220,446,l),
(220,520,ls),
(220,626,o),
(247,668,o),
(315,668,cs),
(374,668,o),
(403,627,o),
(418,521,c),
(464,639,l),
(455,666,o),
(392,704,o),
(313,704,cs),
(152,704,o),
(80,640,o),
(80,490,cs),
(80,446,l),
(10,446,l),
(10,406,l),
(80,406,l),
(80,124,ls),
(80,52,o),
(70,41,o),
(28,34,cs),
(10,31,l),
(10,-3,l)
);
},
{
alignment = -1;
pos = (305,0);
ref = fl;
}
);
width = 922;
}
);
metricLeft = f;
metricRight = l;
},
{
color = 4;
glyphname = f_h.liga;
kernLeft = f;
kernRight = n;
layers = (
{
layerId = "9372F035-DA38-4B54-966C-CEBA9B53DD02";
shapes = (
{
closed = 1;
nodes = (
(148,0,l),
(265,-3,l),
(265,20,l),
(249,22,ls),
(198,28,o),
(183,31,o),
(183,121,cs),
(183,411,l),
(275,411,l),
(275,436,l),
(183,436,l),
(183,485,ls),
(183,611,o),
(203,699,o),
(307,699,cs),
(351,699,o),
(400,677,o),
(400,594,c),
(470,724,l),
(460,724,l),
(406,694,l),
(384,712,o),
(347,724,o),
(308,724,cs),
(157,724,o),
(113,611,o),
(113,485,cs),
(113,436,l),
(27,436,l),
(27,411,l),
(113,411,l),
(113,121,ls),
(113,31,o),
(99,29,o),
(41,22,cs),
(25,20,l),
(25,-3,l)
);
},
{
closed = 1;
nodes = (
(433,0,l),
(558,-3,l),
(558,20,l),
(542,22,ls),
(484,29,o),
(470,31,o),
(470,121,cs),
(470,724,l),
(400,640,l),
(400,121,ls),
(400,31,o),
(387,29,o),
(333,22,cs),
(318,20,l),
(318,-3,l)
);
},
{
closed = 1;
nodes = (
(745,0,l),
(868,-3,l),
(868,20,l),
(852,22,ls),
(794,29,o),
(780,31,o),
(780,121,cs),
(780,321,ls),
(780,406,o),
(724,454,o),
(633,454,cs),
(529,454,o),
(458,373,o),
(447,315,c),
(468,315,l),
(483,360,o),
(535,424,o),
(611,424,cs),
(674,424,o),
(710,388,o),
(710,321,cs),
(710,121,ls),
(710,31,o),
(696,29,o),
(638,22,cs),
(622,20,l),
(622,-3,l)
);
}
);
width = 879;
},
{
layerId = m002;
shapes = (
{
closed = 1;
nodes = (
(151,0,l),
(291,-3,l),
(291,31,l),
(273,34,ls),
(230,41,o),
(220,52,o),
(220,124,cs),
(220,406,l),
(341,406,l),
(341,446,l),
(220,446,l),
(220,540,ls),
(220,646,o),
(247,688,o),
(315,688,cs),
(375,688,o),
(401,657,o),
(401,600,c),
(541,724,l),
(521,724,l),
(425,696,l),
(398,712,o),
(358,724,o),
(313,724,cs),
(152,724,o),
(80,663,o),
(80,520,cs),
(80,446,l),
(10,446,l),
(10,406,l),
(80,406,l),
(80,124,ls),
(80,52,o),
(70,41,o),
(28,34,cs),
(10,31,l),
(10,-3,l)
);
},
{
closed = 1;
nodes = (
(456,0,l),
(595,-3,l),
(595,31,l),
(573,34,ls),
(548,37,o),
(541,52,o),
(541,124,cs),
(541,724,l),
(401,647,l),
(401,124,ls),
(401,52,o),
(391,41,o),
(348,34,cs),
(330,31,l),
(330,-3,l)
);
},
{
closed = 1;
nodes = (
(785,0,l),
(921,-3,l),
(921,31,l),
(903,34,ls),
(859,41,o),
(851,56,o),
(851,124,cs),
(851,324,ls),
(851,408,o),
(794,460,o),
(701,460,cs),
(603,460,o),
(517,386,o),
(492,281,c),
(518,281,l),
(545,349,o),
(591,393,o),
(636,393,cs),
(689,393,o),
(711,368,o),
(711,310,cs),
(711,124,ls),
(711,65,o),
(700,38,o),
(668,34,cs),
(646,31,l),
(646,-3,l)
);
}
);
width = 925;
}
);
metricLeft = f;
metricRight = h;
},
{
color = 4;
glyphname = f_j.liga;
kernLeft = f;
kernRight = l;
layers = (
{
layerId = "9372F035-DA38-4B54-966C-CEBA9B53DD02";
shapes = (
{
closed = 1;
nodes = (
(156,0,l),
(265,-3,l),
(265,20,l),
(249,22,ls),
(202,29,o),
(191,31,o),
(191,121,cs),
(191,411,l),
(348,411,l),
(348,436,l),
(191,436,l),
(191,499,ls),
(191,599,o),
(205,699,o),
(311,699,cs),
(359,699,o),
(396,666,o),
(396,636,cs),
(396,617,o),
(377,615,o),
(377,591,cs),
(377,567,o),
(397,551,o),
(421,551,cs),
(451,551,o),
(470,573,o),
(470,607,cs),
(470,687,o),
(385,724,o),
(311,724,cs),
(159,724,o),
(121,617,o),
(121,504,cs),
(121,436,l),
(25,436,l),
(25,411,l),
(121,411,l),
(121,121,ls),
(121,31,o),
(107,29,o),
(49,22,cs),
(33,20,l),
(33,-3,l)
);
},
{
closed = 1;
nodes = (
(409,-294,o),
(467,-237,o),
(467,-152,cs),
(467,451,l),
(412,441,o),
(364,436,o),
(309,436,c),
(309,413,l),
(363,413,o),
(397,407,o),
(397,335,cs),
(397,-152,ls),
(397,-205,o),
(392,-273,o),
(347,-273,cs),
(332,-273,o),
(319,-264,o),
(319,-246,cs),
(319,-240,o),
(320,-235,o),
(323,-226,cs),
(325,-220,o),
(327,-213,o),
(327,-207,cs),
(327,-189,o),
(314,-167,o),
(284,-167,cs),
(249,-167,o),
(231,-193,o),
(231,-223,cs),
(231,-266,o),
(267,-294,o),
(330,-294,cs)
);
}
);
width = 541;
},
{
layerId = m002;
shapes = (
{
closed = 1;
nodes = (
(151,0,l),
(291,-3,l),
(291,31,l),
(273,34,ls),
(230,41,o),
(220,52,o),
(220,124,cs),
(220,406,l),
(341,406,l),
(341,446,l),
(220,446,l),
(220,550,ls),
(220,626,o),
(253,684,o),
(334,684,cs),
(356,684,o),
(387,677,o),
(388,658,cs),
(388,638,o),
(375,624,o),
(375,602,cs),
(375,569,o),
(402,544,o),
(450,544,cs),
(496,544,o),
(522,572,o),
(522,613,cs),
(522,682,o),
(452,724,o),
(324,724,cs),
(183,724,o),
(80,666,o),
(80,530,cs),
(80,446,l),
(10,446,l),
(10,406,l),
(80,406,l),
(80,124,ls),
(80,52,o),
(70,41,o),
(28,34,cs),
(10,31,l),
(10,-3,l)
);
},
{
closed = 1;
nodes = (
(473,-297,o),
(539,-239,o),
(539,-103,cs),
(539,459,l),
(465,449,o),
(402,446,o),
(328,446,c),
(328,406,l),
(375,406,o),
(399,394,o),
(399,323,cs),
(399,-123,ls),
(399,-199,o),
(393,-261,o),
(351,-261,cs),
(331,-261,o),
(319,-254,o),
(319,-237,cs),
(319,-230,o),
(321,-222,o),
(324,-213,cs),
(326,-204,o),
(330,-194,o),
(330,-184,cs),
(330,-153,o),
(305,-130,o),
(260,-130,cs),
(217,-130,o),
(192,-156,o),
(192,-194,cs),
(192,-259,o),
(252,-297,o),
(346,-297,cs)
);
}
);
width = 581;
}
);
metricLeft = f;
metricRight = j;
},
{
color = 4;
glyphname = f_k.liga;
kernLeft = f;
kernRight = k;
layers = (
{
layerId = "9372F035-DA38-4B54-966C-CEBA9B53DD02";
shapes = (
{
closed = 1;
nodes = (
(435,0,l),
(558,-3,l),
(558,20,l),
(542,22,ls),
(484,29,o),
(470,31,o),
(470,121,cs),
(470,154,l),
(520,214,l),
(710,0,l),
(821,-3,l),
(821,20,l),
(805,22,ls),
(781,25,o),
(756,53,o),
(736,76,cs),
(565,268,l),
(621,335,ls),
(655,375,o),
(695,405,o),
(755,413,cs),
(771,415,l),
(771,438,l),
(687,436,l),
(591,438,l),
(591,415,l),
(607,413,ls),
(624,411,o),
(631,405,o),
(631,395,cs),
(631,388,o),
(627,378,o),
(618,367,cs),
(470,188,l),
(470,724,l),
(400,644,l),
(400,121,ls),
(400,31,o),
(386,29,o),
(328,22,cs),
(312,20,l),
(312,-3,l)
);
},
{
closed = 1;
nodes = (
(148,0,l),
(265,-3,l),
(265,20,l),
(249,22,ls),
(198,28,o),
(183,31,o),
(183,121,cs),
(183,411,l),
(275,411,l),
(275,436,l),
(183,436,l),
(183,485,ls),
(183,611,o),
(203,699,o),
(307,699,cs),
(351,699,o),
(400,677,o),
(400,594,c),
(470,724,l),
(460,724,l),
(406,694,l),
(384,712,o),
(347,724,o),
(308,724,cs),
(157,724,o),
(113,611,o),
(113,485,cs),
(113,436,l),
(27,436,l),
(27,411,l),
(113,411,l),
(113,121,ls),
(113,31,o),
(99,29,o),
(41,22,cs),
(25,20,l),
(25,-3,l)
);
}
);
width = 821;
},
{
layerId = m002;
shapes = (
{
closed = 1;
nodes = (
(471,0,l),
(611,-3,l),
(611,31,l),
(593,34,ls),
(551,41,o),
(541,52,o),
(541,124,cs),
(541,179,l),
(569,208,l),
(716,0,l),
(896,-3,l),
(896,31,l),
(884,33,ls),
(867,36,o),
(853,51,o),
(826,88,cs),
(667,308,l),
(691,333,ls),
(728,371,o),
(764,404,o),
(830,412,cs),
(847,414,l),
(847,448,l),
(753,446,l),
(635,448,l),
(635,414,l),
(653,413,ls),
(673,412,o),
(680,405,o),
(680,395,cs),
(680,388,o),
(676,378,o),
(665,366,cs),
(541,237,l),
(541,724,l),
(401,680,l),
(401,124,ls),
(401,52,o),
(391,41,o),
(348,34,cs),
(330,31,l),
(330,-3,l)
);
},
{
closed = 1;
nodes = (
(151,0,l),
(291,-3,l),
(291,31,l),
(273,34,ls),
(230,41,o),
(220,52,o),
(220,124,cs),
(220,406,l),
(341,406,l),
(341,446,l),
(220,446,l),
(220,540,ls),
(220,646,o),
(247,688,o),
(315,688,cs),
(375,688,o),
(401,657,o),
(401,600,c),
(541,724,l),
(521,724,l),
(425,696,l),
(398,712,o),
(358,724,o),
(313,724,cs),
(152,724,o),
(80,663,o),
(80,520,cs),
(80,446,l),
(10,446,l),
(10,406,l),
(80,406,l),
(80,124,ls),
(80,52,o),
(70,41,o),
(28,34,cs),
(10,31,l),
(10,-3,l)
);
}
);
width = 900;
}
);
metricLeft = f;
metricRight = k;
},
{
color = 4;
glyphname = fi;
kernLeft = f;
kernRight = l;
layers = (
{
anchors = (
{
name = bottom_1;
pos = (432,0);
},
{
name = ogonek_1;
pos = (455,0);
},
{
name = top_1;
pos = (425,436);
}
);
hints = (
{
horizontal = 1;
place = (-3, 24);
place = (-3, 24);
type = Stem;
},
{
origin = (1,9);
target = (1,6);
type = Stem;
}
);
layerId = "9372F035-DA38-4B54-966C-CEBA9B53DD02";
shapes = (
{
closed = 1;
nodes = (
(156,0,l),
(265,-3,l),
(265,20,l),
(249,22,ls),
(202,29,o),
(191,31,o),
(191,121,cs),
(191,411,l),
(348,411,l),
(348,436,l),
(191,436,l),
(191,499,ls),
(191,599,o),
(205,699,o),
(311,699,cs),
(359,699,o),
(396,666,o),
(396,636,cs),
(396,617,o),
(377,615,o),
(377,591,cs),
(377,567,o),
(397,551,o),
(421,551,cs),
(451,551,o),
(470,573,o),
(470,607,cs),
(470,687,o),
(385,724,o),
(311,724,cs),
(159,724,o),
(121,617,o),
(121,504,cs),
(121,436,l),
(25,436,l),
(25,411,l),
(121,411,l),
(121,121,ls),
(121,31,o),
(107,29,o),
(49,22,cs),
(33,20,l),
(33,-3,l)
);
},
{
closed = 1;
nodes = (
(434,0,l),
(557,-3,l),
(557,20,l),
(541,22,ls),
(483,29,o),
(469,31,o),
(469,121,cs),
(469,375,l),
(399,375,l),
(399,121,ls),
(399,31,o),
(385,29,o),
(327,22,cs),
(311,20,l),
(311,-3,l)
);
},
{
closed = 1;
nodes = (
(469,347,l),
(469,448,l),
(414,438,o),
(366,436,o),
(311,436,c),
(311,411,l),
(318,411,ls),
(368,411,o),
(399,399,o),
(399,332,c)
);
}
);
width = 567;
},
{
anchors = (
{
name = bottom_1;
pos = (462,0);
},
{
name = ogonek_1;
pos = (485,0);
},
{
name = top_1;
pos = (455,436);
}
);
background = {
shapes = (
{
alignment = -1;
pos = (313,0);
ref = idotless;
},
{
pos = (318,0);
ref = dotaccentcomb;
}
);
};
hints = (
{
horizontal = 1;
place = (-3, 24);
place = (-3, 24);
type = Stem;
},
{
origin = (1,9);
target = (2,0);
type = Stem;
}
);
layerId = m002;
shapes = (
{
closed = 1;
nodes = (
(151,0,l),
(291,-3,l),
(291,31,l),
(273,34,ls),
(230,41,o),
(220,52,o),
(220,124,cs),
(220,406,l),
(341,406,l),
(341,446,l),
(220,446,l),
(220,550,ls),
(220,626,o),
(253,684,o),
(334,684,cs),
(356,684,o),
(387,677,o),
(388,658,cs),
(388,638,o),
(375,624,o),
(375,602,cs),
(375,569,o),
(402,544,o),
(450,544,cs),
(496,544,o),
(522,572,o),
(522,613,cs),
(522,682,o),
(452,724,o),
(324,724,cs),
(183,724,o),
(80,666,o),
(80,530,cs),
(80,446,l),
(10,446,l),
(10,406,l),
(80,406,l),
(80,124,ls),
(80,52,o),
(70,41,o),
(28,34,cs),
(10,31,l),
(10,-3,l)
);
},
{
closed = 1;
nodes = (
(464,0,l),
(604,-3,l),
(604,31,l),
(586,34,ls),
(544,41,o),
(534,52,o),
(534,124,cs),
(534,383,l),
(394,373,l),
(394,124,ls),
(394,52,o),
(383,41,o),
(341,34,cs),
(323,31,l),
(323,-3,l)
);
},
{
closed = 1;
nodes = (
(534,355,l),
(534,458,l),
(460,448,o),
(397,446,o),
(323,446,c),
(323,406,l),
(334,406,ls),
(369,406,o),
(394,400,o),
(394,329,c)
);
}
);
width = 610;
}
);
metricLeft = f;
metricRight = i;
unicode = 64257;
},
{
color = 4;
glyphname = fl;
kernLeft = f;
kernRight = l;
layers = (
{
layerId = "9372F035-DA38-4B54-966C-CEBA9B53DD02";
shapes = (
{
closed = 1;
nodes = (
(148,0,l),
(265,-3,l),
(265,20,l),
(249,22,ls),
(198,28,o),
(183,31,o),
(183,121,cs),
(183,411,l),
(275,411,l),
(275,436,l),
(183,436,l),
(183,485,ls),
(183,611,o),
(203,699,o),
(307,699,cs),
(351,699,o),
(400,677,o),
(400,594,cs),
(400,121,ls),
(400,31,o),
(386,28,o),
(340,22,cs),
(324,20,l),
(324,-3,l),
(435,0,l),
(558,-3,l),
(558,20,l),
(542,22,ls),
(484,29,o),
(470,31,o),
(470,121,cs),
(470,724,l),
(460,724,l),
(406,694,l),
(384,712,o),
(347,724,o),
(308,724,cs),
(157,724,o),
(113,611,o),
(113,485,cs),
(113,436,l),
(27,436,l),
(27,411,l),
(113,411,l),
(113,121,ls),
(113,31,o),
(99,29,o),
(41,22,cs),
(25,20,l),
(25,-3,l)
);
}
);
width = 573;
},
{
layerId = m002;
shapes = (
{
closed = 1;
nodes = (
(151,0,l),
(291,-3,l),
(291,31,l),
(273,34,ls),
(230,41,o),
(220,52,o),
(220,124,cs),
(220,406,l),
(341,406,l),
(341,446,l),
(220,446,l),
(220,540,ls),
(220,646,o),
(247,688,o),
(315,688,cs),
(375,688,o),
(401,657,o),
(401,600,cs),
(401,124,ls),
(401,52,o),
(391,41,o),
(348,34,cs),
(330,31,l),
(330,-3,l),
(471,0,l),
(611,-3,l),
(611,31,l),
(593,34,ls),
(551,41,o),
(541,52,o),
(541,124,cs),
(541,724,l),
(521,724,l),
(425,696,l),
(398,712,o),
(358,724,o),
(313,724,cs),
(152,724,o),
(80,663,o),
(80,520,cs),
(80,446,l),
(10,446,l),
(10,406,l),
(80,406,l),
(80,124,ls),
(80,52,o),
(70,41,o),
(28,34,cs),
(10,31,l),
(10,-3,l)
);
}
);
width = 617;
}
);
metricLeft = f;
metricRight = l;
unicode = 64258;
},
{
glyphname = w_w_w;
layers = (
{
layerId = "9372F035-DA38-4B54-966C-CEBA9B53DD02";
shapes = (
{
closed = 1;
nodes = (
(228,0,l),
(381,349,l),
(369,349,l),
(505,0,l),
(543,0,l),
(696,349,l),
(684,349,l),
(820,0,l),
(858,0,l),
(1011,349,l),
(999,349,l),
(1135,0,l),
(1173,0,l),
(1326,349,l),
(1314,349,l),
(1450,0,l),
(1488,0,l),
(1641,349,l),
(1629,349,l),
(1765,0,l),
(1803,0,l),
(1937,339,ls),
(1951,373,o),
(1965,405,o),
(2012,411,cs),
(2028,413,l),
(2028,436,l),
(1949,433,l),
(1855,436,l),
(1855,413,l),
(1871,411,ls),
(1904,407,o),
(1920,397,o),
(1920,375,cs),
(1920,367,o),
(1914,351,o),
(1911,342,cs),
(1795,49,l),
(1818,49,l),
(1703,344,ls),
(1698,357,o),
(1695,369,o),
(1695,378,cs),
(1695,396,o),
(1705,410,o),
(1729,412,cs),
(1744,413,l),
(1744,436,l),
(1698,436,ls),
(1671,436,o),
(1628,425,o),
(1631,390,c),
(1641,390,l),
(1634,421,o),
(1609,436,o),
(1579,436,cs),
(1544,436,l),
(1544,413,l),
(1575,412,ls),
(1602,411,o),
(1616,396,o),
(1616,369,cs),
(1616,358,o),
(1611,344,o),
(1604,328,cs),
(1480,48,l),
(1503,49,l),
(1388,345,ls),
(1383,358,o),
(1380,370,o),
(1380,379,cs),
(1380,397,o),
(1390,411,o),
(1414,413,cs),
(1429,414,l),
(1429,437,l),
(1383,437,ls),
(1356,437,o),
(1313,426,o),
(1316,391,c),
(1326,391,l),
(1319,422,o),
(1294,437,o),
(1264,437,cs),
(1229,437,l),
(1229,414,l),
(1260,413,ls),
(1287,412,o),
(1301,397,o),
(1301,370,cs),
(1301,359,o),
(1296,345,o),
(1289,329,cs),
(1165,49,l),
(1188,49,l),
(1073,344,ls),
(1068,357,o),
(1065,369,o),
(1065,378,cs),
(1065,396,o),
(1075,410,o),
(1099,412,cs),
(1114,413,l),
(1114,436,l),
(1068,436,ls),
(1041,436,o),
(998,425,o),
(1001,390,c),
(1011,390,l),
(1004,421,o),
(979,436,o),
(949,436,cs),
(914,436,l),
(914,413,l),
(945,412,ls),
(972,411,o),
(986,396,o),
(986,369,cs),
(986,358,o),
(981,344,o),
(974,328,cs),
(850,48,l),
(873,49,l),
(758,344,ls),
(753,357,o),
(750,369,o),
(750,378,cs),
(750,396,o),
(760,410,o),
(784,412,cs),
(799,413,l),
(799,436,l),
(753,436,ls),
(726,436,o),
(683,425,o),
(686,390,c),
(696,390,l),
(689,421,o),
(664,436,o),
(634,436,cs),
(599,436,l),
(599,413,l),
(630,412,ls),
(657,411,o),
(671,396,o),
(671,369,cs),
(671,358,o),
(666,344,o),
(659,328,cs),
(535,48,l),
(558,49,l),
(443,344,ls),
(438,357,o),
(435,369,o),
(435,378,cs),
(435,396,o),
(445,410,o),
(469,412,cs),
(484,413,l),
(484,436,l),
(438,436,ls),
(411,436,o),
(368,425,o),
(371,390,c),
(381,390,l),
(374,421,o),
(349,436,o),
(319,436,cs),
(284,436,l),
(284,413,l),
(315,412,ls),
(342,411,o),
(356,396,o),
(356,369,cs),
(356,358,o),
(351,344,o),
(344,328,cs),
(220,48,l),
(244,47,l),
(136,346,ls),
(132,357,o),
(131,366,o),
(131,374,cs),
(131,397,o),
(147,409,o),
(181,412,cs),
(191,413,l),
(191,436,l),
(93,433,l),
(-13,436,l),
(-13,413,l),
(-2,412,ls),
(31,409,o),
(51,383,o),
(67,339,cs),
(190,0,l)
);
}
);
width = 2028;
},
{
layerId = m002;
shapes = (
{
closed = 1;
nodes = (
(290,0,l),
(402,291,l),
(393,291,l),
(505,0,l),
(610,0,l),
(738,334,l),
(706,306,l),
(824,0,l),
(929,0,l),
(1041,291,l),
(1032,291,l),
(1144,0,l),
(1249,0,l),
(1377,334,l),
(1342,315,l),
(1463,0,l),
(1568,0,l),
(1680,291,l),
(1671,291,l),
(1783,0,l),
(1888,0,l),
(2016,334,ls),
(2035,383,o),
(2047,409,o),
(2073,411,cs),
(2084,412,l),
(2084,446,l),
(2020,443,l),
(1916,446,l),
(1916,412,l),
(1943,411,ls),
(1973,410,o),
(1985,397,o),
(1985,378,cs),
(1985,368,o),
(1981,357,o),
(1976,344,cs),
(1876,75,l),
(1899,75,l),
(1803,348,ls),
(1799,360,o),
(1794,371,o),
(1794,383,cs),
(1794,396,o),
(1801,410,o),
(1825,411,cs),
(1852,412,l),
(1852,446,l),
(1755,446,ls),
(1694,446,o),
(1674,416,o),
(1672,377,c),
(1698,377,l),
(1698,414,o),
(1682,446,o),
(1614,446,cs),
(1586,446,l),
(1586,412,l),
(1598,412,ls),
(1640,412,o),
(1654,395,o),
(1654,365,cs),
(1654,346,o),
(1648,322,o),
(1637,293,cs),
(1557,75,l),
(1579,75,l),
(1483,348,ls),
(1479,360,o),
(1474,371,o),
(1474,379,cs),
(1474,396,o),
(1481,410,o),
(1505,411,cs),
(1532,412,l),
(1532,446,l),
(1435,446,ls),
(1374,446,o),
(1354,416,o),
(1352,377,c),
(1378,377,l),
(1378,414,o),
(1362,446,o),
(1294,446,cs),
(1266,446,l),
(1266,412,l),
(1278,412,ls),
(1320,412,o),
(1334,395,o),
(1334,365,cs),
(1334,346,o),
(1328,322,o),
(1317,293,cs),
(1237,75,l),
(1260,75,l),
(1164,348,ls),
(1160,360,o),
(1155,371,o),
(1155,383,cs),
(1155,396,o),
(1162,410,o),
(1186,411,cs),
(1213,412,l),
(1213,446,l),
(1116,446,ls),
(1055,446,o),
(1035,416,o),
(1033,377,c),
(1059,377,l),
(1059,414,o),
(1043,446,o),
(975,446,cs),
(947,446,l),
(947,412,l),
(959,412,ls),
(1001,412,o),
(1015,395,o),
(1015,365,cs),
(1015,346,o),
(1009,322,o),
(998,293,cs),
(918,75,l),
(940,75,l),
(844,348,ls),
(840,360,o),
(835,371,o),
(835,379,cs),
(835,396,o),
(842,410,o),
(866,411,cs),
(893,412,l),
(893,446,l),
(796,446,ls),
(735,446,o),
(715,416,o),
(713,377,c),
(739,377,l),
(739,414,o),
(723,446,o),
(655,446,cs),
(627,446,l),
(627,412,l),
(639,412,ls),
(681,412,o),
(695,395,o),
(695,365,cs),
(695,346,o),
(689,322,o),
(678,293,cs),
(598,75,l),
(621,75,l),
(525,348,ls),
(521,360,o),
(516,371,o),
(516,383,cs),
(516,396,o),
(523,410,o),
(547,411,cs),
(574,412,l),
(574,446,l),
(477,446,ls),
(416,446,o),
(396,416,o),
(394,377,c),
(420,377,l),
(420,414,o),
(404,446,o),
(336,446,cs),
(308,446,l),
(308,412,l),
(320,412,ls),
(362,412,o),
(376,395,o),
(376,365,cs),
(376,346,o),
(370,322,o),
(359,293,cs),
(279,75,l),
(301,75,l),
(205,348,ls),
(201,360,o),
(196,371,o),
(196,379,cs),
(196,396,o),
(203,410,o),
(227,411,cs),
(254,412,l),
(254,446,l),
(115,443,l),
(-14,446,l),
(-14,412,l),
(4,410,ls),
(29,407,o),
(37,383,o),
(47,358,cs),
(185,0,l)
);
}
);
width = 2090;
}
);
metricLeft = w;
metricRight = w;
},
{
color = 6;
glyphname = Fhook.sc;
kernLeft = H;
kernRight = F;
layers = (
{
anchors = (
{
name = bottom;
pos = (225,0);
},
{
name = top;
pos = (337,710);
}
);
layerId = "9372F035-DA38-4B54-966C-CEBA9B53DD02";
shapes = (
{
closed = 1;
nodes = (
(129,-207,o),
(187,-150,o),
(187,-65,cs),
(187,223,l),
(262,223,ls),
(291,223,o),
(308,199,o),
(308,134,c),
(329,134,l),
(326,236,l),
(329,326,l),
(308,326,l),
(305,263,o),
(289,247,o),
(265,247,cs),
(187,247,l),
(187,430,l),
(275,430,ls),
(366,430,o),
(377,404,o),
(397,343,c),
(418,343,l),
(411,455,l),
(147,455,l),
(30,458,l),
(30,435,l),
(46,433,ls),
(104,426,o),
(117,424,o),
(117,334,cs),
(117,-65,ls),
(117,-118,o),
(112,-186,o),
(67,-186,cs),
(52,-186,o),
(39,-177,o),
(39,-159,cs),
(39,-145,o),
(47,-134,o),
(47,-120,cs),
(47,-102,o),
(34,-80,o),
(4,-80,cs),
(-31,-80,o),
(-49,-106,o),
(-49,-136,cs),
(-49,-179,o),
(-13,-207,o),
(50,-207,cs)
);
}
);
width = 452;
},
{
anchors = (
{
name = bottom;
pos = (225,0);
},
{
name = top;
pos = (337,710);
}
);
background = {
shapes = (
{
closed = 1;
nodes = (
(129,-294,o),
(187,-237,o),
(187,-152,cs),
(187,223,l),
(262,223,ls),
(291,223,o),
(308,199,o),
(308,134,c),
(329,134,l),
(326,236,l),
(329,326,l),
(308,326,l),
(305,263,o),
(289,247,o),
(265,247,cs),
(187,247,l),
(187,430,l),
(275,430,ls),
(366,430,o),
(377,404,o),
(397,343,c),
(418,343,l),
(411,455,l),
(147,455,l),
(30,458,l),
(30,435,l),
(46,433,ls),
(104,426,o),
(117,424,o),
(117,334,cs),
(117,-152,ls),
(117,-205,o),
(112,-273,o),
(67,-273,cs),
(52,-273,o),
(39,-264,o),
(39,-246,cs),
(39,-240,o),
(40,-235,o),
(43,-226,cs),
(45,-220,o),
(47,-213,o),
(47,-207,cs),
(47,-189,o),
(34,-167,o),
(4,-167,cs),
(-31,-167,o),
(-49,-193,o),
(-49,-223,cs),
(-49,-266,o),
(-13,-294,o),
(50,-294,cs)
);
}
);
};
layerId = m002;
shapes = (
{
closed = 1;
nodes = (
(162,-207,o),
(226,-149,o),
(227,-11,cs),
(228,214,l),
(266,214,ls),
(312,214,o),
(327,193,o),
(333,134,c),
(367,134,l),
(364,234,l),
(367,326,l),
(333,326,l),
(324,270,o),
(309,254,o),
(269,254,cs),
(228,254,l),
(228,419,l),
(284,419,ls),
(380,419,o),
(391,390,o),
(412,323,c),
(448,323,l),
(439,455,l),
(163,455,l),
(19,458,l),
(19,425,l),
(35,423,ls),
(77,418,o),
(87,415,o),
(87,334,c),
(87,-31,ls),
(87,-106,o),
(83,-167,o),
(39,-167,cs),
(16,-167,o),
(2,-159,o),
(2,-142,cs),
(2,-117,o),
(11,-117,o),
(11,-91,cs),
(11,-60,o),
(-11,-38,o),
(-55,-38,cs),
(-100,-38,o),
(-125,-64,o),
(-125,-102,cs),
(-125,-168,o),
(-62,-207,o),
(36,-207,cs)
);
}
);
width = 472;
}
);
metricRight = f.sc;
},
{
color = 6;
glyphname = a.sc;
kernLeft = a.sc;
kernRight = a.sc;
layers = (
{
anchors = (
{
name = bottom;
pos = (221,0);
},
{
name = ogonek;
pos = (467,10);
},
{
name = top;
pos = (261,455);
}
);
layerId = "9372F035-DA38-4B54-966C-CEBA9B53DD02";
shapes = (
{
closed = 1;
nodes = (
(77,0,l),
(152,-3,l),
(152,18,l),
(126,21,ls),
(112,23,o),
(104,27,o),
(104,41,cs),
(104,52,o),
(109,68,o),
(120,94,cs),
(246,404,l),
(223,404,l),
(354,78,ls),
(358,67,o),
(360,58,o),
(360,51,cs),
(360,34,o),
(347,27,o),
(335,25,cs),
(297,18,l),
(297,-3,l),
(414,0,l),
(513,-3,l),
(513,18,l),
(483,25,ls),
(450,33,o),
(438,60,o),
(414,118,cs),
(274,455,l),
(241,455,l),
(90,92,ls),
(67,37,o),
(54,29,o),
(18,21,cs),
(4,18,l),
(4,-3,l)
);
},
{
closed = 1;
nodes = (
(329,154,l),
(320,179,l),
(147,179,l),
(136,154,l)
);
}
);
width = 517;
},
{
anchors = (
{
name = bottom;
pos = (212,0);
},
{
name = ogonek;
pos = (458,10);
},
{
name = top;
pos = (262,455);
}
);
layerId = m002;
shapes = (
{
closed = 1;
nodes = (
(74,0,l),
(174,-3,l),
(174,31,l),
(148,33,ls),
(121,35,o),
(104,48,o),
(104,72,cs),
(104,81,o),
(106,91,o),
(111,103,cs),
(226,379,l),
(212,379,l),
(324,95,ls),
(328,84,o),
(331,73,o),
(331,64,cs),
(331,49,o),
(323,37,o),
(301,34,cs),
(278,31,l),
(278,-3,l),
(405,0,l),
(545,-3,l),
(545,31,l),
(530,34,ls),
(499,40,o),
(489,60,o),
(467,114,cs),
(327,455,l),
(213,455,l),
(68,114,ls),
(42,54,o),
(28,37,o),
(0,32,cs),
(-6,31,l),
(-6,-3,l)
);
},
{
closed = 1;
nodes = (
(330,134,l),
(311,179,l),
(138,179,l),
(117,134,l)
);
}
);
width = 539;
}
);
},
{
color = 6;
glyphname = ae.sc;
kernLeft = AE.sc;
kernRight = H;
layers = (
{
anchors = (
{
name = bottom;
pos = (437,0);
},
{
name = ogonek;
pos = (623,10);
}
);
background = {
shapes = (
{
closed = 0;
nodes = (
(643,0,l),
(643,63,l),
(650,144,l)
);
},
{
closed = 0;
nodes = (
(627,343,l),
(621,411,l),
(621,455,l)
);
}
);
};
layerId = "9372F035-DA38-4B54-966C-CEBA9B53DD02";
shapes = (
{
closed = 1;
nodes = (
(39,0,l),
(117,-3,l),
(117,20,l),
(91,23,ls),
(80,24,o),
(72,27,o),
(72,35,cs),
(72,44,o),
(82,61,o),
(106,94,cs),
(341,426,l),
(323,431,l),
(323,121,ls),
(323,31,o),
(308,29,o),
(250,22,cs),
(234,20,l),
(234,-3,l),
(357,0,l),
(643,0,l),
(643,68,l),
(650,144,l),
(629,144,l),
(611,65,o),
(602,27,o),
(524,27,cs),
(458,27,ls),
(406,27,o),
(392,45,o),
(392,78,cs),
(392,429,l),
(485,429,ls),
(577,429,o),
(589,404,o),
(609,343,c),
(628,343,l),
(621,408,l),
(621,455,l),
(358,455,l),
(243,458,l),
(243,435,l),
(263,433,ls),
(276,432,o),
(296,430,o),
(296,414,cs),
(296,407,o),
(293,398,o),
(283,384,cs),
(74,92,ls),
(32,34,o),
(17,31,o),
(-20,23,cs),
(-34,20,l),
(-34,-3,l)
);
},
{
closed = 1;
nodes = (
(328,154,l),
(328,179,l),
(158,179,l),
(141,154,l)
);
},
{
closed = 1;
nodes = (
(540,134,l),
(538,237,l),
(540,326,l),
(518,326,l),
(515,263,o),
(498,247,o),
(475,247,cs),
(386,247,l),
(386,223,l),
(472,223,ls),
(501,223,o),
(518,199,o),
(518,134,c)
);
}
);
width = 690;
},
{
anchors = (
{
name = bottom;
pos = (437,0);
},
{
name = ogonek;
pos = (623,10);
}
);
layerId = m002;
shapes = (
{
closed = 1;
nodes = (
(72,0,l),
(172,-3,l),
(172,31,l),
(146,33,ls),
(126,34,o),
(112,42,o),
(112,58,cs),
(112,67,o),
(116,78,o),
(125,91,cs),
(362,426,l),
(327,422,l),
(327,121,ls),
(327,40,o),
(317,38,o),
(275,33,cs),
(259,31,l),
(259,-3,l),
(397,0,l),
(700,-2,l),
(702,74,l),
(707,163,l),
(671,163,l),
(644,80,o),
(616,35,o),
(544,35,cs),
(531,35,ls),
(476,35,o),
(468,66,o),
(468,119,cs),
(468,419,l),
(524,419,ls),
(620,419,o),
(631,390,o),
(652,323,c),
(688,323,l),
(682,411,l),
(682,455,l),
(403,455,l),
(249,458,l),
(249,424,l),
(261,423,ls),
(278,422,o),
(285,416,o),
(285,405,cs),
(285,393,o),
(276,376,o),
(259,353,cs),
(88,114,ls),
(51,62,o),
(26,37,o),
(-2,32,cs),
(-8,31,l),
(-8,-3,l)
);
},
{
closed = 1;
nodes = (
(376,134,l),
(376,179,l),
(154,179,l),
(133,134,l)
);
},
{
closed = 1;
nodes = (
(603,134,l),
(600,234,l),
(603,326,l),
(569,326,l),
(560,270,o),
(545,254,o),
(505,254,cs),
(452,254,l),
(452,214,l),
(502,214,ls),
(548,214,o),
(563,193,o),
(569,134,c)
);
}
);
width = 727;
}
);
metricRight = E;
},
{
color = 6;
glyphname = b.sc;
kernLeft = H;
kernRight = B;
layers = (
{
anchors = (
{
name = bottom;
pos = (262,0);
},
{
name = top;
pos = (262,455);
}
);
guides = (
{
pos = (30,458);
}
);
layerId = "9372F035-DA38-4B54-966C-CEBA9B53DD02";
shapes = (
{
closed = 1;
nodes = (
(152,0,l),
(323,0,ls),
(372,0,o),
(474,30,o),
(474,131,cs),
(474,222,o),
(389,244,o),
(312,249,c),
(315,244,l),
(372,251,o),
(445,280,o),
(445,355,cs),
(445,441,o),
(340,455,o),
(265,455,cs),
(153,455,l),
(30,458,l),
(30,435,l),
(46,433,ls),
(104,426,o),
(118,424,o),
(118,334,cs),
(118,121,ls),
(118,31,o),
(103,29,o),
(45,22,cs),
(29,20,l),
(29,-3,l)
);
},
{
closed = 1;
nodes = (
(210,24,o),
(185,46,o),
(185,96,cs),
(185,431,l),
(245,431,ls),
(330,431,o),
(368,410,o),
(368,349,cs),
(368,288,o),
(338,253,o),
(284,253,cs),
(179,253,l),
(179,229,l),
(260,229,ls),
(332,229,o),
(397,222,o),
(397,131,cs),
(397,58,o),
(362,24,o),
(288,24,cs),
(250,24,ls)
);
}
);
width = 511;
},
{
anchors = (
{
name = bottom;
pos = (262,0);
},
{
name = top;
pos = (262,455);
}
);
guides = (
{
pos = (30,458);
}
);
layerId = m002;
shapes = (
{
closed = 1;
nodes = (
(158,0,l),
(323,0,ls),
(445,0,o),
(532,56,o),
(532,134,cs),
(532,210,o),
(447,254,o),
(304,251,c),
(309,240,l),
(430,240,o),
(507,283,o),
(507,350,cs),
(507,419,o),
(435,457,o),
(305,456,cs),
(163,455,l),
(19,458,l),
(19,425,l),
(35,423,ls),
(77,418,o),
(87,415,o),
(87,334,cs),
(87,121,ls),
(87,41,o),
(78,38,o),
(36,33,cs),
(20,31,l),
(20,-3,l)
);
},
{
closed = 1;
nodes = (
(238,33,o),
(228,41,o),
(228,121,cs),
(228,419,l),
(274,419,ls),
(331,419,o),
(357,396,o),
(357,343,cs),
(357,285,o),
(330,258,o),
(273,258,cs),
(180,258,l),
(180,222,l),
(260,222,ls),
(349,222,o),
(382,198,o),
(382,134,cs),
(382,65,o),
(351,33,o),
(286,33,cs),
(280,33,ls)
);
}
);
width = 558;
}
);
metricLeft = i.sc;
},
{
color = 6;
glyphname = c.sc;
kernLeft = o.sc;
kernRight = C;
layers = (
{
anchors = (
{
name = bottom;
pos = (285,0);
},
{
name = top;
pos = (275,455);
}
);
hints = (
{
origin = (0,40);
target = (0,18);
type = Stem;
},
{
horizontal = 1;
origin = (0,43);
target = (0,15);
type = Stem;
},
{
horizontal = 1;
origin = (0,21);
target = (0,37);
type = Stem;
},
{
origin = (0,12);
target = (0,11);
type = Stem;
}
);
layerId = "9372F035-DA38-4B54-966C-CEBA9B53DD02";
shapes = (
{
closed = 1;
nodes = (
(310,-11,o),
(349,7,o),
(376,20,cs),
(392,28,o),
(404,34,o),
(411,34,cs),
(428,34,o),
(433,13,o),
(435,0,c),
(453,0,l),
(450,88,l),
(452,175,l),
(428,175,l),
(420,89,o),
(362,19,o),
(274,19,cs),
(171,19,o),
(127,109,o),
(127,218,cs),
(127,334,o),
(168,439,o),
(278,439,cs),
(350,439,o),
(410,394,o),
(426,306,c),
(450,306,l),
(449,387,l),
(452,459,l),
(427,459,l),
(426,438,o),
(420,431,o),
(411,431,cs),
(401,431,o),
(388,437,o),
(365,448,cs),
(336,462,o),
(298,469,o),
(274,469,cs),
(147,469,o),
(47,363,o),
(47,218,cs),
(47,101,o),
(130,-11,o),
(260,-11,cs)
);
}
);
width = 510;
},
{
anchors = (
{
name = bottom;
pos = (300,0);
},
{
name = top;
pos = (290,455);
}
);
hints = (
{
origin = (0,40);
target = (0,18);
type = Stem;
},
{
horizontal = 1;
origin = (0,43);
target = (0,15);
type = Stem;
},
{
horizontal = 1;
origin = (0,21);
target = (0,37);
type = Stem;
},
{
origin = (0,12);
target = (0,11);
type = Stem;
}
);
layerId = m002;
shapes = (
{
closed = 1;
nodes = (
(325,-11,o),
(360,3,o),
(386,14,cs),
(402,21,o),
(415,27,o),
(425,27,cs),
(442,27,o),
(446,10,o),
(448,0,c),
(478,0,l),
(475,88,l),
(477,175,l),
(441,175,l),
(433,99,o),
(376,38,o),
(309,38,cs),
(214,38,o),
(182,119,o),
(182,218,cs),
(182,324,o),
(212,420,o),
(313,420,cs),
(365,420,o),
(425,381,o),
(441,306,c),
(477,306,l),
(476,387,l),
(479,459,l),
(442,459,l),
(441,442,o),
(434,436,o),
(423,436,cs),
(414,436,o),
(399,443,o),
(380,450,cs),
(357,459,o),
(326,469,o),
(289,469,cs),
(137,469,o),
(32,367,o),
(32,218,cs),
(32,82,o),
(131,-11,o),
(275,-11,cs)
);
}
);
width = 531;
}
);
metricLeft = o.sc;
},
{
color = 6;
glyphname = d.sc;
kernLeft = H;
kernRight = o.sc;
layers = (
{
anchors = (
{
name = bottom;
pos = (298,0);
},
{
name = center;
pos = (171,228);
},
{
name = top;
pos = (238,455);
}
);
layerId = "9372F035-DA38-4B54-966C-CEBA9B53DD02";
shapes = (
{
closed = 1;
nodes = (
(148,0,l),
(264,0,ls),
(362,0,o),
(531,43,o),
(531,232,cs),
(531,452,o),
(307,455,o),
(251,455,cs),
(152,455,l),
(29,458,l),
(29,435,l),
(45,433,ls),
(103,426,o),
(117,424,o),
(117,334,cs),
(117,108,ls),
(117,27,o),
(104,25,o),
(52,19,cs),
(38,17,l),
(38,-3,l)
);
},
{
closed = 1;
nodes = (
(199,25,o),
(187,51,o),
(187,103,cs),
(187,430,l),
(269,430,ls),
(349,430,o),
(451,406,o),
(451,232,cs),
(451,29,o),
(298,25,o),
(267,25,cs),
(234,25,ls)
);
}
);
width = 578;
},
{
anchors = (
{
name = bottom;
pos = (298,0);
},
{
name = center;
pos = (171,228);
},
{
name = top;
pos = (238,455);
}
);
layerId = m002;
shapes = (
{
closed = 1;
nodes = (
(157,0,l),
(264,0,ls),
(373,0,o),
(561,43,o),
(561,230,cs),
(561,452,o),
(313,455,o),
(251,455,cs),
(157,455,l),
(28,458,l),
(28,425,l),
(44,423,ls),
(78,419,o),
(86,415,o),
(86,334,cs),
(86,121,ls),
(86,41,o),
(77,38,o),
(35,33,cs),
(19,31,l),
(19,-3,l)
);
},
{
closed = 1;
nodes = (
(235,41,o),
(227,67,o),
(227,101,cs),
(227,415,l),
(269,415,ls),
(371,415,o),
(411,366,o),
(411,230,cs),
(411,59,o),
(329,41,o),
(275,41,cs),
(267,41,ls)
);
}
);
width = 593;
}
);
metricLeft = i.sc;
metricRight = o.sc;
},
{
color = 6;
glyphname = e.sc;
kernLeft = H;
kernRight = H;
layers = (
{
anchors = (
{
name = bottom;
pos = (232,0);
},
{
name = ogonek;
pos = (418,10);
},
{
name = top;
pos = (252,455);
},
{
name = topleft;
pos = (19,455);
}
);
layerId = "9372F035-DA38-4B54-966C-CEBA9B53DD02";
shapes = (
{
closed = 1;
nodes = (
(152,0,l),
(438,0,l),
(438,63,l),
(445,144,l),
(424,144,l),
(407,69,o),
(397,25,o),
(319,25,cs),
(253,25,ls),
(201,25,o),
(187,44,o),
(187,78,c),
(187,430,l),
(280,430,ls),
(371,430,o),
(381,404,o),
(401,343,c),
(422,343,l),
(416,411,l),
(416,455,l),
(153,455,l),
(30,458,l),
(30,435,l),
(46,433,ls),
(104,426,o),
(117,424,o),
(117,334,cs),
(117,121,ls),
(117,31,o),
(103,29,o),
(45,22,cs),
(29,20,l),
(29,-3,l)
);
},
{
closed = 1;
nodes = (
(334,134,l),
(331,234,l),
(334,326,l),
(313,326,l),
(310,263,o),
(293,246,o),
(270,246,cs),
(177,246,l),
(177,223,l),
(267,223,ls),
(296,223,o),
(313,199,o),
(313,134,c)
);
}
);
width = 482;
},
{
anchors = (
{
name = bottom;
pos = (242,0);
},
{
name = ogonek;
pos = (428,10);
},
{
name = top;
pos = (262,455);
},
{
name = topleft;
pos = (29,455);
}
);
layerId = m002;
shapes = (
{
closed = 1;
nodes = (
(157,0,l),
(460,-2,l),
(462,74,l),
(467,163,l),
(431,163,l),
(404,80,o),
(376,35,o),
(304,35,cs),
(291,35,ls),
(236,35,o),
(228,66,o),
(228,119,cs),
(228,419,l),
(284,419,ls),
(380,419,o),
(391,390,o),
(412,323,c),
(448,323,l),
(442,411,l),
(442,455,l),
(163,455,l),
(19,458,l),
(19,425,l),
(35,423,ls),
(77,418,o),
(87,415,o),
(87,334,cs),
(87,121,ls),
(87,40,o),
(77,38,o),
(35,33,cs),
(19,31,l),
(19,-3,l)
);
},
{
closed = 1;
nodes = (
(363,134,l),
(360,234,l),
(363,326,l),
(329,326,l),
(320,270,o),
(305,254,o),
(265,254,cs),
(212,254,l),
(212,214,l),
(262,214,ls),
(308,214,o),
(323,193,o),
(329,134,c)
);
}
);
width = 494;
}
);
metricLeft = i.sc;
},
{
color = 6;
glyphname = eogonek.sc;
kernLeft = H;
kernRight = H;
layers = (
{
layerId = "9372F035-DA38-4B54-966C-CEBA9B53DD02";
shapes = (
{
closed = 1;
nodes = (
(420,-294,o),
(457,-234,o),
(464,-183,c),
(447,-170,l),
(428,-212,o),
(392,-239,o),
(355,-239,cs),
(314,-239,o),
(279,-210,o),
(279,-154,cs),
(279,-69,o),
(367,0,o),
(439,0,c),
(433,29,l),
(300,-14,o),
(226,-112,o),
(226,-191,cs),
(226,-250,o),
(273,-294,o),
(334,-294,cs)
);
},
{
ref = e.sc;
}
);
width = 482;
},
{
layerId = m002;
shapes = (
{
closed = 1;
nodes = (
(420,-294,o),
(457,-234,o),
(464,-183,c),
(447,-170,l),
(428,-212,o),
(392,-239,o),
(355,-239,cs),
(314,-239,o),
(279,-210,o),
(279,-154,cs),
(279,-69,o),
(367,0,o),
(439,0,c),
(433,29,l),
(300,-14,o),
(226,-112,o),
(226,-191,cs),
(226,-250,o),
(273,-294,o),
(334,-294,cs)
);
},
{
ref = e.sc;
}
);
width = 494;
}
);
metricWidth = e.sc;
},
{
color = 6;
glyphname = f.sc;
kernLeft = H;
kernRight = F;
layers = (
{
anchors = (
{
name = bottom;
pos = (225,0);
},
{
name = top;
pos = (245,455);
}
);
layerId = "9372F035-DA38-4B54-966C-CEBA9B53DD02";
shapes = (
{
closed = 1;
nodes = (
(152,0,l),
(295,-3,l),
(295,20,l),
(279,22,ls),
(205,29,o),
(187,31,o),
(187,121,cs),
(187,223,l),
(262,223,ls),
(291,223,o),
(308,199,o),
(308,134,c),
(329,134,l),
(326,236,l),
(329,326,l),
(308,326,l),
(305,263,o),
(289,247,o),
(265,247,cs),
(187,247,l),
(187,430,l),
(275,430,ls),
(366,430,o),
(377,404,o),
(397,343,c),
(418,343,l),
(411,455,l),
(147,455,l),
(30,458,l),
(30,435,l),
(46,433,ls),
(104,426,o),
(117,424,o),
(117,334,cs),
(117,121,ls),
(117,31,o),
(103,29,o),
(45,22,cs),
(29,20,l),
(29,-3,l)
);
}
);
width = 452;
},
{
anchors = (
{
name = bottom;
pos = (225,0);
},
{
name = top;
pos = (245,455);
}
);
layerId = m002;
shapes = (
{
closed = 1;
nodes = (
(158,0,l),
(296,-3,l),
(296,31,l),
(280,33,ls),
(238,38,o),
(228,41,o),
(228,121,cs),
(228,214,l),
(266,214,ls),
(312,214,o),
(327,193,o),
(333,134,c),
(367,134,l),
(364,234,l),
(367,326,l),
(333,326,l),
(324,270,o),
(309,254,o),
(269,254,cs),
(228,254,l),
(228,419,l),
(284,419,ls),
(380,419,o),
(391,390,o),
(412,323,c),
(448,323,l),
(439,455,l),
(163,455,l),
(19,458,l),
(19,425,l),
(35,423,ls),
(77,418,o),
(87,415,o),
(87,334,cs),
(87,121,ls),
(87,41,o),
(78,38,o),
(36,33,cs),
(20,31,l),
(20,-3,l)
);
}
);
width = 472;
}
);
metricLeft = i.sc;
},
{
color = 6;
glyphname = g.sc;
kernLeft = o.sc;
kernRight = G;
layers = (
{
anchors = (
{
name = bottom;
pos = (311,0);
},
{
name = top;
pos = (271,455);
}
);
layerId = "9372F035-DA38-4B54-966C-CEBA9B53DD02";
shapes = (
{
closed = 1;
nodes = (
(316,-11,o),
(363,11,o),
(395,29,cs),
(411,38,o),
(426,43,o),
(442,43,cs),
(456,43,o),
(473,37,o),
(478,28,c),
(496,39,l),
(490,49,ls),
(483,61,o),
(475,80,o),
(475,100,cs),
(475,113,ls),
(475,153,o),
(487,168,o),
(505,169,cs),
(535,171,l),
(535,193,l),
(435,190,l),
(327,193,l),
(327,171,l),
(355,169,ls),
(394,166,o),
(405,151,o),
(405,125,cs),
(405,89,ls),
(405,54,o),
(340,19,o),
(282,19,cs),
(165,19,o),
(127,110,o),
(127,218,cs),
(127,346,o),
(176,439,o),
(280,439,cs),
(354,439,o),
(410,391,o),
(426,305,c),
(447,305,l),
(444,383,l),
(447,460,l),
(426,460,l),
(423,438,o),
(418,431,o),
(410,431,cs),
(403,431,o),
(398,433,o),
(380,442,cs),
(365,450,o),
(326,469,o),
(274,469,cs),
(147,469,o),
(47,369,o),
(47,218,cs),
(47,89,o),
(122,-11,o),
(266,-11,cs)
);
}
);
width = 557;
},
{
anchors = (
{
name = bottom;
pos = (311,0);
},
{
name = top;
pos = (271,455);
}
);
background = {
shapes = (
{
closed = 0;
nodes = (
(504,81,ls),
(504,162,o),
(512,166,o),
(546,170,cs),
(562,172,l),
(562,205,l),
(434,202,l),
(305,205,l),
(305,172,l),
(321,170,ls),
(355,166,o),
(363,162,o),
(363,81,cs)
);
}
);
};
layerId = m002;
shapes = (
{
closed = 1;
nodes = (
(333,-11,o),
(370,4,o),
(400,15,cs),
(418,22,o),
(434,27,o),
(451,27,cs),
(468,27,o),
(481,19,o),
(487,6,c),
(519,22,l),
(513,32,ls),
(506,44,o),
(498,73,o),
(498,100,cs),
(498,113,ls),
(498,153,o),
(508,168,o),
(528,170,cs),
(554,172,l),
(554,205,l),
(434,202,l),
(315,205,l),
(315,172,l),
(335,170,ls),
(365,167,o),
(374,164,o),
(374,135,cs),
(374,109,ls),
(374,59,o),
(347,38,o),
(299,38,cs),
(214,38,o),
(182,119,o),
(182,218,cs),
(182,324,o),
(212,420,o),
(313,420,cs),
(365,420,o),
(425,381,o),
(441,306,c),
(477,306,l),
(476,387,l),
(479,459,l),
(442,459,l),
(441,442,o),
(434,436,o),
(423,436,cs),
(414,436,o),
(399,443,o),
(380,450,cs),
(357,459,o),
(326,469,o),
(289,469,cs),
(137,469,o),
(32,367,o),
(32,218,cs),
(32,82,o),
(131,-11,o),
(275,-11,cs)
);
}
);
width = 563;
}
);
metricLeft = o.sc;
},
{
color = 6;
glyphname = h.sc;
kernLeft = H;
kernRight = H;
layers = (
{
anchors = (
{
name = bottom;
pos = (314,0);
},
{
name = center;
pos = (314,327);
},
{
name = top;
pos = (314,455);
},
{
name = topleft;
pos = (49,455);
}
);
layerId = "9372F035-DA38-4B54-966C-CEBA9B53DD02";
shapes = (
{
closed = 1;
nodes = (
(153,0,l),
(276,-3,l),
(276,20,l),
(260,22,ls),
(202,29,o),
(188,31,o),
(188,121,cs),
(188,334,ls),
(188,424,o),
(202,426,o),
(260,433,cs),
(276,435,l),
(276,458,l),
(153,455,l),
(152,455,l),
(29,458,l),
(29,435,l),
(45,433,ls),
(103,426,o),
(117,424,o),
(117,334,cs),
(117,121,ls),
(117,31,o),
(104,29,o),
(46,22,cs),
(30,20,l),
(30,-3,l)
);
},
{
closed = 1;
nodes = (
(446,212,l),
(446,237,l),
(182,237,l),
(182,212,l)
);
},
{
closed = 1;
nodes = (
(475,0,l),
(598,-3,l),
(598,20,l),
(582,22,ls),
(524,29,o),
(510,31,o),
(510,121,cs),
(510,334,ls),
(510,424,o),
(524,426,o),
(582,433,cs),
(598,435,l),
(598,458,l),
(475,455,l),
(352,458,l),
(352,435,l),
(368,433,ls),
(426,426,o),
(440,424,o),
(440,334,cs),
(440,121,ls),
(440,31,o),
(426,29,o),
(368,22,cs),
(352,20,l),
(352,-3,l)
);
}
);
width = 627;
},
{
anchors = (
{
name = bottom;
pos = (323,0);
},
{
name = center;
pos = (323,327);
},
{
name = top;
pos = (323,455);
},
{
name = topleft;
pos = (58,455);
}
);
background = {
shapes = (
{
closed = 0;
nodes = (
(86,124,ls),
(86,52,o),
(76,41,o),
(34,34,cs),
(16,31,l),
(16,-3,l),
(157,0,l),
(297,-3,l),
(297,31,l),
(279,34,ls),
(237,41,o),
(227,52,o),
(227,124,cs)
);
}
);
};
layerId = m002;
shapes = (
{
closed = 1;
nodes = (
(157,0,l),
(295,-3,l),
(295,31,l),
(279,33,ls),
(237,38,o),
(227,41,o),
(227,121,cs),
(227,334,ls),
(227,415,o),
(235,419,o),
(269,423,cs),
(285,425,l),
(285,458,l),
(157,455,l),
(156,455,l),
(28,458,l),
(28,425,l),
(44,423,ls),
(78,419,o),
(86,415,o),
(86,334,cs),
(86,121,ls),
(86,41,o),
(77,38,o),
(35,33,cs),
(19,31,l),
(19,-3,l)
);
},
{
closed = 1;
nodes = (
(455,202,l),
(455,248,l),
(191,248,l),
(191,202,l)
);
},
{
closed = 1;
nodes = (
(489,0,l),
(627,-3,l),
(627,31,l),
(611,33,ls),
(569,38,o),
(559,41,o),
(559,121,cs),
(559,334,ls),
(559,415,o),
(567,419,o),
(601,423,cs),
(617,425,l),
(617,458,l),
(489,455,l),
(361,458,l),
(361,425,l),
(377,423,ls),
(411,419,o),
(419,415,o),
(419,334,cs),
(419,121,ls),
(419,41,o),
(409,38,o),
(367,33,cs),
(351,31,l),
(351,-3,l)
);
}
);
width = 646;
}
);
metricLeft = i.sc;
metricRight = i.sc;
},
{
color = 6;
glyphname = i.sc;
kernLeft = H;
kernRight = H;
layers = (
{
anchors = (
{
name = bottom;
pos = (153,0);
},
{
name = ogonek;
pos = (179,0);
},
{
name = top;
pos = (152,455);
}
);
layerId = "9372F035-DA38-4B54-966C-CEBA9B53DD02";
shapes = (
{
closed = 1;
nodes = (
(153,0,l),
(276,-3,l),
(276,20,l),
(260,22,ls),
(202,29,o),
(187,31,o),
(187,121,cs),
(187,334,ls),
(187,424,o),
(201,426,o),
(259,433,cs),
(275,435,l),
(275,458,l),
(152,455,l),
(29,458,l),
(29,435,l),
(45,433,ls),
(103,426,o),
(117,424,o),
(117,334,cs),
(117,121,ls),
(117,31,o),
(104,29,o),
(46,22,cs),
(30,20,l),
(30,-3,l)
);
}
);
width = 305;
},
{
anchors = (
{
name = bottom;
pos = (157,0);
},
{
name = ogonek;
pos = (188,0);
},
{
name = top;
pos = (157,455);
}
);
background = {
shapes = (
{
closed = 1;
nodes = (
(162,0,l),
(285,-3,l),
(285,20,l),
(269,22,ls),
(211,29,o),
(196,31,o),
(196,121,cs),
(196,334,ls),
(196,424,o),
(210,426,o),
(268,433,cs),
(284,435,l),
(284,458,l),
(161,455,l),
(38,458,l),
(38,435,l),
(54,433,ls),
(112,426,o),
(126,424,o),
(126,334,cs),
(126,121,ls),
(126,31,o),
(113,29,o),
(55,22,cs),
(39,20,l),
(39,-3,l)
);
}
);
};
layerId = m002;
shapes = (
{
closed = 1;
nodes = (
(157,0,l),
(295,-3,l),
(295,31,l),
(279,33,ls),
(237,38,o),
(227,41,o),
(227,121,cs),
(227,334,ls),
(227,415,o),
(235,419,o),
(269,423,cs),
(285,425,l),
(285,458,l),
(157,455,l),
(28,458,l),
(28,425,l),
(44,423,ls),
(78,419,o),
(86,415,o),
(86,334,cs),
(86,121,ls),
(86,41,o),
(77,38,o),
(35,33,cs),
(19,31,l),
(19,-3,l)
);
}
);
width = 314;
}
);
},
{
color = 6;
glyphname = j.sc;
kernLeft = J;
kernRight = U;
layers = (
{
anchors = (
{
name = bottom;
pos = (188,0);
},
{
name = top;
pos = (228,455);
}
);
layerId = "9372F035-DA38-4B54-966C-CEBA9B53DD02";
shapes = (
{
closed = 1;
nodes = (
(181,-11,o),
(266,12,o),
(266,127,cs),
(266,334,ls),
(266,424,o),
(280,426,o),
(338,433,cs),
(354,435,l),
(354,458,l),
(231,455,l),
(108,458,l),
(108,435,l),
(124,433,ls),
(182,426,o),
(196,424,o),
(196,334,cs),
(196,111,ls),
(196,75,o),
(194,15,o),
(138,15,cs),
(118,15,o),
(105,24,o),
(105,38,cs),
(105,51,o),
(113,57,o),
(113,71,cs),
(113,94,o),
(96,106,o),
(75,106,cs),
(49,106,o),
(30,87,o),
(30,63,cs),
(30,16,o),
(83,-11,o),
(131,-11,cs)
);
}
);
width = 381;
},
{
anchors = (
{
name = bottom;
pos = (214,0);
},
{
name = top;
pos = (294,455);
}
);
layerId = m002;
shapes = (
{
closed = 1;
nodes = (
(297,-14,o),
(361,44,o),
(362,182,cs),
(363,334,ls),
(364,415,o),
(371,419,o),
(405,423,cs),
(421,425,l),
(421,458,l),
(294,455,l),
(164,458,l),
(164,425,l),
(180,423,ls),
(214,419,o),
(222,415,o),
(222,334,cs),
(222,162,ls),
(222,87,o),
(218,26,o),
(174,26,cs),
(151,26,o),
(137,34,o),
(137,51,cs),
(137,76,o),
(146,76,o),
(146,102,cs),
(146,133,o),
(124,155,o),
(80,155,cs),
(35,155,o),
(10,129,o),
(10,91,cs),
(10,25,o),
(73,-14,o),
(171,-14,cs)
);
}
);
width = 435;
}
);
},
{
color = 6;
glyphname = k.sc;
kernLeft = H;
kernRight = K;
layers = (
{
anchors = (
{
name = bottom;
pos = (280,0);
},
{
name = top;
pos = (300,455);
}
);
layerId = "9372F035-DA38-4B54-966C-CEBA9B53DD02";
shapes = (
{
closed = 1;
nodes = (
(153,0,l),
(266,-3,l),
(266,20,l),
(250,22,ls),
(198,29,o),
(186,31,o),
(186,121,cs),
(186,334,ls),
(186,424,o),
(197,426,o),
(249,433,cs),
(265,435,l),
(265,458,l),
(152,455,l),
(29,458,l),
(29,435,l),
(45,433,ls),
(103,426,o),
(118,424,o),
(118,334,cs),
(118,121,ls),
(118,31,o),
(104,29,o),
(46,22,cs),
(30,20,l),
(30,-3,l)
);
},
{
closed = 1;
nodes = (
(443,0,l),
(551,-2,l),
(551,20,l),
(542,22,ls),
(495,32,o),
(455,74,o),
(408,133,cs),
(287,287,l),
(236,233,l),
(359,85,ls),
(370,72,o),
(373,58,o),
(373,50,cs),
(373,35,o),
(363,25,o),
(347,22,cs),
(337,20,l),
(337,-2,l)
);
},
{
closed = 1;
nodes = (
(402,384,ls),
(426,409,o),
(451,431,o),
(476,433,cs),
(499,435,l),
(499,457,l),
(412,455,l),
(330,457,l),
(330,435,l),
(348,433,ls),
(367,431,o),
(378,425,o),
(378,414,cs),
(378,404,o),
(370,390,o),
(353,372,cs),
(166,178,l),
(180,152,l)
);
}
);
width = 548;
},
{
anchors = (
{
name = bottom;
pos = (290,0);
},
{
name = top;
pos = (310,455);
}
);
layerId = m002;
shapes = (
{
closed = 1;
nodes = (
(157,0,l),
(285,-3,l),
(285,31,l),
(269,33,ls),
(235,37,o),
(227,41,o),
(227,121,cs),
(227,334,ls),
(227,415,o),
(235,419,o),
(269,423,cs),
(285,425,l),
(285,458,l),
(157,455,l),
(28,458,l),
(28,425,l),
(44,423,ls),
(78,419,o),
(86,415,o),
(86,334,cs),
(86,121,ls),
(86,41,o),
(77,38,o),
(35,33,cs),
(19,31,l),
(19,-3,l)
);
},
{
closed = 1;
nodes = (
(473,0,l),
(591,-3,l),
(591,38,l),
(586,39,ls),
(557,45,o),
(520,83,o),
(498,119,cs),
(366,337,l),
(261,237,l),
(361,74,ls),
(367,64,o),
(371,55,o),
(371,49,cs),
(371,39,o),
(364,33,o),
(351,32,cs),
(341,31,l),
(341,-2,l)
);
},
{
closed = 1;
nodes = (
(447,384,ls),
(469,406,o),
(498,425,o),
(523,425,cs),
(529,425,l),
(529,457,l),
(436,455,l),
(350,457,l),
(350,425,l),
(368,423,ls),
(385,421,o),
(393,414,o),
(393,405,cs),
(393,396,o),
(386,385,o),
(373,372,cs),
(190,197,l),
(215,162,l)
);
}
);
width = 588;
}
);
metricLeft = i.sc;
},
{
color = 6;
glyphname = l.sc;
kernLeft = H;
kernRight = L;
layers = (
{
anchors = (
{
name = bottom;
pos = (240,0);
},
{
name = center;
pos = (170,228);
},
{
name = top;
pos = (160,455);
},
{
name = topright;
pos = (346,179);
}
);
guides = (
{
pos = (490,314);
}
);
layerId = "9372F035-DA38-4B54-966C-CEBA9B53DD02";
shapes = (
{
closed = 1;
nodes = (
(152,0,l),
(439,-2,l),
(446,163,l),
(423,163,l),
(415,73,o),
(384,25,o),
(305,25,cs),
(250,25,ls),
(194,25,o),
(187,60,o),
(187,119,cs),
(187,334,ls),
(187,424,o),
(201,426,o),
(259,433,cs),
(275,435,l),
(275,458,l),
(152,455,l),
(29,458,l),
(29,435,l),
(45,433,ls),
(103,426,o),
(117,424,o),
(117,334,cs),
(117,121,ls),
(117,31,o),
(103,29,o),
(45,22,cs),
(29,20,l),
(29,-3,l)
);
}
);
width = 473;
},
{
anchors = (
{
name = bottom;
pos = (250,0);
},
{
name = center;
pos = (180,228);
},
{
name = top;
pos = (170,455);
},
{
name = topright;
pos = (356,179);
}
);
background = {
shapes = (
{
closed = 1;
nodes = (
(158,0,l),
(296,-3,l),
(296,31,l),
(280,33,ls),
(238,38,o),
(228,41,o),
(228,121,cs),
(228,334,ls),
(228,415,o),
(236,419,o),
(270,423,cs),
(286,425,l),
(286,458,l),
(158,455,l),
(157,455,l),
(29,458,l),
(29,425,l),
(45,423,ls),
(79,419,o),
(87,415,o),
(87,334,cs),
(87,121,ls),
(87,41,o),
(78,38,o),
(36,33,cs),
(20,31,l),
(20,-3,l)
);
}
);
};
guides = (
{
pos = (500,314);
}
);
layerId = m002;
shapes = (
{
closed = 1;
nodes = (
(157,0,l),
(454,-2,l),
(461,163,l),
(427,163,l),
(400,80,o),
(372,35,o),
(300,35,cs),
(291,35,ls),
(236,35,o),
(228,66,o),
(228,119,cs),
(228,334,ls),
(228,415,o),
(236,419,o),
(270,423,cs),
(296,425,l),
(296,458,l),
(157,455,l),
(19,458,l),
(19,425,l),
(35,423,ls),
(77,418,o),
(87,415,o),
(87,334,cs),
(87,121,ls),
(87,40,o),
(77,38,o),
(35,33,cs),
(19,31,l),
(19,-3,l)
);
}
);
width = 481;
}
);
metricLeft = i.sc;
},
{
color = 6;
glyphname = m.sc;
kernLeft = H;
kernRight = H;
layers = (
{
anchors = (
{
name = bottom;
pos = (327,0);
},
{
name = top;
pos = (327,455);
}
);
layerId = "9372F035-DA38-4B54-966C-CEBA9B53DD02";
shapes = (
{
closed = 1;
nodes = (
(111,-1,l),
(211,-3,l),
(211,20,l),
(195,22,ls),
(137,29,o),
(123,31,o),
(123,121,cs),
(123,423,l),
(109,420,l),
(307,5,l),
(324,5,l),
(521,415,l),
(506,418,l),
(506,122,ls),
(506,32,o),
(492,30,o),
(434,23,cs),
(418,21,l),
(418,-2,l),
(541,1,l),
(664,-2,l),
(664,21,l),
(648,23,ls),
(590,30,o),
(576,32,o),
(576,122,cs),
(576,376,ls),
(576,409,o),
(581,431,o),
(613,433,cs),
(648,435,l),
(648,458,l),
(547,455,l),
(512,455,l),
(326,70,l),
(353,70,l),
(171,455,l),
(133,455,l),
(10,458,l),
(10,435,l),
(26,433,ls),
(84,426,o),
(98,424,o),
(98,334,cs),
(98,121,ls),
(98,31,o),
(84,29,o),
(26,22,cs),
(10,20,l),
(10,-3,l)
);
}
);
width = 693;
},
{
anchors = (
{
name = bottom;
pos = (323,0);
},
{
name = top;
pos = (323,455);
}
);
layerId = m002;
shapes = (
{
closed = 1;
nodes = (
(107,0,l),
(207,-3,l),
(207,31,l),
(181,33,ls),
(139,36,o),
(129,51,o),
(129,121,cs),
(129,413,l),
(100,420,l),
(298,5,l),
(330,5,l),
(527,415,l),
(500,418,l),
(501,121,ls),
(501,41,o),
(492,36,o),
(450,33,cs),
(424,31,l),
(424,-3,l),
(567,0,l),
(710,-3,l),
(710,31,l),
(694,33,ls),
(652,38,o),
(642,41,o),
(642,121,cs),
(642,334,ls),
(642,414,o),
(652,417,o),
(694,422,cs),
(710,424,l),
(710,458,l),
(587,455,l),
(498,455,l),
(312,70,l),
(376,156,l),
(235,455,l),
(106,455,l),
(15,458,l),
(15,424,l),
(32,422,ls),
(74,417,o),
(84,404,o),
(84,334,cs),
(84,121,ls),
(84,51,o),
(75,38,o),
(33,33,cs),
(17,31,l),
(17,-3,l)
);
}
);
width = 729;
}
);
metricLeft = n.sc;
metricRight = i.sc;
},
{
color = 6;
glyphname = n.sc;
kernLeft = H;
kernRight = N;
layers = (
{
anchors = (
{
name = bottom;
pos = (271,0);
},
{
name = top;
pos = (281,455);
}
);
layerId = "9372F035-DA38-4B54-966C-CEBA9B53DD02";
shapes = (
{
closed = 1;
nodes = (
(459,0,l),
(459,334,ls),
(459,423,o),
(473,425,o),
(531,432,cs),
(547,434,l),
(547,457,l),
(447,455,l),
(346,457,l),
(346,434,l),
(362,432,ls),
(420,425,o),
(434,423,o),
(434,334,cs),
(434,104,l),
(439,129,l),
(409,163,o),
(215,385,o),
(159,455,c),
(13,457,l),
(13,434,l),
(27,434,ls),
(65,434,o),
(91,415,o),
(111,396,cs),
(180,330,o),
(389,88,o),
(434,0,c)
);
},
{
closed = 1;
nodes = (
(111,-1,l),
(211,-3,l),
(211,20,l),
(195,22,ls),
(137,29,o),
(123,31,o),
(123,121,cs),
(123,400,l),
(98,423,l),
(98,121,ls),
(98,31,o),
(84,29,o),
(26,22,cs),
(10,20,l),
(10,-3,l)
);
}
);
width = 554;
},
{
anchors = (
{
name = bottom;
pos = (280,0);
},
{
name = top;
pos = (290,455);
}
);
background = {
shapes = (
{
closed = 1;
nodes = (
(110,-1,l),
(210,-3,l),
(210,20,l),
(194,22,ls),
(136,29,o),
(122,31,o),
(122,121,cs),
(122,400,l),
(97,423,l),
(97,121,ls),
(97,31,o),
(83,29,o),
(25,22,cs),
(9,20,l),
(9,-3,l)
);
}
);
};
layerId = m002;
shapes = (
{
closed = 1;
nodes = (
(488,0,l),
(488,333,ls),
(488,403,o),
(496,416,o),
(539,421,cs),
(555,423,l),
(555,457,l),
(465,454,l),
(365,457,l),
(365,423,l),
(391,421,ls),
(433,418,o),
(443,403,o),
(443,333,cs),
(443,41,l),
(464,167,l),
(396,239,o),
(268,386,o),
(212,455,c),
(15,457,l),
(15,424,l),
(24,424,ls),
(44,424,o),
(59,413,o),
(85,385,cs),
(156,308,o),
(355,88,o),
(413,0,c)
);
},
{
closed = 1;
nodes = (
(108,0,l),
(208,-3,l),
(208,31,l),
(182,33,ls),
(140,36,o),
(130,51,o),
(130,121,cs),
(130,413,l),
(85,442,l),
(85,121,ls),
(85,51,o),
(76,38,o),
(34,33,cs),
(18,31,l),
(18,-3,l)
);
}
);
width = 567;
}
);
},
{
color = 6;
glyphname = eng.sc;
kernLeft = H;
kernRight = N;
layers = (
{
layerId = "9372F035-DA38-4B54-966C-CEBA9B53DD02";
shapes = (
{
closed = 1;
nodes = (
(446,-294,o),
(459,-237,o),
(459,-152,cs),
(459,101,l),
(434,101,l),
(434,-152,ls),
(434,-205,o),
(429,-273,o),
(384,-273,cs),
(369,-273,o),
(360,-266,o),
(360,-251,cs),
(360,-236,o),
(364,-232,o),
(364,-217,cs),
(364,-194,o),
(346,-167,o),
(316,-167,cs),
(286,-167,o),
(268,-190,o),
(268,-223,cs),
(268,-269,o),
(304,-294,o),
(367,-294,cs)
);
},
{
ref = n.sc;
}
);
width = 554;
},
{
layerId = m002;
shapes = (
{
closed = 1;
nodes = (
(450,-297,o),
(488,-254,o),
(488,-153,cs),
(488,80,l),
(443,80,l),
(443,-163,ls),
(443,-227,o),
(427,-261,o),
(395,-261,cs),
(375,-261,o),
(363,-254,o),
(363,-237,cs),
(363,-222,o),
(374,-199,o),
(374,-184,cs),
(374,-153,o),
(349,-130,o),
(304,-130,cs),
(261,-130,o),
(236,-156,o),
(236,-194,cs),
(236,-259,o),
(284,-297,o),
(360,-297,cs)
);
},
{
ref = n.sc;
}
);
width = 567;
}
);
metricLeft = n.sc;
metricRight = n.sc;
},
{
color = 6;
glyphname = o.sc;
kernLeft = o.sc;
kernRight = o.sc;
layers = (
{
anchors = (
{
name = bottom;
pos = (303,0);
},
{
name = center;
pos = (303,228);
},
{
name = ogonek;
pos = (531,10);
},
{
name = top;
pos = (303,455);
},
{
name = topleft;
pos = (37,455);
},
{
name = topright;
pos = (568,455);
}
);
layerId = "9372F035-DA38-4B54-966C-CEBA9B53DD02";
shapes = (
{
closed = 1;
nodes = (
(429,-11,o),
(558,90,o),
(558,228,cs),
(558,384,o),
(422,469,o),
(304,469,cs),
(179,469,o),
(47,376,o),
(47,228,cs),
(47,88,o),
(173,-11,o),
(304,-11,cs)
);
},
{
closed = 1;
nodes = (
(185,19,o),
(127,111,o),
(127,228,cs),
(127,345,o),
(172,439,o),
(304,439,cs),
(428,439,o),
(478,354,o),
(478,228,cs),
(478,113,o),
(427,19,o),
(304,19,cs)
);
}
);
width = 605;
},
{
anchors = (
{
name = bottom;
pos = (308,0);
},
{
name = center;
pos = (308,228);
},
{
name = ogonek;
pos = (536,10);
},
{
name = top;
pos = (308,455);
},
{
name = topleft;
pos = (42,455);
},
{
name = topright;
pos = (573,455);
}
);
layerId = m002;
shapes = (
{
closed = 1;
nodes = (
(471,-11,o),
(583,86,o),
(583,228,cs),
(583,371,o),
(471,469,o),
(309,469,cs),
(145,469,o),
(32,371,o),
(32,228,cs),
(32,86,o),
(145,-11,o),
(309,-11,cs)
);
},
{
closed = 1;
nodes = (
(224,34,o),
(182,119,o),
(182,228,cs),
(182,337,o),
(214,424,o),
(309,424,cs),
(397,424,o),
(433,345,o),
(433,228,cs),
(433,121,o),
(397,34,o),
(309,34,cs)
);
}
);
width = 615;
}
);
},
{
color = 6;
glyphname = oe.sc;
kernLeft = o.sc;
kernRight = H;
layers = (
{
layerId = "9372F035-DA38-4B54-966C-CEBA9B53DD02";
shapes = (
{
closed = 1;
nodes = (
(369,-11,o),
(423,0,o),
(458,0,cs),
(747,0,l),
(749,63,l),
(754,144,l),
(733,144,l),
(715,63,o),
(706,27,o),
(628,27,cs),
(562,27,ls),
(510,27,o),
(496,45,o),
(496,78,cs),
(496,429,l),
(589,429,ls),
(681,429,o),
(693,404,o),
(713,343,c),
(732,343,l),
(727,411,l),
(725,455,l),
(492,455,ls),
(423,455,o),
(369,469,o),
(304,469,cs),
(179,469,o),
(47,376,o),
(47,228,cs),
(47,88,o),
(157,-11,o),
(304,-11,cs)
);
},
{
closed = 1;
nodes = (
(185,19,o),
(127,111,o),
(127,228,cs),
(127,345,o),
(172,439,o),
(304,439,cs),
(399,439,o),
(435,388,o),
(435,307,cs),
(435,137,ls),
(435,55,o),
(395,19,o),
(304,19,cs)
);
},
{
closed = 1;
nodes = (
(644,134,l),
(642,237,l),
(644,326,l),
(622,326,l),
(619,263,o),
(602,247,o),
(579,247,cs),
(490,247,l),
(490,223,l),
(576,223,ls),
(605,223,o),
(622,199,o),
(622,134,c)
);
}
);
width = 791;
},
{
layerId = m002;
shapes = (
{
closed = 1;
nodes = (
(386,-11,o),
(443,1,o),
(523,0,cs),
(755,-2,l),
(757,74,l),
(762,163,l),
(726,163,l),
(699,80,o),
(671,35,o),
(599,35,cs),
(586,35,ls),
(531,35,o),
(523,66,o),
(523,119,cs),
(523,419,l),
(579,419,ls),
(675,419,o),
(686,390,o),
(707,323,c),
(743,323,l),
(737,411,l),
(737,455,l),
(523,455,ls),
(443,455,o),
(386,469,o),
(309,469,cs),
(145,469,o),
(32,371,o),
(32,228,cs),
(32,86,o),
(145,-11,o),
(309,-11,cs)
);
},
{
closed = 1;
nodes = (
(224,34,o),
(182,119,o),
(182,228,cs),
(182,337,o),
(214,424,o),
(309,424,cs),
(362,424,o),
(383,386,o),
(383,330,cs),
(383,128,ls),
(383,76,o),
(361,34,o),
(309,34,cs)
);
},
{
closed = 1;
nodes = (
(658,134,l),
(655,234,l),
(658,326,l),
(624,326,l),
(615,270,o),
(600,254,o),
(560,254,cs),
(507,254,l),
(507,214,l),
(557,214,ls),
(603,214,o),
(618,193,o),
(624,134,c)
);
}
);
width = 789;
}
);
metricLeft = o.sc;
metricRight = e.sc;
},
{
color = 6;
glyphname = p.sc;
kernLeft = H;
kernRight = P;
layers = (
{
anchors = (
{
name = bottom;
pos = (252,0);
},
{
name = top;
pos = (252,455);
}
);
layerId = "9372F035-DA38-4B54-966C-CEBA9B53DD02";
shapes = (
{
closed = 1;
nodes = (
(151,0,l),
(273,-3,l),
(273,20,l),
(257,22,ls),
(199,29,o),
(185,33,o),
(185,121,cs),
(185,431,l),
(295,431,ls),
(355,431,o),
(387,397,o),
(387,330,cs),
(387,222,o),
(305,222,o),
(273,222,cs),
(179,222,l),
(179,198,l),
(273,198,ls),
(384,198,o),
(465,247,o),
(465,335,cs),
(465,455,o),
(316,455,o),
(295,455,cs),
(153,455,l),
(30,458,l),
(30,435,l),
(46,433,ls),
(104,426,o),
(117,423,o),
(117,334,cs),
(117,121,ls),
(117,33,o),
(103,29,o),
(45,22,cs),
(29,20,l),
(29,-3,l)
);
}
);
width = 497;
},
{
anchors = (
{
name = bottom;
pos = (252,0);
},
{
name = top;
pos = (252,455);
}
);
layerId = m002;
shapes = (
{
closed = 1;
nodes = (
(158,0,l),
(296,-3,l),
(296,31,l),
(280,33,ls),
(238,38,o),
(228,41,o),
(228,121,cs),
(228,419,l),
(284,419,ls),
(334,419,o),
(357,391,o),
(357,330,cs),
(357,261,o),
(330,228,o),
(273,228,cs),
(180,228,l),
(180,192,l),
(293,192,ls),
(421,192,o),
(507,246,o),
(507,331,cs),
(507,413,o),
(435,457,o),
(305,456,cs),
(163,455,l),
(19,458,l),
(19,425,l),
(35,423,ls),
(77,418,o),
(87,415,o),
(87,334,cs),
(87,121,ls),
(87,41,o),
(78,38,o),
(36,33,cs),
(20,31,l),
(20,-3,l)
);
}
);
width = 523;
}
);
metricLeft = i.sc;
},
{
color = 6;
glyphname = thorn.sc;
kernLeft = H;
kernRight = D;
layers = (
{
layerId = "9372F035-DA38-4B54-966C-CEBA9B53DD02";
shapes = (
{
closed = 1;
nodes = (
(151,0,l),
(273,-3,l),
(273,20,l),
(257,22,ls),
(199,29,o),
(185,31,o),
(185,121,cs),
(185,334,ls),
(185,424,o),
(199,426,o),
(257,433,cs),
(273,435,l),
(273,458,l),
(151,455,l),
(29,458,l),
(29,435,l),
(45,433,ls),
(103,426,o),
(117,424,o),
(117,334,cs),
(117,121,ls),
(117,31,o),
(103,29,o),
(45,22,cs),
(29,20,l),
(29,-3,l)
);
},
{
closed = 1;
nodes = (
(273,108,ls),
(385,108,o),
(465,161,o),
(465,238,cs),
(465,337,o),
(383,365,o),
(295,365,cs),
(153,365,l),
(175,341,l),
(295,341,ls),
(355,341,o),
(387,307,o),
(387,238,cs),
(387,171,o),
(357,132,o),
(273,132,cs),
(179,132,l),
(179,108,l)
);
}
);
width = 497;
},
{
layerId = m002;
shapes = (
{
closed = 1;
nodes = (
(157,0,l),
(295,-3,l),
(295,31,l),
(279,33,ls),
(237,38,o),
(227,41,o),
(227,121,cs),
(227,335,ls),
(227,415,o),
(237,418,o),
(279,423,cs),
(295,425,l),
(295,459,l),
(157,456,l),
(19,459,l),
(19,425,l),
(35,423,ls),
(77,418,o),
(86,415,o),
(86,335,cs),
(86,121,ls),
(86,41,o),
(77,38,o),
(35,33,cs),
(19,31,l),
(19,-3,l)
);
},
{
closed = 1;
nodes = (
(292,107,ls),
(420,107,o),
(506,157,o),
(506,236,cs),
(506,315,o),
(420,365,o),
(292,365,cs),
(179,365,l),
(179,329,l),
(272,329,ls),
(329,329,o),
(356,299,o),
(356,236,cs),
(356,173,o),
(329,143,o),
(272,143,cs),
(179,143,l),
(179,107,l)
);
}
);
width = 522;
}
);
metricLeft = h.sc;
metricRight = p.sc;
},
{
color = 6;
glyphname = q.sc;
kernLeft = o.sc;
kernRight = o.sc;
layers = (
{
anchors = (
{
name = bottom;
pos = (269,0);
},
{
name = top;
pos = (279,455);
}
);
background = {
shapes = (
{
closed = 1;
nodes = (
(471,-176,o),
(497,-132,o),
(503,-75,c),
(482,-71,l),
(477,-104,o),
(460,-114,o),
(434,-114,cs),
(397,-114,o),
(367,-102,o),
(338,-84,cs),
(304,-63,o),
(281,-40,o),
(240,-40,cs),
(218,-40,o),
(220,-41,o),
(205,-43,c),
(299,5,l),
(268,4,l),
(157,-48,l),
(103,-48,o),
(63,-64,o),
(63,-95,cs),
(63,-108,o),
(70,-115,o),
(85,-115,cs),
(109,-115,o),
(131,-101,o),
(140,-80,cs),
(146,-66,o),
(164,-60,o),
(187,-60,cs),
(229,-60,o),
(265,-98,o),
(294,-126,cs),
(317,-148,o),
(350,-176,o),
(406,-176,cs)
);
}
);
};
layerId = "9372F035-DA38-4B54-966C-CEBA9B53DD02";
shapes = (
{
ref = o.sc;
},
{
closed = 1;
nodes = (
(511,-196,o),
(554,-175,o),
(563,-91,c),
(540,-91,l),
(538,-112,o),
(527,-134,o),
(494,-134,cs),
(375,-134,o),
(326,-34,o),
(196,-48,c),
(204,-53,l),
(319,8,l),
(275,7,l),
(148,-60,l),
(205,-43,l),
(131,-43,o),
(72,-58,o),
(72,-95,cs),
(72,-107,o),
(82,-117,o),
(99,-117,cs),
(135,-117,o),
(168,-73,o),
(211,-49,c),
(176,-65,l),
(265,-31,o),
(335,-196,o),
(466,-196,cs)
);
}
);
width = 605;
},
{
anchors = (
{
name = bottom;
pos = (269,0);
},
{
name = top;
pos = (279,455);
}
);
layerId = m002;
shapes = (
{
ref = o.sc;
},
{
closed = 1;
nodes = (
(530,-217,o),
(569,-174,o),
(576,-74,c),
(546,-74,l),
(540,-103,o),
(517,-111,o),
(491,-111,cs),
(410,-111,o),
(287,-43,o),
(202,-52,c),
(222,-56,l),
(350,8,l),
(289,7,l),
(146,-63,l),
(201,-48,l),
(117,-48,o),
(52,-63,o),
(52,-106,cs),
(52,-128,o),
(67,-144,o),
(91,-144,cs),
(137,-144,o),
(163,-91,o),
(213,-65,c),
(162,-70,l),
(284,-57,o),
(336,-217,o),
(469,-217,cs)
);
}
);
width = 615;
}
);
metricLeft = o.sc;
},
{
color = 6;
glyphname = r.sc;
kernLeft = H;
kernRight = R;
layers = (
{
anchors = (
{
name = bottom;
pos = (279,0);
},
{
name = top;
pos = (239,455);
}
);
layerId = "9372F035-DA38-4B54-966C-CEBA9B53DD02";
shapes = (
{
closed = 1;
nodes = (
(495,-11,o),
(521,-1,o),
(538,6,c),
(533,29,l),
(526,26,o),
(516,23,o),
(507,23,cs),
(476,23,o),
(455,28,o),
(445,91,cs),
(429,190,o),
(376,217,o),
(292,219,c),
(296,216,l),
(361,221,o),
(457,245,o),
(457,337,cs),
(457,429,o),
(379,455,o),
(290,455,cs),
(152,455,l),
(29,457,l),
(29,434,l),
(51,432,ls),
(103,427,o),
(117,414,o),
(117,334,cs),
(117,120,ls),
(117,31,o),
(103,29,o),
(45,22,cs),
(29,20,l),
(29,-3,l),
(151,0,l),
(273,-3,l),
(273,20,l),
(257,22,ls),
(199,29,o),
(185,31,o),
(185,120,cs),
(185,431,l),
(280,431,ls),
(358,431,o),
(378,391,o),
(378,337,cs),
(378,269,o),
(346,239,o),
(265,239,cs),
(179,239,l),
(179,215,l),
(243,215,ls),
(340,215,o),
(358,150,o),
(369,94,cs),
(386,9,o),
(416,-11,o),
(463,-11,cs)
);
}
);
width = 525;
},
{
anchors = (
{
name = bottom;
pos = (279,0);
},
{
name = top;
pos = (239,455);
}
);
layerId = m002;
shapes = (
{
closed = 1;
nodes = (
(526,-11,o),
(550,-5,o),
(568,1,c),
(560,35,l),
(556,34,o),
(551,33,o),
(547,33,cs),
(528,33,o),
(516,38,o),
(508,91,cs),
(491,198,o),
(411,227,o),
(293,229,c),
(293,208,l),
(421,208,o),
(507,259,o),
(507,339,cs),
(507,416,o),
(435,457,o),
(305,456,cs),
(163,455,l),
(19,458,l),
(19,425,l),
(35,423,ls),
(77,418,o),
(87,415,o),
(87,334,cs),
(87,121,ls),
(87,41,o),
(78,38,o),
(36,33,cs),
(20,31,l),
(20,-3,l),
(158,0,l),
(296,-3,l),
(296,31,l),
(280,33,ls),
(238,38,o),
(228,41,o),
(228,121,cs),
(228,419,l),
(284,419,ls),
(334,419,o),
(357,394,o),
(357,338,cs),
(357,274,o),
(330,244,o),
(273,244,cs),
(180,244,l),
(180,208,l),
(253,208,ls),
(299,208,o),
(333,202,o),
(351,106,cs),
(370,7,o),
(428,-11,o),
(493,-11,cs)
);
}
);
width = 558;
}
);
metricLeft = i.sc;
},
